<svg viewBox="0 0 902.93 80.17" xmlns="http://www.w3.org/2000/svg"><g fill="#212348"><path d="M901.09 8.39a1.8 1.8 0 0 0 0-3.59 1.8 1.8 0 1 0 0 3.59zm.04 5.99a1.8 1.8 0 1 0 0 3.59 1.8 1.8 0 0 0 0-3.59z"/><circle cx="891.54" cy="11.38" r="1.8"/><path d="M891.54 0a1.8 1.8 0 0 0-1.8 1.8 1.8 1.8 0 0 0 3.59 0 1.8 1.8 0 0 0-1.79-1.8zm9.59 33.51a1.8 1.8 0 1 0 0 3.59 1.8 1.8 0 0 0 0-3.59zm0-9.58a1.8 1.8 0 1 0 0 3.59 1.8 1.8 0 0 0 0-3.59z"/><circle cx="891.54" cy="30.52" r="1.8"/><path d="M891.54 19.13a1.8 1.8 0 0 0-1.8 1.8 1.8 1.8 0 0 0 3.59 0 1.8 1.8 0 0 0-1.79-1.8zm9.59 33.52a1.8 1.8 0 1 0 0 3.6 1.8 1.8 0 0 0 0-3.6zm0-9.59a1.8 1.8 0 1 0 0 3.59 1.8 1.8 0 0 0 0-3.59z"/><circle cx="891.54" cy="49.65" r="1.8"/><path d="M891.54 38.27a1.8 1.8 0 0 0-1.8 1.8 1.8 1.8 0 0 0 3.59 0 1.8 1.8 0 0 0-1.79-1.8zm0 38.27a1.8 1.8 0 0 0-1.8 1.8 1.8 1.8 0 0 0 3.59 0 1.8 1.8 0 0 0-1.79-1.8zm9.59-4.76a1.8 1.8 0 1 0 0 3.6 1.8 1.8 0 0 0 0-3.6zm0-9.59a1.8 1.8 0 1 0 0 3.6 1.8 1.8 0 0 0 0-3.6z"/><circle cx="891.54" cy="68.79" r="1.8"/><path d="M891.54 57.4a1.8 1.8 0 0 0-1.8 1.8 1.8 1.8 0 0 0 3.59 0 1.8 1.8 0 0 0-1.79-1.8zM882 14.38a1.8 1.8 0 1 0 0 3.62 1.8 1.8 0 0 0 0-3.59zm0-9.59a1.8 1.8 0 1 0 0 3.59 1.8 1.8 0 0 0 0-3.59z"/><circle cx="872.41" cy="11.38" r="1.8"/><path d="M872.41 0a1.8 1.8 0 0 0-1.8 1.8 1.8 1.8 0 0 0 3.6 0 1.8 1.8 0 0 0-1.8-1.8zM882 33.51a1.8 1.8 0 1 0 0 3.59 1.8 1.8 0 0 0 0-3.59zm0-9.58a1.8 1.8 0 1 0 0 3.59 1.8 1.8 0 0 0 0-3.59z"/><circle cx="872.41" cy="30.52" r="1.8"/><path d="M872.41 19.13a1.8 1.8 0 0 0-1.8 1.8 1.8 1.8 0 0 0 3.6 0 1.8 1.8 0 0 0-1.8-1.8zM882 52.65a1.8 1.8 0 1 0 0 3.6 1.8 1.8 0 0 0 0-3.6zm0-9.59a1.8 1.8 0 1 0 0 3.59 1.8 1.8 0 0 0 0-3.59z"/><circle cx="872.41" cy="49.65" r="1.8"/><path d="M872.41 38.27a1.8 1.8 0 0 0-1.8 1.8 1.8 1.8 0 0 0 3.6 0 1.8 1.8 0 0 0-1.8-1.8zm0 38.27a1.8 1.8 0 0 0-1.8 1.8 1.8 1.8 0 0 0 3.6 0 1.8 1.8 0 0 0-1.8-1.8zm9.59-4.76a1.8 1.8 0 1 0 0 3.6 1.8 1.8 0 0 0 0-3.6zm0-9.59a1.8 1.8 0 1 0 0 3.6 1.8 1.8 0 0 0 0-3.6z"/><circle cx="872.41" cy="68.79" r="1.8"/><path d="M872.41 57.4a1.8 1.8 0 0 0-1.8 1.8 1.8 1.8 0 0 0 3.6 0 1.8 1.8 0 0 0-1.8-1.8zm-9.55-43.02a1.8 1.8 0 1 0 0 3.59 1.8 1.8 0 0 0 0-3.59zm0-9.59a1.8 1.8 0 1 0 0 3.59 1.8 1.8 0 0 0 0-3.59z"/><circle cx="853.27" cy="11.38" r="1.8"/><path d="M853.27 0a1.8 1.8 0 0 0-1.8 1.8 1.8 1.8 0 0 0 3.6 0 1.8 1.8 0 0 0-1.8-1.8zm9.59 33.51a1.8 1.8 0 1 0 0 3.59 1.8 1.8 0 0 0 0-3.59zm0-9.58a1.8 1.8 0 1 0 0 3.59 1.8 1.8 0 0 0 0-3.59z"/><circle cx="853.27" cy="30.52" r="1.8"/><path d="M853.27 19.13a1.8 1.8 0 0 0-1.8 1.8 1.8 1.8 0 0 0 3.6 0 1.8 1.8 0 0 0-1.8-1.8zm9.59 33.52a1.8 1.8 0 1 0 0 3.6 1.8 1.8 0 0 0 0-3.6zm0-9.59a1.8 1.8 0 1 0 0 3.59 1.8 1.8 0 0 0 0-3.59z"/><circle cx="853.27" cy="49.65" r="1.8"/><path d="M853.27 38.27a1.8 1.8 0 0 0-1.8 1.8 1.8 1.8 0 0 0 3.6 0 1.8 1.8 0 0 0-1.8-1.8zm0 38.27a1.8 1.8 0 0 0-1.8 1.8 1.8 1.8 0 0 0 3.6 0 1.8 1.8 0 0 0-1.8-1.8zm9.59-4.76a1.8 1.8 0 1 0 0 3.6 1.8 1.8 0 0 0 0-3.6zm0-9.59a1.8 1.8 0 1 0 0 3.6 1.8 1.8 0 0 0 0-3.6z"/><circle cx="853.27" cy="68.79" r="1.8"/><path d="M853.27 57.4a1.8 1.8 0 0 0-1.8 1.8 1.8 1.8 0 0 0 3.6 0 1.8 1.8 0 0 0-1.8-1.8zm-9.54-43.02a1.8 1.8 0 1 0 0 3.59 1.8 1.8 0 0 0 0-3.59zm0-9.59a1.8 1.8 0 1 0 0 3.59 1.8 1.8 0 0 0 0-3.59z"/><circle cx="834.14" cy="11.38" r="1.8"/><path d="M834.14 0a1.8 1.8 0 0 0-1.8 1.8 1.8 1.8 0 0 0 3.59 0 1.8 1.8 0 0 0-1.79-1.8zm9.59 33.51a1.8 1.8 0 1 0 0 3.59 1.8 1.8 0 0 0 0-3.59zm0-9.58a1.8 1.8 0 1 0 0 3.59 1.8 1.8 0 0 0 0-3.59z"/><circle cx="834.14" cy="30.52" r="1.8"/><path d="M834.14 19.13a1.8 1.8 0 0 0-1.8 1.8 1.8 1.8 0 0 0 3.59 0 1.8 1.8 0 0 0-1.79-1.8zm9.59 33.52a1.8 1.8 0 1 0 0 3.6 1.8 1.8 0 0 0 0-3.6zm0-9.59a1.8 1.8 0 1 0 0 3.59 1.8 1.8 0 0 0 0-3.59z"/><circle cx="834.14" cy="49.65" r="1.8"/><path d="M834.14 38.27a1.8 1.8 0 0 0-1.8 1.8 1.8 1.8 0 0 0 3.59 0 1.8 1.8 0 0 0-1.79-1.8zm0 38.27a1.8 1.8 0 0 0-1.8 1.8 1.8 1.8 0 0 0 3.59 0 1.8 1.8 0 0 0-1.79-1.8zm9.59-4.76a1.8 1.8 0 1 0 0 3.6 1.8 1.8 0 0 0 0-3.6zm0-9.59a1.8 1.8 0 1 0 0 3.6 1.8 1.8 0 0 0 0-3.6z"/><circle cx="834.14" cy="68.79" r="1.8"/><path d="M834.14 57.4a1.8 1.8 0 0 0-1.8 1.8 1.8 1.8 0 0 0 3.59 0 1.8 1.8 0 0 0-1.79-1.8zm-9.55-43.02a1.8 1.8 0 1 0 0 3.59 1.8 1.8 0 0 0 0-3.59zm0-9.59a1.8 1.8 0 1 0 0 3.59 1.8 1.8 0 0 0 0-3.59z"/><circle cx="815.01" cy="11.38" r="1.8"/><path d="M815 0a1.8 1.8 0 0 0-1.8 1.8 1.8 1.8 0 0 0 3.59 0A1.8 1.8 0 0 0 815 0zm9.59 33.51a1.8 1.8 0 1 0 0 3.59 1.8 1.8 0 0 0 0-3.59zm0-9.58a1.8 1.8 0 1 0 0 3.59 1.8 1.8 0 0 0 0-3.59z"/><circle cx="815.01" cy="30.52" r="1.8"/><path d="M815 19.13a1.8 1.8 0 0 0-1.8 1.8 1.8 1.8 0 0 0 3.59 0 1.8 1.8 0 0 0-1.79-1.8zm9.59 33.52a1.8 1.8 0 1 0 0 3.6 1.8 1.8 0 0 0 0-3.6zm0-9.59a1.8 1.8 0 1 0 0 3.59 1.8 1.8 0 0 0 0-3.59z"/><circle cx="815.01" cy="49.65" r="1.8"/><path d="M815 38.27a1.8 1.8 0 0 0-1.8 1.8 1.8 1.8 0 0 0 3.59 0 1.8 1.8 0 0 0-1.79-1.8zm0 38.27a1.8 1.8 0 0 0-1.8 1.8 1.8 1.8 0 0 0 3.59 0 1.8 1.8 0 0 0-1.79-1.8zm9.59-4.76a1.8 1.8 0 1 0 0 3.6 1.8 1.8 0 0 0 0-3.6zm0-9.59a1.8 1.8 0 1 0 0 3.6 1.8 1.8 0 0 0 0-3.6z"/><circle cx="815.01" cy="68.79" r="1.8"/><path d="M815 57.4a1.8 1.8 0 0 0-1.8 1.8 1.8 1.8 0 0 0 3.59 0 1.8 1.8 0 0 0-1.79-1.8zm-9.54-43.02a1.8 1.8 0 1 0 0 3.59 1.8 1.8 0 0 0 0-3.59zm0-9.59a1.8 1.8 0 1 0 0 3.59 1.8 1.8 0 0 0 0-3.59z"/><circle cx="795.87" cy="11.38" r="1.8"/><path d="M795.87 0a1.8 1.8 0 0 0-1.8 1.8 1.8 1.8 0 0 0 3.59 0 1.8 1.8 0 0 0-1.79-1.8zm9.59 33.51a1.8 1.8 0 1 0 0 3.59 1.8 1.8 0 0 0 0-3.59zm0-9.58a1.8 1.8 0 1 0 0 3.59 1.8 1.8 0 0 0 0-3.59z"/><circle cx="795.87" cy="30.52" r="1.8"/><path d="M795.87 19.13a1.8 1.8 0 0 0-1.8 1.8 1.8 1.8 0 0 0 3.59 0 1.8 1.8 0 0 0-1.79-1.8zm9.59 33.52a1.8 1.8 0 1 0 0 3.6 1.8 1.8 0 0 0 0-3.6zm0-9.59a1.8 1.8 0 1 0 0 3.59 1.8 1.8 0 0 0 0-3.59z"/><circle cx="795.87" cy="49.65" r="1.8"/><path d="M795.87 38.27a1.8 1.8 0 0 0-1.8 1.8 1.8 1.8 0 0 0 3.59 0 1.8 1.8 0 0 0-1.79-1.8zm0 38.27a1.8 1.8 0 0 0-1.8 1.8 1.8 1.8 0 0 0 3.59 0 1.8 1.8 0 0 0-1.79-1.8zm9.59-4.76a1.8 1.8 0 1 0 0 3.6 1.8 1.8 0 0 0 0-3.6zm0-9.59a1.8 1.8 0 1 0 0 3.6 1.8 1.8 0 0 0 0-3.6z"/><circle cx="795.87" cy="68.79" r="1.8"/><path d="M795.87 57.4a1.8 1.8 0 0 0-1.8 1.8 1.8 1.8 0 0 0 3.59 0 1.8 1.8 0 0 0-1.79-1.8zm-9.54-43.02a1.8 1.8 0 1 0 0 3.59 1.8 1.8 0 0 0 0-3.59zm0-9.59a1.8 1.8 0 1 0 0 3.59 1.8 1.8 0 0 0 0-3.59z"/><circle cx="776.74" cy="11.38" r="1.8"/><path d="M776.74 0a1.8 1.8 0 0 0-1.8 1.8 1.8 1.8 0 0 0 3.59 0 1.8 1.8 0 0 0-1.79-1.8zm9.59 33.51a1.8 1.8 0 1 0 0 3.59 1.8 1.8 0 0 0 0-3.59zm0-9.58a1.8 1.8 0 1 0 0 3.59 1.8 1.8 0 0 0 0-3.59z"/><circle cx="776.74" cy="30.52" r="1.8"/><path d="M776.74 19.13a1.8 1.8 0 0 0-1.8 1.8 1.8 1.8 0 0 0 3.59 0 1.8 1.8 0 0 0-1.79-1.8zm9.59 33.52a1.8 1.8 0 1 0 0 3.6 1.8 1.8 0 0 0 0-3.6zm0-9.59a1.8 1.8 0 1 0 0 3.59 1.8 1.8 0 0 0 0-3.59z"/><circle cx="776.74" cy="49.65" r="1.8"/><path d="M776.74 38.27a1.8 1.8 0 0 0-1.8 1.8 1.8 1.8 0 0 0 3.59 0 1.8 1.8 0 0 0-1.79-1.8zm0 38.27a1.8 1.8 0 0 0-1.8 1.8 1.8 1.8 0 0 0 3.59 0 1.8 1.8 0 0 0-1.79-1.8zm9.59-4.76a1.8 1.8 0 1 0 0 3.6 1.8 1.8 0 0 0 0-3.6zm0-9.59a1.8 1.8 0 1 0 0 3.6 1.8 1.8 0 0 0 0-3.6z"/><circle cx="776.74" cy="68.79" r="1.8"/><path d="M776.74 57.4a1.8 1.8 0 0 0-1.8 1.8 1.8 1.8 0 0 0 3.59 0 1.8 1.8 0 0 0-1.79-1.8zm-9.55-43.02a1.8 1.8 0 1 0 0 3.59 1.8 1.8 0 0 0 0-3.59zm0-9.59a1.8 1.8 0 1 0 0 3.59 1.8 1.8 0 0 0 0-3.59z"/><circle cx="757.6" cy="11.38" r="1.8"/><path d="M757.6 0a1.8 1.8 0 0 0-1.8 1.8 1.8 1.8 0 0 0 3.59 0A1.8 1.8 0 0 0 757.6 0zm9.59 33.51a1.8 1.8 0 1 0 0 3.59 1.8 1.8 0 0 0 0-3.59zm0-9.58a1.8 1.8 0 1 0 0 3.59 1.8 1.8 0 0 0 0-3.59z"/><circle cx="757.6" cy="30.52" r="1.8"/><path d="M757.6 19.13a1.8 1.8 0 0 0-1.8 1.8 1.8 1.8 0 0 0 3.59 0 1.8 1.8 0 0 0-1.79-1.8zm9.59 33.52a1.8 1.8 0 1 0 0 3.6 1.8 1.8 0 0 0 0-3.6zm0-9.59a1.8 1.8 0 1 0 0 3.59 1.8 1.8 0 0 0 0-3.59z"/><circle cx="757.6" cy="49.65" r="1.8"/><path d="M757.6 38.27a1.8 1.8 0 0 0-1.8 1.8 1.8 1.8 0 0 0 3.59 0 1.8 1.8 0 0 0-1.79-1.8zm0 38.27a1.8 1.8 0 0 0-1.8 1.8 1.8 1.8 0 0 0 3.59 0 1.8 1.8 0 0 0-1.79-1.8zm9.59-4.76a1.8 1.8 0 1 0 0 3.6 1.8 1.8 0 0 0 0-3.6zm0-9.59a1.8 1.8 0 1 0 0 3.6 1.8 1.8 0 0 0 0-3.6z"/><circle cx="757.6" cy="68.79" r="1.8"/><path d="M757.6 57.4a1.8 1.8 0 0 0-1.8 1.8 1.8 1.8 0 0 0 3.59 0 1.8 1.8 0 0 0-1.79-1.8zm-9.54-43.02A1.8 1.8 0 1 0 748 18a1.8 1.8 0 0 0 0-3.59zm0-9.59a1.8 1.8 0 1 0 0 3.59 1.8 1.8 0 0 0 0-3.59z"/><circle cx="738.47" cy="11.38" r="1.8"/><path d="M738.47 0a1.8 1.8 0 0 0-1.8 1.8 1.8 1.8 0 0 0 3.6 0 1.8 1.8 0 0 0-1.8-1.8zm9.59 33.51a1.8 1.8 0 1 0 0 3.59 1.8 1.8 0 0 0 0-3.59zm0-9.58a1.8 1.8 0 1 0 0 3.59 1.8 1.8 0 0 0 0-3.59z"/><circle cx="738.47" cy="30.52" r="1.8"/><path d="M738.47 19.13a1.8 1.8 0 0 0-1.8 1.8 1.8 1.8 0 0 0 3.6 0 1.8 1.8 0 0 0-1.8-1.8zm9.59 33.52a1.8 1.8 0 1 0 0 3.6 1.8 1.8 0 0 0 0-3.6zm0-9.59a1.8 1.8 0 1 0 0 3.59 1.8 1.8 0 0 0 0-3.59z"/><circle cx="738.47" cy="49.65" r="1.8"/><path d="M738.47 38.27a1.8 1.8 0 0 0-1.8 1.8 1.8 1.8 0 0 0 3.6 0 1.8 1.8 0 0 0-1.8-1.8zm0 38.27a1.8 1.8 0 0 0-1.8 1.8 1.8 1.8 0 0 0 3.6 0 1.8 1.8 0 0 0-1.8-1.8zm9.59-4.76a1.8 1.8 0 1 0 0 3.6 1.8 1.8 0 0 0 0-3.6zm0-9.59a1.8 1.8 0 1 0 0 3.6 1.8 1.8 0 0 0 0-3.6z"/><circle cx="738.47" cy="68.79" r="1.8"/><path d="M738.47 57.4a1.8 1.8 0 0 0-1.8 1.8 1.8 1.8 0 0 0 3.6 0 1.8 1.8 0 0 0-1.8-1.8zm-9.55-43.02a1.8 1.8 0 1 0 0 3.59 1.8 1.8 0 0 0 0-3.59zm0-9.59a1.8 1.8 0 1 0 0 3.59 1.8 1.8 0 0 0 0-3.59z"/><circle cx="719.34" cy="11.38" r="1.8"/><path d="M719.34 0a1.8 1.8 0 0 0-1.8 1.8 1.8 1.8 0 0 0 3.6 0 1.8 1.8 0 0 0-1.8-1.8zm9.58 33.51a1.8 1.8 0 1 0 0 3.59 1.8 1.8 0 0 0 0-3.59zm0-9.58a1.8 1.8 0 1 0 0 3.59 1.8 1.8 0 0 0 0-3.59z"/><circle cx="719.34" cy="30.52" r="1.8"/><path d="M719.34 19.13a1.8 1.8 0 0 0-1.8 1.8 1.8 1.8 0 0 0 3.6 0 1.8 1.8 0 0 0-1.8-1.8zm9.58 33.52a1.8 1.8 0 1 0 0 3.6 1.8 1.8 0 0 0 0-3.6zm0-9.59a1.8 1.8 0 1 0 0 3.59 1.8 1.8 0 0 0 0-3.59z"/><circle cx="719.34" cy="49.65" r="1.8"/><path d="M719.34 38.27a1.8 1.8 0 0 0-1.8 1.8 1.8 1.8 0 0 0 3.6 0 1.8 1.8 0 0 0-1.8-1.8zm0 38.27a1.8 1.8 0 0 0-1.8 1.8 1.8 1.8 0 0 0 3.6 0 1.8 1.8 0 0 0-1.8-1.8zm9.58-4.76a1.8 1.8 0 1 0 0 3.6 1.8 1.8 0 0 0 0-3.6zm0-9.59a1.8 1.8 0 1 0 0 3.6 1.8 1.8 0 0 0 0-3.6z"/><circle cx="719.34" cy="68.79" r="1.8"/><path d="M719.34 57.4a1.8 1.8 0 0 0-1.8 1.8 1.8 1.8 0 0 0 3.6 0 1.8 1.8 0 0 0-1.8-1.8zm-9.55-43.02a1.8 1.8 0 1 0 0 3.59 1.8 1.8 0 0 0 0-3.59zm0-9.59a1.8 1.8 0 1 0 0 3.59 1.8 1.8 0 0 0 0-3.59z"/><circle cx="700.2" cy="11.38" r="1.8"/><path d="M700.2 0a1.8 1.8 0 0 0-1.8 1.8 1.8 1.8 0 0 0 3.59 0A1.8 1.8 0 0 0 700.2 0zm9.59 33.51a1.8 1.8 0 1 0 0 3.59 1.8 1.8 0 0 0 0-3.59zm0-9.58a1.8 1.8 0 1 0 0 3.59 1.8 1.8 0 0 0 0-3.59z"/><circle cx="700.2" cy="30.52" r="1.8"/><path d="M700.2 19.13a1.8 1.8 0 0 0-1.8 1.8 1.8 1.8 0 0 0 3.6.07 1.8 1.8 0 0 0-1.8-1.87zm9.59 33.52a1.8 1.8 0 1 0 0 3.6 1.8 1.8 0 0 0 0-3.6zm0-9.59a1.8 1.8 0 1 0 0 3.59 1.8 1.8 0 0 0 0-3.59z"/><circle cx="700.2" cy="49.65" r="1.8"/><path d="M700.2 38.27a1.8 1.8 0 0 0-1.8 1.8 1.8 1.8 0 0 0 3.59 0 1.8 1.8 0 0 0-1.79-1.8zm0 38.27a1.8 1.8 0 0 0-1.8 1.8 1.8 1.8 0 0 0 3.59 0 1.8 1.8 0 0 0-1.79-1.8zm9.59-4.76a1.8 1.8 0 1 0 0 3.6 1.8 1.8 0 0 0 0-3.6zm0-9.59a1.8 1.8 0 1 0 0 3.6 1.8 1.8 0 0 0 0-3.6z"/><circle cx="700.2" cy="68.79" r="1.8"/><path d="M700.2 57.4a1.8 1.8 0 0 0-1.8 1.8 1.8 1.8 0 0 0 3.59 0 1.8 1.8 0 0 0-1.79-1.8zm-9.54-43.02a1.8 1.8 0 1 0 0 3.59 1.8 1.8 0 0 0 0-3.59zm0-9.59a1.8 1.8 0 1 0 0 3.59 1.8 1.8 0 0 0 0-3.59z"/><circle cx="681.07" cy="11.38" r="1.8"/><path d="M681.07 0a1.8 1.8 0 0 0-1.8 1.8 1.8 1.8 0 0 0 3.59 0 1.8 1.8 0 0 0-1.79-1.8zm9.59 33.51a1.8 1.8 0 1 0 0 3.59 1.8 1.8 0 0 0 0-3.59zm0-9.58a1.8 1.8 0 1 0 0 3.59 1.8 1.8 0 0 0 0-3.59z"/><circle cx="681.07" cy="30.52" r="1.8"/><path d="M681.07 19.13a1.8 1.8 0 0 0-1.8 1.8 1.8 1.8 0 0 0 3.59 0 1.8 1.8 0 0 0-1.79-1.8zm9.59 33.52a1.8 1.8 0 1 0 0 3.6 1.8 1.8 0 0 0 0-3.6zm0-9.59a1.8 1.8 0 1 0 0 3.59 1.8 1.8 0 0 0 0-3.59z"/><circle cx="681.07" cy="49.65" r="1.8"/><path d="M681.07 38.27a1.8 1.8 0 0 0-1.8 1.8 1.8 1.8 0 0 0 3.59 0 1.8 1.8 0 0 0-1.79-1.8zm0 38.27a1.8 1.8 0 0 0-1.8 1.8 1.8 1.8 0 0 0 3.59 0 1.8 1.8 0 0 0-1.79-1.8zm9.59-4.76a1.8 1.8 0 1 0 0 3.6 1.8 1.8 0 0 0 0-3.6zm0-9.59a1.8 1.8 0 1 0 0 3.6 1.8 1.8 0 0 0 0-3.6z"/><circle cx="681.07" cy="68.79" r="1.8"/><path d="M681.07 57.4a1.8 1.8 0 0 0-1.8 1.8 1.8 1.8 0 0 0 3.59 0 1.8 1.8 0 0 0-1.79-1.8zm-9.55-43.02a1.8 1.8 0 1 0 0 3.59 1.8 1.8 0 0 0 0-3.59zm0-9.59a1.8 1.8 0 1 0 0 3.59 1.8 1.8 0 0 0 0-3.59z"/><circle cx="661.94" cy="11.38" r="1.8"/><path d="M661.94 0a1.8 1.8 0 0 0-1.8 1.8 1.8 1.8 0 0 0 3.59 0 1.8 1.8 0 0 0-1.79-1.8zm9.58 33.51a1.8 1.8 0 1 0 0 3.59 1.8 1.8 0 0 0 0-3.59zm0-9.58a1.8 1.8 0 1 0 0 3.59 1.8 1.8 0 0 0 0-3.59z"/><circle cx="661.94" cy="30.52" r="1.8"/><path d="M661.94 19.13a1.8 1.8 0 0 0-1.8 1.8 1.8 1.8 0 0 0 3.59 0 1.8 1.8 0 0 0-1.79-1.8zm9.58 33.52a1.8 1.8 0 1 0 0 3.6 1.8 1.8 0 0 0 0-3.6zm0-9.59a1.8 1.8 0 1 0 0 3.59 1.8 1.8 0 0 0 0-3.59z"/><circle cx="661.94" cy="49.65" r="1.8"/><path d="M661.94 38.27a1.8 1.8 0 0 0-1.8 1.8 1.8 1.8 0 0 0 3.59 0 1.8 1.8 0 0 0-1.79-1.8zm0 38.27a1.8 1.8 0 0 0-1.8 1.8 1.8 1.8 0 0 0 3.59 0 1.8 1.8 0 0 0-1.79-1.8zm9.58-4.76a1.8 1.8 0 1 0 0 3.6 1.8 1.8 0 0 0 0-3.6zm0-9.59a1.8 1.8 0 1 0 0 3.6 1.8 1.8 0 0 0 0-3.6z"/><circle cx="661.94" cy="68.79" r="1.8"/><path d="M661.94 57.4a1.8 1.8 0 0 0-1.8 1.8 1.8 1.8 0 0 0 3.59 0 1.8 1.8 0 0 0-1.79-1.8zm-9.55-43.02a1.8 1.8 0 1 0 0 3.59 1.8 1.8 0 0 0 0-3.59zm0-9.59a1.8 1.8 0 1 0 0 3.59 1.8 1.8 0 0 0 0-3.59z"/><circle cx="642.8" cy="11.38" r="1.8"/><path d="M642.8 0a1.8 1.8 0 0 0-1.8 1.8 1.8 1.8 0 0 0 3.59 0A1.8 1.8 0 0 0 642.8 0zm9.59 33.51a1.8 1.8 0 1 0 0 3.59 1.8 1.8 0 0 0 0-3.59zm0-9.58a1.8 1.8 0 1 0 0 3.59 1.8 1.8 0 0 0 0-3.59z"/><circle cx="642.8" cy="30.52" r="1.8"/><path d="M642.8 19.13a1.8 1.8 0 0 0-1.8 1.8 1.8 1.8 0 0 0 3.59 0 1.8 1.8 0 0 0-1.79-1.8zm9.59 33.52a1.8 1.8 0 1 0 0 3.6 1.8 1.8 0 0 0 0-3.6zm0-9.59a1.8 1.8 0 1 0 0 3.59 1.8 1.8 0 0 0 0-3.59z"/><circle cx="642.8" cy="49.65" r="1.8"/><path d="M642.8 38.27a1.8 1.8 0 0 0-1.8 1.8 1.8 1.8 0 0 0 3.59 0 1.8 1.8 0 0 0-1.79-1.8zm0 38.27a1.8 1.8 0 0 0-1.8 1.8 1.8 1.8 0 0 0 3.59 0 1.8 1.8 0 0 0-1.79-1.8zm9.59-4.76a1.8 1.8 0 1 0 0 3.6 1.8 1.8 0 0 0 0-3.6zm0-9.59a1.8 1.8 0 1 0 0 3.6 1.8 1.8 0 0 0 0-3.6z"/><circle cx="642.8" cy="68.79" r="1.8"/><path d="M642.8 57.4a1.8 1.8 0 0 0-1.8 1.8 1.8 1.8 0 0 0 3.59 0 1.8 1.8 0 0 0-1.79-1.8zm-9.55-43.02a1.8 1.8 0 1 0 0 3.59 1.8 1.8 0 0 0 0-3.59zm0-9.59a1.8 1.8 0 1 0 0 3.59 1.8 1.8 0 0 0 0-3.59z"/><circle cx="623.67" cy="11.38" r="1.8"/><path d="M623.67 0a1.8 1.8 0 0 0-1.8 1.8 1.8 1.8 0 0 0 3.59 0 1.8 1.8 0 0 0-1.79-1.8zm9.58 33.51a1.8 1.8 0 1 0 0 3.59 1.8 1.8 0 0 0 0-3.59zm0-9.58a1.8 1.8 0 1 0 0 3.59 1.8 1.8 0 0 0 0-3.59z"/><circle cx="623.67" cy="30.52" r="1.8"/><path d="M623.67 19.13a1.8 1.8 0 0 0-1.8 1.8 1.8 1.8 0 0 0 3.59 0 1.8 1.8 0 0 0-1.79-1.8zm9.58 33.52a1.8 1.8 0 1 0 0 3.6 1.8 1.8 0 0 0 0-3.6zm0-9.59a1.8 1.8 0 1 0 0 3.59 1.8 1.8 0 0 0 0-3.59z"/><circle cx="623.67" cy="49.65" r="1.8"/><path d="M623.67 38.27a1.8 1.8 0 0 0-1.8 1.8 1.8 1.8 0 0 0 3.59 0 1.8 1.8 0 0 0-1.79-1.8zm0 38.27a1.8 1.8 0 0 0-1.8 1.8 1.8 1.8 0 0 0 3.59 0 1.8 1.8 0 0 0-1.79-1.8zm9.58-4.76a1.8 1.8 0 1 0 0 3.6 1.8 1.8 0 0 0 0-3.6zm0-9.59a1.8 1.8 0 1 0 0 3.6 1.8 1.8 0 0 0 0-3.6z"/><circle cx="623.67" cy="68.79" r="1.8"/><path d="M623.67 57.4a1.8 1.8 0 0 0-1.8 1.8 1.8 1.8 0 0 0 3.59 0 1.8 1.8 0 0 0-1.79-1.8zm-9.55-43.02a1.8 1.8 0 1 0 0 3.59 1.8 1.8 0 0 0 0-3.59zm0-9.59a1.8 1.8 0 1 0 0 3.59 1.8 1.8 0 0 0 0-3.59z"/><circle cx="604.53" cy="11.38" r="1.8"/><path d="M604.53 0a1.8 1.8 0 0 0-1.8 1.8 1.8 1.8 0 0 0 3.6 0 1.8 1.8 0 0 0-1.8-1.8zm9.59 33.51a1.8 1.8 0 1 0 0 3.59 1.8 1.8 0 0 0 0-3.59zm0-9.58a1.8 1.8 0 1 0 0 3.59 1.8 1.8 0 0 0 0-3.59z"/><circle cx="604.53" cy="30.52" r="1.8"/><path d="M604.53 19.13a1.8 1.8 0 0 0-1.8 1.8 1.8 1.8 0 0 0 3.6 0 1.8 1.8 0 0 0-1.8-1.8zm9.59 33.52a1.8 1.8 0 1 0 0 3.6 1.8 1.8 0 0 0 0-3.6zm0-9.59a1.8 1.8 0 1 0 0 3.59 1.8 1.8 0 0 0 0-3.59z"/><circle cx="604.53" cy="49.65" r="1.8"/><path d="M604.53 38.27a1.8 1.8 0 0 0-1.8 1.8 1.8 1.8 0 0 0 3.6 0 1.8 1.8 0 0 0-1.8-1.8zm0 38.27a1.8 1.8 0 0 0-1.8 1.8 1.8 1.8 0 0 0 3.6 0 1.8 1.8 0 0 0-1.8-1.8zm9.59-4.76a1.8 1.8 0 1 0 0 3.6 1.8 1.8 0 0 0 0-3.6zm0-9.59a1.8 1.8 0 1 0 0 3.6 1.8 1.8 0 0 0 0-3.6z"/><circle cx="604.53" cy="68.79" r="1.8"/><path d="M604.53 57.4a1.8 1.8 0 0 0-1.8 1.8 1.8 1.8 0 0 0 3.6 0 1.8 1.8 0 0 0-1.8-1.8zM595 14.38a1.8 1.8 0 1 0 0 3.59 1.8 1.8 0 0 0 0-3.59zm0-9.59a1.8 1.8 0 1 0 0 3.59 1.8 1.8 0 0 0 0-3.59z"/><circle cx="585.4" cy="11.38" r="1.8"/><path d="M585.4 0a1.8 1.8 0 0 0-1.8 1.8 1.8 1.8 0 0 0 3.6 0 1.8 1.8 0 0 0-1.8-1.8zm9.6 33.51a1.8 1.8 0 1 0 0 3.59 1.8 1.8 0 0 0 0-3.59zm0-9.58a1.8 1.8 0 1 0 0 3.59 1.8 1.8 0 0 0 0-3.59z"/><circle cx="585.4" cy="30.52" r="1.8"/><path d="M585.4 19.13a1.8 1.8 0 0 0-1.8 1.8 1.8 1.8 0 0 0 3.6 0 1.8 1.8 0 0 0-1.8-1.8zm9.6 33.52a1.8 1.8 0 1 0 0 3.6 1.8 1.8 0 0 0 0-3.6zm0-9.59a1.8 1.8 0 1 0 0 3.59 1.8 1.8 0 0 0 0-3.59z"/><circle cx="585.4" cy="49.65" r="1.8"/><path d="M585.4 38.27a1.8 1.8 0 0 0-1.8 1.8 1.8 1.8 0 0 0 3.6 0 1.8 1.8 0 0 0-1.8-1.8zm0 38.27a1.8 1.8 0 0 0-1.8 1.8 1.8 1.8 0 0 0 3.6 0 1.8 1.8 0 0 0-1.8-1.8zm9.6-4.76a1.8 1.8 0 1 0 0 3.6 1.8 1.8 0 0 0 0-3.6zm0-9.59a1.8 1.8 0 1 0 0 3.6 1.8 1.8 0 0 0 0-3.6z"/><circle cx="585.4" cy="68.79" r="1.8"/><path d="M585.4 57.4a1.8 1.8 0 0 0-1.8 1.8 1.8 1.8 0 0 0 3.6 0 1.8 1.8 0 0 0-1.8-1.8zm-9.55-43.02a1.8 1.8 0 1 0 0 3.59 1.8 1.8 0 0 0 0-3.59zm0-9.59a1.8 1.8 0 1 0 0 3.59 1.8 1.8 0 0 0 0-3.59z"/><circle cx="566.27" cy="11.38" r="1.8"/><path d="M566.27 0a1.8 1.8 0 0 0-1.8 1.8 1.8 1.8 0 0 0 3.59 0 1.8 1.8 0 0 0-1.79-1.8zm9.58 33.51a1.8 1.8 0 1 0 0 3.59 1.8 1.8 0 0 0 0-3.59zm0-9.58a1.8 1.8 0 1 0 0 3.59 1.8 1.8 0 0 0 0-3.59z"/><circle cx="566.27" cy="30.52" r="1.8"/><path d="M566.27 19.13a1.8 1.8 0 0 0-1.8 1.8 1.8 1.8 0 0 0 3.59 0 1.8 1.8 0 0 0-1.79-1.8zm9.58 33.52a1.8 1.8 0 1 0 0 3.6 1.8 1.8 0 0 0 0-3.6zm0-9.59a1.8 1.8 0 1 0 0 3.59 1.8 1.8 0 0 0 0-3.59z"/><circle cx="566.27" cy="49.65" r="1.8"/><path d="M566.27 38.27a1.8 1.8 0 0 0-1.8 1.8 1.8 1.8 0 0 0 3.59 0 1.8 1.8 0 0 0-1.79-1.8zm0 38.27a1.8 1.8 0 0 0-1.8 1.8 1.8 1.8 0 0 0 3.59 0 1.8 1.8 0 0 0-1.79-1.8zm9.58-4.76a1.8 1.8 0 1 0 0 3.6 1.8 1.8 0 0 0 0-3.6zm0-9.59a1.8 1.8 0 1 0 0 3.6 1.8 1.8 0 0 0 0-3.6z"/><circle cx="566.27" cy="68.79" r="1.8"/><path d="M566.27 57.4a1.8 1.8 0 0 0-1.8 1.8 1.8 1.8 0 0 0 3.59 0 1.8 1.8 0 0 0-1.79-1.8zm-9.55-43.02a1.8 1.8 0 1 0 0 3.59 1.8 1.8 0 0 0 0-3.59zm0-9.59a1.8 1.8 0 1 0 0 3.59 1.8 1.8 0 0 0 0-3.59z"/><circle cx="547.13" cy="11.38" r="1.8"/><path d="M547.13 0a1.8 1.8 0 0 0-1.8 1.8 1.8 1.8 0 0 0 3.59 0 1.8 1.8 0 0 0-1.79-1.8zm9.59 33.51a1.8 1.8 0 1 0 0 3.59 1.8 1.8 0 0 0 0-3.59zm0-9.58a1.8 1.8 0 1 0 0 3.59 1.8 1.8 0 0 0 0-3.59z"/><circle cx="547.13" cy="30.52" r="1.8"/><path d="M547.13 19.13a1.8 1.8 0 0 0-1.8 1.8 1.8 1.8 0 0 0 3.59 0 1.8 1.8 0 0 0-1.79-1.8zm9.59 33.52a1.8 1.8 0 1 0 0 3.6 1.8 1.8 0 0 0 0-3.6zm0-9.59a1.8 1.8 0 1 0 0 3.59 1.8 1.8 0 0 0 0-3.59z"/><circle cx="547.13" cy="49.65" r="1.8"/><path d="M547.13 38.27a1.8 1.8 0 0 0-1.8 1.8 1.8 1.8 0 0 0 3.59 0 1.8 1.8 0 0 0-1.79-1.8zm0 38.27a1.8 1.8 0 0 0-1.8 1.8 1.8 1.8 0 0 0 3.59 0 1.8 1.8 0 0 0-1.79-1.8zm9.59-4.76a1.8 1.8 0 1 0 0 3.6 1.8 1.8 0 0 0 0-3.6zm0-9.59a1.8 1.8 0 1 0 0 3.6 1.8 1.8 0 0 0 0-3.6z"/><circle cx="547.13" cy="68.79" r="1.8"/><path d="M547.13 57.4a1.8 1.8 0 0 0-1.8 1.8 1.8 1.8 0 0 0 3.59 0 1.8 1.8 0 0 0-1.79-1.8zm-9.54-43.02a1.8 1.8 0 1 0 0 3.59 1.8 1.8 0 0 0 0-3.59zm0-9.59a1.8 1.8 0 1 0 0 3.59 1.8 1.8 0 0 0 0-3.59z"/><circle cx="528" cy="11.38" r="1.8"/><path d="M528 0a1.8 1.8 0 0 0-1.8 1.8 1.8 1.8 0 0 0 3.59 0A1.8 1.8 0 0 0 528 0zm9.59 33.51a1.8 1.8 0 1 0 0 3.59 1.8 1.8 0 0 0 0-3.59zm0-9.58a1.8 1.8 0 1 0 0 3.59 1.8 1.8 0 0 0 0-3.59z"/><circle cx="528" cy="30.52" r="1.8"/><path d="M528 19.13a1.8 1.8 0 0 0-1.8 1.8 1.8 1.8 0 0 0 3.59 0 1.8 1.8 0 0 0-1.79-1.8zm9.59 33.52a1.8 1.8 0 1 0 0 3.6 1.8 1.8 0 0 0 0-3.6zm0-9.59a1.8 1.8 0 1 0 0 3.59 1.8 1.8 0 0 0 0-3.59z"/><circle cx="528" cy="49.65" r="1.8"/><path d="M528 38.27a1.8 1.8 0 0 0-1.8 1.8 1.8 1.8 0 0 0 3.59 0 1.8 1.8 0 0 0-1.79-1.8zm0 38.27a1.8 1.8 0 0 0-1.8 1.8 1.8 1.8 0 0 0 3.59 0 1.8 1.8 0 0 0-1.79-1.8zm9.59-4.76a1.8 1.8 0 1 0 0 3.6 1.8 1.8 0 0 0 0-3.6zm0-9.59a1.8 1.8 0 1 0 0 3.6 1.8 1.8 0 0 0 0-3.6z"/><circle cx="528" cy="68.79" r="1.8"/><path d="M528 57.4a1.8 1.8 0 0 0-1.8 1.8 1.8 1.8 0 0 0 3.59 0 1.8 1.8 0 0 0-1.79-1.8zm-9.55-43.02a1.8 1.8 0 1 0 0 3.59 1.8 1.8 0 0 0 0-3.59zm0-9.59a1.8 1.8 0 1 0 0 3.59 1.8 1.8 0 0 0 0-3.59z"/><circle cx="508.86" cy="11.38" r="1.8"/><path d="M508.86 0a1.8 1.8 0 0 0-1.8 1.8 1.8 1.8 0 0 0 3.59 0 1.8 1.8 0 0 0-1.79-1.8zm9.59 33.51a1.8 1.8 0 1 0 0 3.59 1.8 1.8 0 0 0 0-3.59zm0-9.58a1.8 1.8 0 1 0 0 3.59 1.8 1.8 0 0 0 0-3.59z"/><circle cx="508.86" cy="30.52" r="1.8"/><path d="M508.86 19.13a1.8 1.8 0 0 0-1.8 1.8 1.8 1.8 0 0 0 3.59 0 1.8 1.8 0 0 0-1.79-1.8zm9.59 33.52a1.8 1.8 0 1 0 0 3.6 1.8 1.8 0 0 0 0-3.6zm0-9.59a1.8 1.8 0 1 0 0 3.59 1.8 1.8 0 0 0 0-3.59z"/><circle cx="508.86" cy="49.65" r="1.8"/><path d="M508.86 38.27a1.8 1.8 0 0 0-1.8 1.8 1.8 1.8 0 0 0 3.59 0 1.8 1.8 0 0 0-1.79-1.8zm0 38.27a1.8 1.8 0 0 0-1.8 1.8 1.8 1.8 0 0 0 3.59 0 1.8 1.8 0 0 0-1.79-1.8zm9.59-4.76a1.8 1.8 0 1 0 0 3.6 1.8 1.8 0 0 0 0-3.6zm0-9.59a1.8 1.8 0 1 0 0 3.6 1.8 1.8 0 0 0 0-3.6z"/><circle cx="508.86" cy="68.79" r="1.8"/><path d="M508.86 57.4a1.8 1.8 0 0 0-1.8 1.8 1.8 1.8 0 0 0 3.59 0 1.8 1.8 0 0 0-1.79-1.8zm-9.54-43.02a1.8 1.8 0 1 0 0 3.59 1.8 1.8 0 0 0 0-3.59zm0-9.59a1.8 1.8 0 1 0 0 3.59 1.8 1.8 0 0 0 0-3.59z"/><circle cx="489.73" cy="11.38" r="1.8"/><path d="M489.73 0a1.8 1.8 0 0 0-1.8 1.8 1.8 1.8 0 0 0 3.59 0 1.8 1.8 0 0 0-1.79-1.8zm9.59 33.51a1.8 1.8 0 1 0 0 3.59 1.8 1.8 0 0 0 0-3.59zm0-9.58a1.8 1.8 0 1 0 0 3.59 1.8 1.8 0 0 0 0-3.59z"/><circle cx="489.73" cy="30.52" r="1.8"/><path d="M489.73 19.13a1.8 1.8 0 0 0-1.8 1.8 1.8 1.8 0 0 0 3.59 0 1.8 1.8 0 0 0-1.79-1.8zm9.59 33.52a1.8 1.8 0 1 0 0 3.6 1.8 1.8 0 0 0 0-3.6zm0-9.59a1.8 1.8 0 1 0 0 3.59 1.8 1.8 0 0 0 0-3.59z"/><circle cx="489.73" cy="49.65" r="1.8"/><path d="M489.73 38.27a1.8 1.8 0 0 0-1.8 1.8 1.8 1.8 0 0 0 3.59 0 1.8 1.8 0 0 0-1.79-1.8zm0 38.27a1.8 1.8 0 0 0-1.8 1.8 1.8 1.8 0 0 0 3.59 0 1.8 1.8 0 0 0-1.79-1.8zm9.59-4.76a1.8 1.8 0 1 0 0 3.6 1.8 1.8 0 0 0 0-3.6zm0-9.59a1.8 1.8 0 1 0 0 3.6 1.8 1.8 0 0 0 0-3.6z"/><circle cx="489.73" cy="68.79" r="1.8"/><path d="M489.73 57.4a1.8 1.8 0 0 0-1.8 1.8 1.8 1.8 0 0 0 3.59 0 1.8 1.8 0 0 0-1.79-1.8zm-9.55-43.02a1.8 1.8 0 1 0 0 3.59 1.8 1.8 0 0 0 0-3.59zm0-9.59a1.8 1.8 0 1 0 0 3.59 1.8 1.8 0 0 0 0-3.59z"/><circle cx="470.6" cy="11.38" r="1.8"/><path d="M470.6 0a1.8 1.8 0 0 0-1.8 1.8 1.8 1.8 0 0 0 3.6 0 1.8 1.8 0 0 0-1.8-1.8zm9.58 33.51a1.8 1.8 0 1 0 0 3.59 1.8 1.8 0 0 0 0-3.59zm0-9.58a1.8 1.8 0 1 0 0 3.59 1.8 1.8 0 0 0 0-3.59z"/><circle cx="470.6" cy="30.52" r="1.8"/><path d="M470.6 19.13a1.8 1.8 0 0 0-1.8 1.8 1.8 1.8 0 0 0 3.6 0 1.8 1.8 0 0 0-1.8-1.8zm9.58 33.52a1.8 1.8 0 1 0 0 3.6 1.8 1.8 0 0 0 0-3.6zm0-9.59a1.8 1.8 0 1 0 0 3.59 1.8 1.8 0 0 0 0-3.59z"/><circle cx="470.6" cy="49.65" r="1.8"/><path d="M470.6 38.27a1.8 1.8 0 0 0-1.8 1.8 1.8 1.8 0 0 0 3.6 0 1.8 1.8 0 0 0-1.8-1.8zm0 38.27a1.8 1.8 0 0 0-1.8 1.8 1.8 1.8 0 0 0 3.6 0 1.8 1.8 0 0 0-1.8-1.8zm9.58-4.76a1.8 1.8 0 1 0 0 3.6 1.8 1.8 0 0 0 0-3.6zm0-9.59a1.8 1.8 0 1 0 0 3.6 1.8 1.8 0 0 0 0-3.6z"/><circle cx="470.6" cy="68.79" r="1.8"/><path d="M470.6 57.4a1.8 1.8 0 0 0-1.8 1.8 1.8 1.8 0 0 0 3.6 0 1.8 1.8 0 0 0-1.8-1.8zM461 14.38a1.8 1.8 0 1 0 0 3.62 1.8 1.8 0 0 0 0-3.59zm0-9.59a1.8 1.8 0 1 0 0 3.59 1.8 1.8 0 0 0 0-3.59z"/><circle cx="451.46" cy="11.38" r="1.8"/><path d="M451.46 0a1.8 1.8 0 0 0-1.8 1.8 1.8 1.8 0 0 0 3.6 0 1.8 1.8 0 0 0-1.8-1.8zM461 33.51a1.8 1.8 0 1 0 0 3.59 1.8 1.8 0 0 0 0-3.59zm0-9.58a1.8 1.8 0 1 0 0 3.59 1.8 1.8 0 0 0 0-3.59z"/><circle cx="451.46" cy="30.52" r="1.8"/><path d="M451.46 19.13a1.8 1.8 0 0 0-1.8 1.8 1.8 1.8 0 0 0 3.6 0 1.8 1.8 0 0 0-1.8-1.8zM461 52.65a1.8 1.8 0 1 0 0 3.6 1.8 1.8 0 0 0 0-3.6zm0-9.59a1.8 1.8 0 1 0 0 3.59 1.8 1.8 0 0 0 0-3.59z"/><circle cx="451.46" cy="49.65" r="1.8"/><path d="M451.46 38.27a1.8 1.8 0 0 0-1.8 1.8 1.8 1.8 0 0 0 3.6 0 1.8 1.8 0 0 0-1.8-1.8zm0 38.27a1.8 1.8 0 0 0-1.8 1.8 1.8 1.8 0 0 0 3.6 0 1.8 1.8 0 0 0-1.8-1.8zm9.54-4.76a1.8 1.8 0 1 0 0 3.6 1.8 1.8 0 0 0 0-3.6zm0-9.59a1.8 1.8 0 1 0 0 3.6 1.8 1.8 0 0 0 0-3.6z"/><circle cx="451.46" cy="68.79" r="1.8"/><path d="M451.46 57.4a1.8 1.8 0 0 0-1.8 1.8 1.8 1.8 0 0 0 3.6 0 1.8 1.8 0 0 0-1.8-1.8zm-9.54-43.02a1.8 1.8 0 1 0 0 3.59 1.8 1.8 0 0 0 0-3.59zm0-9.59a1.8 1.8 0 1 0 0 3.59 1.8 1.8 0 0 0 0-3.59z"/><circle cx="432.33" cy="11.38" r="1.8"/><path d="M432.33 0a1.8 1.8 0 0 0-1.8 1.8 1.8 1.8 0 0 0 3.59 0 1.8 1.8 0 0 0-1.79-1.8zm9.59 33.51a1.8 1.8 0 1 0 0 3.59 1.8 1.8 0 0 0 0-3.59zm0-9.58a1.8 1.8 0 1 0 0 3.59 1.8 1.8 0 0 0 0-3.59z"/><circle cx="432.33" cy="30.52" r="1.8"/><path d="M432.33 19.13a1.8 1.8 0 0 0-1.8 1.8 1.8 1.8 0 0 0 3.59 0 1.8 1.8 0 0 0-1.79-1.8zm9.59 33.52a1.8 1.8 0 1 0 0 3.6 1.8 1.8 0 0 0 0-3.6zm0-9.59a1.8 1.8 0 1 0 0 3.59 1.8 1.8 0 0 0 0-3.59z"/><circle cx="432.33" cy="49.65" r="1.8"/><path d="M432.33 38.27a1.8 1.8 0 0 0-1.8 1.8 1.8 1.8 0 0 0 3.59 0 1.8 1.8 0 0 0-1.79-1.8zm0 38.27a1.8 1.8 0 0 0-1.8 1.8 1.8 1.8 0 0 0 3.59 0 1.8 1.8 0 0 0-1.79-1.8zm9.59-4.76a1.8 1.8 0 1 0 0 3.6 1.8 1.8 0 0 0 0-3.6zm0-9.59a1.8 1.8 0 1 0 0 3.6 1.8 1.8 0 0 0 0-3.6z"/><circle cx="432.33" cy="68.79" r="1.8"/><path d="M432.33 57.4a1.8 1.8 0 0 0-1.8 1.8 1.8 1.8 0 0 0 3.59 0 1.8 1.8 0 0 0-1.79-1.8zm-9.55-43.02a1.8 1.8 0 1 0 0 3.59 1.8 1.8 0 0 0 0-3.59zm0-9.59a1.8 1.8 0 1 0 0 3.59 1.8 1.8 0 0 0 0-3.59z"/><circle cx="413.2" cy="11.38" r="1.8"/><path d="M413.2 0a1.8 1.8 0 0 0-1.8 1.8 1.8 1.8 0 0 0 3.59 0A1.8 1.8 0 0 0 413.2 0zm9.58 33.51a1.8 1.8 0 1 0 0 3.59 1.8 1.8 0 0 0 0-3.59zm0-9.58a1.8 1.8 0 1 0 0 3.59 1.8 1.8 0 0 0 0-3.59z"/><circle cx="413.2" cy="30.52" r="1.8"/><path d="M413.2 19.13a1.8 1.8 0 0 0-1.8 1.8 1.8 1.8 0 0 0 3.6.07 1.8 1.8 0 0 0-1.8-1.87zm9.58 33.52a1.8 1.8 0 1 0 0 3.6 1.8 1.8 0 0 0 0-3.6zm0-9.59a1.8 1.8 0 1 0 0 3.59 1.8 1.8 0 0 0 0-3.59z"/><circle cx="413.2" cy="49.65" r="1.8"/><path d="M413.2 38.27a1.8 1.8 0 0 0-1.8 1.8 1.8 1.8 0 0 0 3.59 0 1.8 1.8 0 0 0-1.79-1.8zm0 38.27a1.8 1.8 0 0 0-1.8 1.8 1.8 1.8 0 0 0 3.59 0 1.8 1.8 0 0 0-1.79-1.8zm9.58-4.76a1.8 1.8 0 1 0 0 3.6 1.8 1.8 0 0 0 0-3.6zm0-9.59a1.8 1.8 0 1 0 0 3.6 1.8 1.8 0 0 0 0-3.6z"/><circle cx="413.2" cy="68.79" r="1.8"/><path d="M413.2 57.4a1.8 1.8 0 0 0-1.8 1.8 1.8 1.8 0 0 0 3.59 0 1.8 1.8 0 0 0-1.79-1.8zm-9.55-43.02a1.8 1.8 0 1 0 0 3.59 1.8 1.8 0 0 0 0-3.59zm0-9.59a1.8 1.8 0 1 0 0 3.59 1.8 1.8 0 0 0 0-3.59z"/><circle cx="394.06" cy="11.38" r="1.8"/><path d="M394.06 0a1.8 1.8 0 0 0-1.8 1.8 1.8 1.8 0 0 0 3.59 0 1.8 1.8 0 0 0-1.79-1.8zm9.59 33.51a1.8 1.8 0 1 0 0 3.59 1.8 1.8 0 0 0 0-3.59zm0-9.58a1.8 1.8 0 1 0 0 3.59 1.8 1.8 0 0 0 0-3.59z"/><circle cx="394.06" cy="30.52" r="1.8"/><path d="M394.06 19.13a1.8 1.8 0 0 0-1.8 1.8 1.8 1.8 0 0 0 3.59 0 1.8 1.8 0 0 0-1.79-1.8zm9.59 33.52a1.8 1.8 0 1 0 0 3.6 1.8 1.8 0 0 0 0-3.6zm0-9.59a1.8 1.8 0 1 0 0 3.59 1.8 1.8 0 0 0 0-3.59z"/><circle cx="394.06" cy="49.65" r="1.8"/><path d="M394.06 38.27a1.8 1.8 0 0 0-1.8 1.8 1.8 1.8 0 0 0 3.59 0 1.8 1.8 0 0 0-1.79-1.8zm0 38.27a1.8 1.8 0 0 0-1.8 1.8 1.8 1.8 0 0 0 3.59 0 1.8 1.8 0 0 0-1.79-1.8zm9.59-4.76a1.8 1.8 0 1 0 0 3.6 1.8 1.8 0 0 0 0-3.6zm0-9.59a1.8 1.8 0 1 0 0 3.6 1.8 1.8 0 0 0 0-3.6z"/><circle cx="394.06" cy="68.79" r="1.8"/><path d="M394.06 57.4a1.8 1.8 0 0 0-1.8 1.8 1.8 1.8 0 0 0 3.59 0 1.8 1.8 0 0 0-1.79-1.8zm-9.55-43.02a1.8 1.8 0 1 0 0 3.59 1.8 1.8 0 0 0 0-3.59zm0-9.59a1.8 1.8 0 1 0 0 3.59 1.8 1.8 0 0 0 0-3.59z"/><circle cx="374.93" cy="11.38" r="1.8"/><path d="M374.93 0a1.8 1.8 0 0 0-1.8 1.8 1.8 1.8 0 0 0 3.59 0 1.8 1.8 0 0 0-1.79-1.8zm9.58 33.51a1.8 1.8 0 1 0 0 3.59 1.8 1.8 0 0 0 0-3.59zm0-9.58a1.8 1.8 0 1 0 0 3.59 1.8 1.8 0 0 0 0-3.59z"/><circle cx="374.93" cy="30.52" r="1.8"/><path d="M374.93 19.13a1.8 1.8 0 0 0-1.8 1.8 1.8 1.8 0 0 0 3.59 0 1.8 1.8 0 0 0-1.79-1.8zm9.58 33.52a1.8 1.8 0 1 0 0 3.6 1.8 1.8 0 0 0 0-3.6zm0-9.59a1.8 1.8 0 1 0 0 3.59 1.8 1.8 0 0 0 0-3.59z"/><circle cx="374.93" cy="49.65" r="1.8"/><path d="M374.93 38.27a1.8 1.8 0 0 0-1.8 1.8 1.8 1.8 0 0 0 3.59 0 1.8 1.8 0 0 0-1.79-1.8zm0 38.27a1.8 1.8 0 0 0-1.8 1.8 1.8 1.8 0 0 0 3.59 0 1.8 1.8 0 0 0-1.79-1.8zm9.58-4.76a1.8 1.8 0 1 0 0 3.6 1.8 1.8 0 0 0 0-3.6zm0-9.59a1.8 1.8 0 1 0 0 3.6 1.8 1.8 0 0 0 0-3.6z"/><circle cx="374.93" cy="68.79" r="1.8"/><path d="M374.93 57.4a1.8 1.8 0 0 0-1.8 1.8 1.8 1.8 0 0 0 3.59 0 1.8 1.8 0 0 0-1.79-1.8zm-9.55-43.02a1.8 1.8 0 1 0 0 3.59 1.8 1.8 0 0 0 0-3.59zm0-9.59a1.8 1.8 0 1 0 0 3.59 1.8 1.8 0 0 0 0-3.59z"/><circle cx="355.79" cy="11.38" r="1.8"/><path d="M355.79 0A1.8 1.8 0 0 0 354 1.8a1.8 1.8 0 0 0 3.59 0 1.8 1.8 0 0 0-1.8-1.8zm9.59 33.51a1.8 1.8 0 1 0 0 3.59 1.8 1.8 0 0 0 0-3.59zm0-9.58a1.8 1.8 0 1 0 0 3.59 1.8 1.8 0 0 0 0-3.59z"/><circle cx="355.79" cy="30.52" r="1.8"/><path d="M355.79 19.13a1.8 1.8 0 0 0-1.8 1.8 1.8 1.8 0 0 0 3.59 0 1.8 1.8 0 0 0-1.79-1.8zm9.59 33.52a1.8 1.8 0 1 0 0 3.6 1.8 1.8 0 0 0 0-3.6zm0-9.59a1.8 1.8 0 1 0 0 3.59 1.8 1.8 0 0 0 0-3.59z"/><circle cx="355.79" cy="49.65" r="1.8"/><path d="M355.79 38.27a1.8 1.8 0 0 0-1.8 1.8 1.8 1.8 0 0 0 3.59 0 1.8 1.8 0 0 0-1.79-1.8zm0 38.27a1.8 1.8 0 0 0-1.8 1.8 1.8 1.8 0 0 0 3.59 0 1.8 1.8 0 0 0-1.79-1.8zm9.59-4.76a1.8 1.8 0 1 0 0 3.6 1.8 1.8 0 0 0 0-3.6zm0-9.59a1.8 1.8 0 1 0 0 3.6 1.8 1.8 0 0 0 0-3.6z"/><circle cx="355.79" cy="68.79" r="1.8"/><path d="M355.79 57.4a1.8 1.8 0 0 0-1.8 1.8 1.8 1.8 0 0 0 3.59 0 1.8 1.8 0 0 0-1.79-1.8zm-9.54-43.02a1.8 1.8 0 1 0 0 3.59 1.8 1.8 0 0 0 0-3.59zm0-9.59a1.8 1.8 0 1 0 0 3.59 1.8 1.8 0 0 0 0-3.59z"/><circle cx="336.66" cy="11.38" r="1.8"/><path d="M336.66 0a1.8 1.8 0 0 0-1.8 1.8 1.8 1.8 0 0 0 3.6 0 1.8 1.8 0 0 0-1.8-1.8zm9.59 33.51a1.8 1.8 0 1 0 0 3.59 1.8 1.8 0 0 0 0-3.59zm0-9.58a1.8 1.8 0 1 0 0 3.59 1.8 1.8 0 0 0 0-3.59z"/><circle cx="336.66" cy="30.52" r="1.8"/><path d="M336.66 19.13a1.8 1.8 0 0 0-1.8 1.8 1.8 1.8 0 0 0 3.6 0 1.8 1.8 0 0 0-1.8-1.8zm9.59 33.52a1.8 1.8 0 1 0 0 3.6 1.8 1.8 0 0 0 0-3.6zm0-9.59a1.8 1.8 0 1 0 0 3.59 1.8 1.8 0 0 0 0-3.59z"/><circle cx="336.66" cy="49.65" r="1.8"/><path d="M336.66 38.27a1.8 1.8 0 0 0-1.8 1.8 1.8 1.8 0 0 0 3.6 0 1.8 1.8 0 0 0-1.8-1.8zm0 38.27a1.8 1.8 0 0 0-1.8 1.8 1.8 1.8 0 0 0 3.6 0 1.8 1.8 0 0 0-1.8-1.8zm9.59-4.76a1.8 1.8 0 1 0 0 3.6 1.8 1.8 0 0 0 0-3.6zm0-9.59a1.8 1.8 0 1 0 0 3.6 1.8 1.8 0 0 0 0-3.6z"/><circle cx="336.66" cy="68.79" r="1.8"/><path d="M336.66 57.4a1.8 1.8 0 0 0-1.8 1.8 1.8 1.8 0 0 0 3.6 0 1.8 1.8 0 0 0-1.8-1.8zm-9.55-43.02a1.8 1.8 0 1 0 0 3.59 1.8 1.8 0 0 0 0-3.59zm0-9.59a1.8 1.8 0 1 0 0 3.59 1.8 1.8 0 0 0 0-3.59z"/><circle cx="317.53" cy="11.38" r="1.8"/><path d="M317.53 0a1.8 1.8 0 0 0-1.8 1.8 1.8 1.8 0 0 0 3.6 0 1.8 1.8 0 0 0-1.8-1.8zm9.58 33.51a1.8 1.8 0 1 0 0 3.59 1.8 1.8 0 0 0 0-3.59zm0-9.58a1.8 1.8 0 1 0 0 3.59 1.8 1.8 0 0 0 0-3.59z"/><circle cx="317.53" cy="30.52" r="1.8"/><path d="M317.53 19.13a1.8 1.8 0 0 0-1.8 1.8 1.8 1.8 0 0 0 3.6 0 1.8 1.8 0 0 0-1.8-1.8zm9.58 33.52a1.8 1.8 0 1 0 0 3.6 1.8 1.8 0 0 0 0-3.6zm0-9.59a1.8 1.8 0 1 0 0 3.59 1.8 1.8 0 0 0 0-3.59z"/><circle cx="317.53" cy="49.65" r="1.8"/><path d="M317.53 38.27a1.8 1.8 0 0 0-1.8 1.8 1.8 1.8 0 0 0 3.6 0 1.8 1.8 0 0 0-1.8-1.8zm0 38.27a1.8 1.8 0 0 0-1.8 1.8 1.8 1.8 0 0 0 3.6 0 1.8 1.8 0 0 0-1.8-1.8zm9.58-4.76a1.8 1.8 0 1 0 0 3.6 1.8 1.8 0 0 0 0-3.6zm0-9.59a1.8 1.8 0 1 0 0 3.6 1.8 1.8 0 0 0 0-3.6z"/><circle cx="317.53" cy="68.79" r="1.8"/><path d="M317.53 57.4a1.8 1.8 0 0 0-1.8 1.8 1.8 1.8 0 0 0 3.6 0 1.8 1.8 0 0 0-1.8-1.8zM308 14.38a1.8 1.8 0 1 0 0 3.59 1.8 1.8 0 0 0 0-3.59zm0-9.59a1.8 1.8 0 1 0 0 3.59 1.8 1.8 0 0 0 0-3.59z"/><circle cx="298.39" cy="11.38" r="1.8"/><path d="M298.39 0a1.8 1.8 0 0 0-1.8 1.8 1.8 1.8 0 0 0 3.59 0 1.8 1.8 0 0 0-1.79-1.8zM308 33.51a1.8 1.8 0 1 0 0 3.59 1.8 1.8 0 0 0 0-3.59zm0-9.58a1.8 1.8 0 1 0 0 3.59 1.8 1.8 0 0 0 0-3.59z"/><circle cx="298.39" cy="30.52" r="1.8"/><path d="M298.39 19.13a1.8 1.8 0 0 0-1.8 1.8 1.8 1.8 0 0 0 3.59 0 1.8 1.8 0 0 0-1.79-1.8zM308 52.65a1.8 1.8 0 1 0 0 3.6 1.8 1.8 0 0 0 0-3.6zm0-9.59a1.8 1.8 0 1 0 0 3.59 1.8 1.8 0 0 0 0-3.59z"/><circle cx="298.39" cy="49.65" r="1.8"/><path d="M298.39 38.27a1.8 1.8 0 0 0-1.8 1.8 1.8 1.8 0 0 0 3.59 0 1.8 1.8 0 0 0-1.79-1.8zm0 38.27a1.8 1.8 0 0 0-1.8 1.8 1.8 1.8 0 0 0 3.59 0 1.8 1.8 0 0 0-1.79-1.8zm9.61-4.76a1.8 1.8 0 1 0 0 3.6 1.8 1.8 0 0 0 0-3.6zm0-9.59a1.8 1.8 0 1 0 0 3.6 1.8 1.8 0 0 0 0-3.6z"/><circle cx="298.39" cy="68.79" r="1.8"/><path d="M298.39 57.4a1.8 1.8 0 0 0-1.8 1.8 1.8 1.8 0 0 0 3.59 0 1.8 1.8 0 0 0-1.79-1.8zm-9.54-43.02a1.8 1.8 0 1 0 0 3.59 1.8 1.8 0 0 0 0-3.59zm0-9.59a1.8 1.8 0 1 0 0 3.59 1.8 1.8 0 0 0 0-3.59z"/><circle cx="279.26" cy="11.38" r="1.8"/><path d="M279.26 0a1.8 1.8 0 0 0-1.8 1.8 1.8 1.8 0 0 0 3.59 0 1.8 1.8 0 0 0-1.79-1.8zm9.59 33.51a1.8 1.8 0 1 0 0 3.59 1.8 1.8 0 0 0 0-3.59zm0-9.58a1.8 1.8 0 1 0 0 3.59 1.8 1.8 0 0 0 0-3.59z"/><circle cx="279.26" cy="30.52" r="1.8"/><path d="M279.26 19.13a1.8 1.8 0 0 0-1.8 1.8 1.8 1.8 0 0 0 3.59 0 1.8 1.8 0 0 0-1.79-1.8zm9.59 33.52a1.8 1.8 0 1 0 0 3.6 1.8 1.8 0 0 0 0-3.6zm0-9.59a1.8 1.8 0 1 0 0 3.59 1.8 1.8 0 0 0 0-3.59z"/><circle cx="279.26" cy="49.65" r="1.8"/><path d="M279.26 38.27a1.8 1.8 0 0 0-1.8 1.8 1.8 1.8 0 0 0 3.59 0 1.8 1.8 0 0 0-1.79-1.8zm0 38.27a1.8 1.8 0 0 0-1.8 1.8 1.8 1.8 0 0 0 3.59 0 1.8 1.8 0 0 0-1.79-1.8zm9.59-4.76a1.8 1.8 0 1 0 0 3.6 1.8 1.8 0 0 0 0-3.6zm0-9.59a1.8 1.8 0 1 0 0 3.6 1.8 1.8 0 0 0 0-3.6z"/><circle cx="279.26" cy="68.79" r="1.8"/><path d="M279.26 57.4a1.8 1.8 0 0 0-1.8 1.8 1.8 1.8 0 0 0 3.59 0 1.8 1.8 0 0 0-1.79-1.8zm-9.55-43.02a1.8 1.8 0 1 0 0 3.59 1.8 1.8 0 0 0 0-3.59zm0-9.59a1.8 1.8 0 1 0 0 3.59 1.8 1.8 0 0 0 0-3.59z"/><circle cx="260.12" cy="11.38" r="1.8"/><path d="M260.12 0a1.8 1.8 0 0 0-1.8 1.8 1.8 1.8 0 0 0 3.59 0 1.8 1.8 0 0 0-1.79-1.8zm9.59 33.51a1.8 1.8 0 1 0 0 3.59 1.8 1.8 0 0 0 0-3.59zm0-9.58a1.8 1.8 0 1 0 0 3.59 1.8 1.8 0 0 0 0-3.59z"/><circle cx="260.12" cy="30.52" r="1.8"/><path d="M260.12 19.13a1.8 1.8 0 0 0-1.8 1.8 1.8 1.8 0 0 0 3.59 0 1.8 1.8 0 0 0-1.79-1.8zm9.59 33.52a1.8 1.8 0 1 0 0 3.6 1.8 1.8 0 0 0 0-3.6zm0-9.59a1.8 1.8 0 1 0 0 3.59 1.8 1.8 0 0 0 0-3.59z"/><circle cx="260.12" cy="49.65" r="1.8"/><path d="M260.12 38.27a1.8 1.8 0 0 0-1.8 1.8 1.8 1.8 0 0 0 3.59 0 1.8 1.8 0 0 0-1.79-1.8zm0 38.27a1.8 1.8 0 0 0-1.8 1.8 1.8 1.8 0 0 0 3.59 0 1.8 1.8 0 0 0-1.79-1.8zm9.59-4.76a1.8 1.8 0 1 0 0 3.6 1.8 1.8 0 0 0 0-3.6zm0-9.59a1.8 1.8 0 1 0 0 3.6 1.8 1.8 0 0 0 0-3.6z"/><circle cx="260.12" cy="68.79" r="1.8"/><path d="M260.12 57.4a1.8 1.8 0 0 0-1.8 1.8 1.8 1.8 0 0 0 3.59 0 1.8 1.8 0 0 0-1.79-1.8zm-9.54-43.02a1.8 1.8 0 1 0 0 3.59 1.8 1.8 0 0 0 0-3.59zm0-9.59a1.8 1.8 0 1 0 0 3.59 1.8 1.8 0 0 0 0-3.59z"/><circle cx="240.99" cy="11.38" r="1.8"/><path d="M241 0a1.8 1.8 0 0 0-1.8 1.8 1.8 1.8 0 0 0 3.59 0A1.8 1.8 0 0 0 241 0zm9.58 33.51a1.8 1.8 0 1 0 0 3.59 1.8 1.8 0 0 0 0-3.59zm0-9.58a1.8 1.8 0 1 0 0 3.59 1.8 1.8 0 0 0 0-3.59z"/><circle cx="240.99" cy="30.52" r="1.8"/><path d="M241 19.13a1.8 1.8 0 0 0-1.8 1.8 1.8 1.8 0 0 0 3.59 0 1.8 1.8 0 0 0-1.79-1.8zm9.58 33.52a1.8 1.8 0 1 0 0 3.6 1.8 1.8 0 0 0 0-3.6zm0-9.59a1.8 1.8 0 1 0 0 3.59 1.8 1.8 0 0 0 0-3.59z"/><circle cx="240.99" cy="49.65" r="1.8"/><path d="M241 38.27a1.8 1.8 0 0 0-1.8 1.8 1.8 1.8 0 0 0 3.59 0 1.8 1.8 0 0 0-1.79-1.8zm0 38.27a1.8 1.8 0 0 0-1.8 1.8 1.8 1.8 0 0 0 3.59 0 1.8 1.8 0 0 0-1.79-1.8zm9.58-4.76a1.8 1.8 0 1 0 0 3.6 1.8 1.8 0 0 0 0-3.6zm0-9.59a1.8 1.8 0 1 0 0 3.6 1.8 1.8 0 0 0 0-3.6z"/><circle cx="240.99" cy="68.79" r="1.8"/><path d="M241 57.4a1.8 1.8 0 0 0-1.8 1.8 1.8 1.8 0 0 0 3.59 0 1.8 1.8 0 0 0-1.79-1.8zm-9.56-43.02a1.8 1.8 0 1 0 0 3.59 1.8 1.8 0 0 0 0-3.59zm0-9.59a1.8 1.8 0 1 0 0 3.59 1.8 1.8 0 0 0 0-3.59z"/><circle cx="221.86" cy="11.38" r="1.8"/><path d="M221.86 0a1.8 1.8 0 0 0-1.8 1.8 1.8 1.8 0 0 0 3.59 0 1.8 1.8 0 0 0-1.79-1.8zm9.58 33.51a1.8 1.8 0 1 0 0 3.59 1.8 1.8 0 0 0 0-3.59zm0-9.58a1.8 1.8 0 1 0 0 3.59 1.8 1.8 0 0 0 0-3.59z"/><circle cx="221.86" cy="30.52" r="1.8"/><path d="M221.86 19.13a1.8 1.8 0 0 0-1.8 1.8 1.8 1.8 0 0 0 3.59 0 1.8 1.8 0 0 0-1.79-1.8zm9.58 33.52a1.8 1.8 0 1 0 0 3.6 1.8 1.8 0 0 0 0-3.6zm0-9.59a1.8 1.8 0 1 0 0 3.59 1.8 1.8 0 0 0 0-3.59z"/><circle cx="221.86" cy="49.65" r="1.8"/><path d="M221.86 38.27a1.8 1.8 0 0 0-1.8 1.8 1.8 1.8 0 0 0 3.59 0 1.8 1.8 0 0 0-1.79-1.8zm0 38.27a1.8 1.8 0 0 0-1.8 1.8 1.8 1.8 0 0 0 3.59 0 1.8 1.8 0 0 0-1.79-1.8zm9.58-4.76a1.8 1.8 0 1 0 0 3.6 1.8 1.8 0 0 0 0-3.6zm0-9.59a1.8 1.8 0 1 0 0 3.6 1.8 1.8 0 0 0 0-3.6z"/><circle cx="221.86" cy="68.79" r="1.8"/><path d="M221.86 57.4a1.8 1.8 0 0 0-1.8 1.8 1.8 1.8 0 0 0 3.59 0 1.8 1.8 0 0 0-1.79-1.8zm-9.55-43.02a1.8 1.8 0 1 0 0 3.59 1.8 1.8 0 0 0 0-3.59zm0-9.59a1.8 1.8 0 1 0 0 3.59 1.8 1.8 0 0 0 0-3.59z"/><circle cx="202.72" cy="11.38" r="1.8"/><path d="M202.72 0a1.8 1.8 0 0 0-1.8 1.8 1.8 1.8 0 0 0 3.6 0 1.8 1.8 0 0 0-1.8-1.8zm9.59 33.51a1.8 1.8 0 1 0 0 3.59 1.8 1.8 0 0 0 0-3.59zm0-9.58a1.8 1.8 0 1 0 0 3.59 1.8 1.8 0 0 0 0-3.59z"/><circle cx="202.72" cy="30.52" r="1.8"/><path d="M202.72 19.13a1.8 1.8 0 0 0-1.8 1.8 1.8 1.8 0 0 0 3.6 0 1.8 1.8 0 0 0-1.8-1.8zm9.59 33.52a1.8 1.8 0 1 0 0 3.6 1.8 1.8 0 0 0 0-3.6zm0-9.59a1.8 1.8 0 1 0 0 3.59 1.8 1.8 0 0 0 0-3.59z"/><circle cx="202.72" cy="49.65" r="1.8"/><path d="M202.72 38.27a1.8 1.8 0 0 0-1.8 1.8 1.8 1.8 0 0 0 3.6 0 1.8 1.8 0 0 0-1.8-1.8zm0 38.27a1.8 1.8 0 0 0-1.8 1.8 1.8 1.8 0 0 0 3.6 0 1.8 1.8 0 0 0-1.8-1.8zm9.59-4.76a1.8 1.8 0 1 0 0 3.6 1.8 1.8 0 0 0 0-3.6zm0-9.59a1.8 1.8 0 1 0 0 3.6 1.8 1.8 0 0 0 0-3.6z"/><circle cx="202.72" cy="68.79" r="1.8"/><path d="M202.72 57.4a1.8 1.8 0 0 0-1.8 1.8 1.8 1.8 0 0 0 3.6 0 1.8 1.8 0 0 0-1.8-1.8zm-9.54-43.02a1.8 1.8 0 1 0 0 3.59 1.8 1.8 0 0 0 0-3.59zm0-9.59a1.8 1.8 0 1 0 0 3.59 1.8 1.8 0 0 0 0-3.59z"/><circle cx="183.59" cy="11.38" r="1.8"/><path d="M183.59 0a1.8 1.8 0 0 0-1.8 1.8 1.8 1.8 0 0 0 3.6 0 1.8 1.8 0 0 0-1.8-1.8zm9.59 33.51a1.8 1.8 0 1 0 0 3.59 1.8 1.8 0 0 0 0-3.59zm0-9.58a1.8 1.8 0 1 0 0 3.59 1.8 1.8 0 0 0 0-3.59z"/><circle cx="183.59" cy="30.52" r="1.8"/><path d="M183.59 19.13a1.8 1.8 0 0 0-1.8 1.8 1.8 1.8 0 0 0 3.6 0 1.8 1.8 0 0 0-1.8-1.8zm9.59 33.52a1.8 1.8 0 1 0 0 3.6 1.8 1.8 0 0 0 0-3.6zm0-9.59a1.8 1.8 0 1 0 0 3.59 1.8 1.8 0 0 0 0-3.59z"/><circle cx="183.59" cy="49.65" r="1.8"/><path d="M183.59 38.27a1.8 1.8 0 0 0-1.8 1.8 1.8 1.8 0 0 0 3.6 0 1.8 1.8 0 0 0-1.8-1.8zm0 38.27a1.8 1.8 0 0 0-1.8 1.8 1.8 1.8 0 0 0 3.6 0 1.8 1.8 0 0 0-1.8-1.8zm9.59-4.76a1.8 1.8 0 1 0 0 3.6 1.8 1.8 0 0 0 0-3.6zm0-9.59a1.8 1.8 0 1 0 0 3.6 1.8 1.8 0 0 0 0-3.6z"/><circle cx="183.59" cy="68.79" r="1.8"/><path d="M183.59 57.4a1.8 1.8 0 0 0-1.8 1.8 1.8 1.8 0 0 0 3.6 0 1.8 1.8 0 0 0-1.8-1.8zM174 14.38a1.8 1.8 0 1 0 0 3.62 1.8 1.8 0 0 0 0-3.59zm0-9.59a1.8 1.8 0 1 0 0 3.59 1.8 1.8 0 0 0 0-3.59z"/><circle cx="164.46" cy="11.38" r="1.8"/><path d="M164.46 0a1.8 1.8 0 0 0-1.8 1.8 1.8 1.8 0 0 0 3.59 0 1.8 1.8 0 0 0-1.79-1.8zM174 33.51a1.8 1.8 0 1 0 0 3.59 1.8 1.8 0 0 0 0-3.59zm0-9.58a1.8 1.8 0 1 0 0 3.59 1.8 1.8 0 0 0 0-3.59z"/><circle cx="164.46" cy="30.52" r="1.8"/><path d="M164.46 19.13a1.8 1.8 0 0 0-1.8 1.8 1.8 1.8 0 0 0 3.59 0 1.8 1.8 0 0 0-1.79-1.8zM174 52.65a1.8 1.8 0 1 0 0 3.6 1.8 1.8 0 0 0 0-3.6zm0-9.59a1.8 1.8 0 1 0 0 3.59 1.8 1.8 0 0 0 0-3.59z"/><circle cx="164.46" cy="49.65" r="1.8"/><path d="M164.46 38.27a1.8 1.8 0 0 0-1.8 1.8 1.8 1.8 0 0 0 3.59 0 1.8 1.8 0 0 0-1.79-1.8zm0 38.27a1.8 1.8 0 0 0-1.8 1.8 1.8 1.8 0 0 0 3.59 0 1.8 1.8 0 0 0-1.79-1.8zm9.54-4.76a1.8 1.8 0 1 0 0 3.6 1.8 1.8 0 0 0 0-3.6zm0-9.59a1.8 1.8 0 1 0 0 3.6 1.8 1.8 0 0 0 0-3.6z"/><circle cx="164.46" cy="68.79" r="1.8"/><path d="M164.46 57.4a1.8 1.8 0 0 0-1.8 1.8 1.8 1.8 0 0 0 3.59 0 1.8 1.8 0 0 0-1.79-1.8zm-9.55-43.02a1.8 1.8 0 1 0 0 3.59 1.8 1.8 0 0 0 0-3.59zm0-9.59a1.8 1.8 0 1 0 0 3.59 1.8 1.8 0 0 0 0-3.59z"/><circle cx="145.32" cy="11.38" r="1.8"/><path d="M145.32 0a1.8 1.8 0 0 0-1.8 1.8 1.8 1.8 0 0 0 3.59 0 1.8 1.8 0 0 0-1.79-1.8zm9.59 33.51a1.8 1.8 0 1 0 0 3.59 1.8 1.8 0 0 0 0-3.59zm0-9.58a1.8 1.8 0 1 0 0 3.59 1.8 1.8 0 0 0 0-3.59z"/><circle cx="145.32" cy="30.52" r="1.8"/><path d="M145.32 19.13a1.8 1.8 0 0 0-1.8 1.8 1.8 1.8 0 0 0 3.59 0 1.8 1.8 0 0 0-1.79-1.8zm9.59 33.52a1.8 1.8 0 1 0 0 3.6 1.8 1.8 0 0 0 0-3.6zm0-9.59a1.8 1.8 0 1 0 0 3.59 1.8 1.8 0 0 0 0-3.59z"/><circle cx="145.32" cy="49.65" r="1.8"/><path d="M145.32 38.27a1.8 1.8 0 0 0-1.8 1.8 1.8 1.8 0 0 0 3.59 0 1.8 1.8 0 0 0-1.79-1.8zm0 38.27a1.8 1.8 0 0 0-1.8 1.8 1.8 1.8 0 0 0 3.59 0 1.8 1.8 0 0 0-1.79-1.8zm9.59-4.76a1.8 1.8 0 1 0 0 3.6 1.8 1.8 0 0 0 0-3.6zm0-9.59a1.8 1.8 0 1 0 0 3.6 1.8 1.8 0 0 0 0-3.6z"/><circle cx="145.32" cy="68.79" r="1.8"/><path d="M145.32 57.4a1.8 1.8 0 0 0-1.8 1.8 1.8 1.8 0 0 0 3.59 0 1.8 1.8 0 0 0-1.79-1.8zm-9.55-43.02a1.8 1.8 0 1 0 0 3.59 1.8 1.8 0 0 0 0-3.59zm0-9.59a1.8 1.8 0 1 0 0 3.59 1.8 1.8 0 0 0 0-3.59z"/><circle cx="126.19" cy="11.38" r="1.8"/><path d="M126.19 0a1.8 1.8 0 0 0-1.8 1.8 1.8 1.8 0 0 0 3.59 0 1.8 1.8 0 0 0-1.79-1.8zm9.58 33.51a1.8 1.8 0 1 0 0 3.59 1.8 1.8 0 0 0 0-3.59zm0-9.58a1.8 1.8 0 1 0 0 3.59 1.8 1.8 0 0 0 0-3.59z"/><circle cx="126.19" cy="30.52" r="1.8"/><path d="M126.19 19.13a1.8 1.8 0 0 0-1.8 1.8A1.8 1.8 0 0 0 128 21a1.8 1.8 0 0 0-1.81-1.87zm9.58 33.52a1.8 1.8 0 1 0 0 3.6 1.8 1.8 0 0 0 0-3.6zm0-9.59a1.8 1.8 0 1 0 0 3.59 1.8 1.8 0 0 0 0-3.59z"/><circle cx="126.19" cy="49.65" r="1.8"/><path d="M126.19 38.27a1.8 1.8 0 0 0-1.8 1.8 1.8 1.8 0 0 0 3.59 0 1.8 1.8 0 0 0-1.79-1.8zm0 38.27a1.8 1.8 0 0 0-1.8 1.8 1.8 1.8 0 0 0 3.59 0 1.8 1.8 0 0 0-1.79-1.8zm9.58-4.76a1.8 1.8 0 1 0 0 3.6 1.8 1.8 0 0 0 0-3.6zm0-9.59a1.8 1.8 0 1 0 0 3.6 1.8 1.8 0 0 0 0-3.6z"/><circle cx="126.19" cy="68.79" r="1.8"/><path d="M126.19 57.4a1.8 1.8 0 0 0-1.8 1.8 1.8 1.8 0 0 0 3.59 0 1.8 1.8 0 0 0-1.79-1.8zm-9.55-43.02a1.8 1.8 0 1 0 0 3.59 1.8 1.8 0 0 0 0-3.59zm0-9.59a1.8 1.8 0 1 0 0 3.59 1.8 1.8 0 0 0 0-3.59z"/><circle cx="107.05" cy="11.38" r="1.8"/><path d="M107.05 0a1.8 1.8 0 0 0-1.8 1.8 1.8 1.8 0 0 0 3.59 0 1.8 1.8 0 0 0-1.79-1.8zm9.59 33.51a1.8 1.8 0 1 0 0 3.59 1.8 1.8 0 0 0 0-3.59zm0-9.58a1.8 1.8 0 1 0 0 3.59 1.8 1.8 0 0 0 0-3.59z"/><circle cx="107.05" cy="30.52" r="1.8"/><path d="M107.05 19.13a1.8 1.8 0 0 0-1.8 1.8 1.8 1.8 0 0 0 3.59 0 1.8 1.8 0 0 0-1.79-1.8zm9.59 33.52a1.8 1.8 0 1 0 0 3.6 1.8 1.8 0 0 0 0-3.6zm0-9.59a1.8 1.8 0 1 0 0 3.59 1.8 1.8 0 0 0 0-3.59z"/><circle cx="107.05" cy="49.65" r="1.8"/><path d="M107.05 38.27a1.8 1.8 0 0 0-1.8 1.8 1.8 1.8 0 0 0 3.59 0 1.8 1.8 0 0 0-1.79-1.8zm0 38.27a1.8 1.8 0 0 0-1.8 1.8 1.8 1.8 0 0 0 3.59 0 1.8 1.8 0 0 0-1.79-1.8zm9.59-4.76a1.8 1.8 0 1 0 0 3.6 1.8 1.8 0 0 0 0-3.6zm0-9.59a1.8 1.8 0 1 0 0 3.6 1.8 1.8 0 0 0 0-3.6z"/><circle cx="107.05" cy="68.79" r="1.8"/><path d="M107.05 57.4a1.8 1.8 0 0 0-1.8 1.8 1.8 1.8 0 0 0 3.59 0 1.8 1.8 0 0 0-1.79-1.8zm-9.54-43.02a1.8 1.8 0 1 0 0 3.59 1.8 1.8 0 0 0 0-3.59zm0-9.59a1.8 1.8 0 1 0 0 3.59 1.8 1.8 0 0 0 0-3.59z"/><circle cx="87.92" cy="11.38" r="1.8"/><path d="M87.92 0a1.8 1.8 0 0 0-1.8 1.8 1.8 1.8 0 0 0 3.59 0A1.8 1.8 0 0 0 87.92 0zm9.59 33.51a1.8 1.8 0 1 0 0 3.59 1.8 1.8 0 0 0 0-3.59zm0-9.58a1.8 1.8 0 1 0 0 3.59 1.8 1.8 0 0 0 0-3.59z"/><circle cx="87.92" cy="30.52" r="1.8"/><path d="M87.92 19.13a1.8 1.8 0 0 0-1.8 1.8 1.8 1.8 0 0 0 3.59 0 1.8 1.8 0 0 0-1.79-1.8zm9.59 33.52a1.8 1.8 0 1 0 0 3.6 1.8 1.8 0 0 0 0-3.6zm0-9.59a1.8 1.8 0 1 0 0 3.59 1.8 1.8 0 0 0 0-3.59z"/><circle cx="87.92" cy="49.65" r="1.8"/><path d="M87.92 38.27a1.8 1.8 0 0 0-1.8 1.8 1.8 1.8 0 0 0 3.59 0 1.8 1.8 0 0 0-1.79-1.8zm0 38.27a1.8 1.8 0 0 0-1.8 1.8 1.8 1.8 0 0 0 3.59 0 1.8 1.8 0 0 0-1.79-1.8zm9.59-4.76a1.8 1.8 0 1 0 0 3.6 1.8 1.8 0 0 0 0-3.6zm0-9.59a1.8 1.8 0 1 0 0 3.6 1.8 1.8 0 0 0 0-3.6z"/><circle cx="87.92" cy="68.79" r="1.8"/><path d="M87.92 57.4a1.8 1.8 0 0 0-1.8 1.8 1.8 1.8 0 0 0 3.59 0 1.8 1.8 0 0 0-1.79-1.8zm-9.55-43.02a1.8 1.8 0 1 0 0 3.59 1.8 1.8 0 0 0 0-3.59zm0-9.59a1.8 1.8 0 1 0 0 3.59 1.8 1.8 0 0 0 0-3.59z"/><circle cx="68.79" cy="11.38" r="1.8"/><path d="M68.79 0A1.8 1.8 0 0 0 67 1.8a1.8 1.8 0 0 0 3.59 0 1.8 1.8 0 0 0-1.8-1.8zm9.58 33.51a1.8 1.8 0 1 0 0 3.59 1.8 1.8 0 0 0 0-3.59zm0-9.58a1.8 1.8 0 1 0 0 3.59 1.8 1.8 0 0 0 0-3.59z"/><circle cx="68.79" cy="30.52" r="1.8"/><path d="M68.79 19.13a1.8 1.8 0 0 0-1.8 1.8 1.8 1.8 0 0 0 3.59 0 1.8 1.8 0 0 0-1.79-1.8zm9.58 33.52a1.8 1.8 0 1 0 0 3.6 1.8 1.8 0 0 0 0-3.6zm0-9.59a1.8 1.8 0 1 0 0 3.59 1.8 1.8 0 0 0 0-3.59z"/><circle cx="68.79" cy="49.65" r="1.8"/><path d="M68.79 38.27a1.8 1.8 0 0 0-1.8 1.8 1.8 1.8 0 0 0 3.59 0 1.8 1.8 0 0 0-1.79-1.8zm0 38.27a1.8 1.8 0 0 0-1.8 1.8 1.8 1.8 0 0 0 3.59 0 1.8 1.8 0 0 0-1.79-1.8zm9.58-4.76a1.8 1.8 0 1 0 0 3.6 1.8 1.8 0 0 0 0-3.6zm0-9.59a1.8 1.8 0 1 0 0 3.6 1.8 1.8 0 0 0 0-3.6z"/><circle cx="68.79" cy="68.79" r="1.8"/><path d="M68.79 57.4A1.8 1.8 0 0 0 67 59.2a1.8 1.8 0 0 0 3.59 0 1.8 1.8 0 0 0-1.8-1.8zm-9.55-43.02a1.8 1.8 0 1 0 0 3.59 1.8 1.8 0 0 0 0-3.59zm0-9.59a1.8 1.8 0 1 0 0 3.59 1.8 1.8 0 0 0 0-3.59z"/><circle cx="49.65" cy="11.38" r="1.8"/><path d="M49.65 0a1.8 1.8 0 0 0-1.8 1.8 1.8 1.8 0 0 0 3.6 0 1.8 1.8 0 0 0-1.8-1.8zm9.59 33.51a1.8 1.8 0 1 0 0 3.59 1.8 1.8 0 0 0 0-3.59zm0-9.58a1.8 1.8 0 1 0 0 3.59 1.8 1.8 0 0 0 0-3.59z"/><circle cx="49.65" cy="30.52" r="1.8"/><path d="M49.65 19.13a1.8 1.8 0 0 0-1.8 1.8 1.8 1.8 0 0 0 3.6 0 1.8 1.8 0 0 0-1.8-1.8zm9.59 33.52a1.8 1.8 0 1 0 0 3.6 1.8 1.8 0 0 0 0-3.6zm0-9.59a1.8 1.8 0 1 0 0 3.59 1.8 1.8 0 0 0 0-3.59z"/><circle cx="49.65" cy="49.65" r="1.8"/><path d="M49.65 38.27a1.8 1.8 0 0 0-1.8 1.8 1.8 1.8 0 0 0 3.6 0 1.8 1.8 0 0 0-1.8-1.8zm0 38.27a1.8 1.8 0 0 0-1.8 1.8 1.8 1.8 0 0 0 3.6 0 1.8 1.8 0 0 0-1.8-1.8zm9.59-4.76a1.8 1.8 0 1 0 0 3.6 1.8 1.8 0 0 0 0-3.6zm0-9.59a1.8 1.8 0 1 0 0 3.6 1.8 1.8 0 0 0 0-3.6z"/><circle cx="49.65" cy="68.79" r="1.8"/><path d="M49.65 57.4a1.8 1.8 0 0 0-1.8 1.8 1.8 1.8 0 0 0 3.6 0 1.8 1.8 0 0 0-1.8-1.8zM40.1 14.38a1.8 1.8 0 1 0 0 3.59 1.8 1.8 0 0 0 0-3.59zm0-9.59a1.8 1.8 0 1 0 0 3.59 1.8 1.8 0 0 0 0-3.59z"/><circle cx="30.52" cy="11.38" r="1.8"/><path d="M30.52 0a1.8 1.8 0 0 0-1.8 1.8 1.8 1.8 0 0 0 3.59 0A1.8 1.8 0 0 0 30.52 0zm9.58 33.51a1.8 1.8 0 1 0 0 3.59 1.8 1.8 0 0 0 0-3.59zm0-9.58a1.8 1.8 0 1 0 0 3.59 1.8 1.8 0 0 0 0-3.59z"/><circle cx="30.52" cy="30.52" r="1.8"/><path d="M30.52 19.13a1.8 1.8 0 0 0-1.8 1.8 1.8 1.8 0 0 0 3.59 0 1.8 1.8 0 0 0-1.79-1.8zm9.58 33.52a1.8 1.8 0 1 0 0 3.6 1.8 1.8 0 0 0 0-3.6zm0-9.59a1.8 1.8 0 1 0 0 3.59 1.8 1.8 0 0 0 0-3.59z"/><circle cx="30.52" cy="49.65" r="1.8"/><path d="M30.52 38.27a1.8 1.8 0 0 0-1.8 1.8 1.8 1.8 0 0 0 3.59 0 1.8 1.8 0 0 0-1.79-1.8zm0 38.27a1.8 1.8 0 0 0-1.8 1.8 1.8 1.8 0 0 0 3.59 0 1.8 1.8 0 0 0-1.79-1.8zm9.58-4.76a1.8 1.8 0 1 0 0 3.6 1.8 1.8 0 0 0 0-3.6zm0-9.59a1.8 1.8 0 1 0 0 3.6 1.8 1.8 0 0 0 0-3.6z"/><circle cx="30.52" cy="68.79" r="1.8"/><path d="M30.52 57.4a1.8 1.8 0 0 0-1.8 1.8 1.8 1.8 0 0 0 3.59 0 1.8 1.8 0 0 0-1.79-1.8zM21 14.38a1.8 1.8 0 1 0 0 3.59 1.8 1.8 0 0 0 0-3.59zm0-9.59a1.8 1.8 0 1 0 0 3.59 1.8 1.8 0 0 0 0-3.59z"/><circle cx="11.38" cy="11.38" r="1.8"/><path d="M11.38 0a1.8 1.8 0 0 0-1.8 1.8 1.8 1.8 0 0 0 3.59 0A1.8 1.8 0 0 0 11.38 0zM1.84 14.38A1.8 1.8 0 1 0 1.8 18a1.8 1.8 0 0 0 0-3.59zm0-9.59a1.8 1.8 0 1 0 0 3.59 1.8 1.8 0 0 0 0-3.59zM21 33.51a1.8 1.8 0 1 0 0 3.59 1.8 1.8 0 0 0 0-3.59zm0-9.58a1.8 1.8 0 1 0 0 3.59 1.8 1.8 0 0 0 0-3.59z"/><circle cx="11.38" cy="30.52" r="1.8"/><path d="M11.38 19.13a1.8 1.8 0 0 0-1.8 1.8 1.8 1.8 0 0 0 3.59 0 1.8 1.8 0 0 0-1.79-1.8zM1.84 33.51a1.8 1.8 0 1 0 0 3.59 1.8 1.8 0 0 0 0-3.59zm0-9.58a1.8 1.8 0 1 0 0 3.59 1.8 1.8 0 0 0 0-3.59zM21 52.65a1.8 1.8 0 1 0 0 3.6 1.8 1.8 0 0 0 0-3.6zm0-9.59a1.8 1.8 0 1 0 0 3.59 1.8 1.8 0 0 0 0-3.59z"/><circle cx="11.38" cy="49.65" r="1.8"/><path d="M11.38 38.27a1.8 1.8 0 0 0-1.8 1.8 1.8 1.8 0 0 0 3.59 0 1.8 1.8 0 0 0-1.79-1.8zM1.84 52.65a1.8 1.8 0 1 0 0 3.6 1.8 1.8 0 0 0 0-3.6zm0-9.59a1.8 1.8 0 1 0 0 3.59 1.8 1.8 0 0 0 0-3.59zm9.54 33.48a1.8 1.8 0 0 0-1.8 1.8 1.8 1.8 0 0 0 3.59 0 1.8 1.8 0 0 0-1.79-1.8zM21 71.78a1.8 1.8 0 1 0 0 3.6 1.8 1.8 0 0 0 0-3.6zm0-9.59a1.8 1.8 0 1 0 0 3.6 1.8 1.8 0 0 0 0-3.6z"/><circle cx="11.38" cy="68.79" r="1.8"/><path d="M11.38 57.4a1.8 1.8 0 0 0-1.8 1.8 1.8 1.8 0 0 0 3.59 0 1.8 1.8 0 0 0-1.79-1.8zM1.84 71.78a1.8 1.8 0 1 0 0 3.6 1.8 1.8 0 0 0 0-3.6zm0-9.59a1.8 1.8 0 1 0 0 3.6 1.8 1.8 0 0 0 0-3.6z"/></g></svg>