<svg xmlns="http://www.w3.org/2000/svg" viewBox="0 0 176.19 143.74"><defs><style>.cls-1{fill:none}.cls-2{fill:#ffb71b}.cls-3{clip-path:url(#clip-path)}.cls-4{fill:#1b204a}</style><clipPath id="clip-path"><path class="cls-1" d="M160.22 67c-17.26.67-34.35 2.82-47.25 7.71-38 14.39-25.92 68.6 47.25 68.19z"/></clipPath></defs><g id="Calque_2" data-name="Calque 2"><g id="Calque_1-2" data-name="Calque 1"><path class="cls-2" d="M160.5 23C138.45 6.07 95.84 0 65.63 0 26.09 0-4.16 21.94.47 62.81c0 0-.47 23.24 43.75 31.24l12 2.54a108.52 108.52 0 0 0 11.34.9c38.33 1.14 73.91-8.68 92.91-24z"/><g class="cls-3"><path class="cls-4" d="M172 115.14a29.89 29.89 0 0 1-16.7 0 32.54 32.54 0 0 0-18.28 0 29.86 29.86 0 0 1-16.69 0 32.54 32.54 0 0 0-18.28 0 26 26 0 0 1-8.34 1.19 26.08 26.08 0 0 1-8.35-1.19L85 115v3a28.31 28.31 0 0 0 8.7 1.18 28.7 28.7 0 0 0 9.13-1.3 29.89 29.89 0 0 1 16.7 0 32.75 32.75 0 0 0 18.27 0 29.89 29.89 0 0 1 16.7 0 28.73 28.73 0 0 0 9.14 1.3 28.27 28.27 0 0 0 8.6-1.15v-3zm0-8.14a29.65 29.65 0 0 1-16.7 0 32.78 32.78 0 0 0-18.3 0 29.62 29.62 0 0 1-16.69 0 28.83 28.83 0 0 0-9.14-1.3A28.83 28.83 0 0 0 102 107a25.67 25.67 0 0 1-8.34 1.2 25.74 25.74 0 0 1-8.35-1.2l-.35-.1v3a28.31 28.31 0 0 0 8.7 1.18 28.7 28.7 0 0 0 9.13-1.3 25.74 25.74 0 0 1 8.35-1.2 25.74 25.74 0 0 1 8.35 1.2 32.75 32.75 0 0 0 18.27 0 29.65 29.65 0 0 1 16.7 0 28.73 28.73 0 0 0 9.14 1.3 28.27 28.27 0 0 0 8.6-1.15v-3zm0 16.31a29.65 29.65 0 0 1-16.7 0 32.78 32.78 0 0 0-18.28 0 29.62 29.62 0 0 1-16.69 0 28.83 28.83 0 0 0-9.14-1.3 28.83 28.83 0 0 0-9.14 1.3 25.67 25.67 0 0 1-8.34 1.2 25.74 25.74 0 0 1-8.35-1.2l-.35-.1v3a28.31 28.31 0 0 0 8.7 1.18 28.36 28.36 0 0 0 9.13-1.31 29.89 29.89 0 0 1 16.7 0 32.51 32.51 0 0 0 18.27 0 29.89 29.89 0 0 1 16.7 0 32.63 32.63 0 0 0 17.74.16v-3zm0 8.18a29.89 29.89 0 0 1-16.7 0 32.54 32.54 0 0 0-18.28 0 29.86 29.86 0 0 1-16.69 0 28.48 28.48 0 0 0-9.14-1.31 28.77 28.77 0 0 0-9.14 1.31 26 26 0 0 1-8.34 1.19 26.08 26.08 0 0 1-8.35-1.19l-.35-.1v3a28.31 28.31 0 0 0 8.7 1.18 28.7 28.7 0 0 0 9.13-1.3 29.89 29.89 0 0 1 16.7 0 32.75 32.75 0 0 0 18.27 0 29.89 29.89 0 0 1 16.7 0 28.73 28.73 0 0 0 9.14 1.3 28.27 28.27 0 0 0 8.6-1.15v-3zm0 8.17a29.89 29.89 0 0 1-16.7 0 32.78 32.78 0 0 0-18.28 0 29.86 29.86 0 0 1-16.69 0 28.83 28.83 0 0 0-9.14-1.3 28.83 28.83 0 0 0-9.14 1.3 26 26 0 0 1-8.34 1.19 26.08 26.08 0 0 1-8.35-1.19l-.35-.1v3a28.31 28.31 0 0 0 8.7 1.18 28.64 28.64 0 0 0 9.13-1.31 29.89 29.89 0 0 1 16.7 0 32.51 32.51 0 0 0 18.27 0 29.89 29.89 0 0 1 16.7 0 28.66 28.66 0 0 0 9.14 1.31 28.27 28.27 0 0 0 8.6-1.15v-3z"/><path class="cls-4" d="M154.93 115.14a32.61 32.61 0 0 0-18.3 0 29.93 29.93 0 0 1-16.71 0 32.54 32.54 0 0 0-18.28 0 26.15 26.15 0 0 1-8.36 1.19 25.38 25.38 0 0 1-7.18-.87v3a28.91 28.91 0 0 0 7.18.77 28.85 28.85 0 0 0 9.15-1.3 29.89 29.89 0 0 1 16.7 0 32.82 32.82 0 0 0 18.29 0 30 30 0 0 1 16.72 0 28.73 28.73 0 0 0 9.14 1.3v-2.88a26.08 26.08 0 0 1-8.35-1.21zm0-8.14a32.85 32.85 0 0 0-18.3 0 29.69 29.69 0 0 1-16.71 0 28.78 28.78 0 0 0-9.14-1.3 28.73 28.73 0 0 0-9.14 1.3 25.82 25.82 0 0 1-8.36 1.2 25.38 25.38 0 0 1-7.18-.87v3a28.35 28.35 0 0 0 7.18.78 28.85 28.85 0 0 0 9.15-1.3 25.74 25.74 0 0 1 8.35-1.2 25.74 25.74 0 0 1 8.35 1.2 32.82 32.82 0 0 0 18.29 0 29.72 29.72 0 0 1 16.72 0 28.73 28.73 0 0 0 9.14 1.3v-2.88a25.74 25.74 0 0 1-8.35-1.23zm0 16.31a32.85 32.85 0 0 0-18.3 0 29.69 29.69 0 0 1-16.71 0 28.78 28.78 0 0 0-9.14-1.3 28.73 28.73 0 0 0-9.14 1.3 25.82 25.82 0 0 1-8.36 1.2 25.75 25.75 0 0 1-7.18-.87v3a28.82 28.82 0 0 0 7.18.78 28.5 28.5 0 0 0 9.15-1.31 29.89 29.89 0 0 1 16.7 0 32.58 32.58 0 0 0 18.29 0 30 30 0 0 1 16.72 0 28.38 28.38 0 0 0 9.14 1.31v-2.88a25.74 25.74 0 0 1-8.35-1.23zm0 8.18a32.61 32.61 0 0 0-18.3 0 29.93 29.93 0 0 1-16.71 0 28.43 28.43 0 0 0-9.14-1.31 28.38 28.38 0 0 0-9.14 1.31 26.15 26.15 0 0 1-8.36 1.19 25.38 25.38 0 0 1-7.18-.87v3a28.91 28.91 0 0 0 7.18.77 28.85 28.85 0 0 0 9.15-1.3 29.89 29.89 0 0 1 16.7 0 32.82 32.82 0 0 0 18.29 0 30 30 0 0 1 16.72 0 28.73 28.73 0 0 0 9.14 1.3v-2.88a26.08 26.08 0 0 1-8.35-1.21zm0 8.17a32.85 32.85 0 0 0-18.3 0 29.93 29.93 0 0 1-16.71 0 28.78 28.78 0 0 0-9.14-1.3 28.73 28.73 0 0 0-9.14 1.3 26.15 26.15 0 0 1-8.36 1.19 25.83 25.83 0 0 1-7.18-.85v3a28.82 28.82 0 0 0 7.18.78 28.79 28.79 0 0 0 9.15-1.31 29.89 29.89 0 0 1 16.7 0 32.58 32.58 0 0 0 18.29 0 30 30 0 0 1 16.72 0 28.66 28.66 0 0 0 9.14 1.31v-2.89a26.08 26.08 0 0 1-8.35-1.23zM172 66.1a29.89 29.89 0 0 1-16.7 0 32.54 32.54 0 0 0-18.28 0 29.86 29.86 0 0 1-16.69 0 32.54 32.54 0 0 0-18.28 0 26 26 0 0 1-8.34 1.19 26.08 26.08 0 0 1-8.35-1.19L85 66v3a28.31 28.31 0 0 0 8.7 1.18 28.64 28.64 0 0 0 9.13-1.31 29.89 29.89 0 0 1 16.7 0 32.51 32.51 0 0 0 18.27 0 29.89 29.89 0 0 1 16.7 0 32.54 32.54 0 0 0 18.28 0 29.68 29.68 0 0 1 3.45-.83v-2.91a30.6 30.6 0 0 0-4.23.97zm0 8.17a29.65 29.65 0 0 1-16.7 0 32.78 32.78 0 0 0-18.28 0 29.62 29.62 0 0 1-16.69 0 28.83 28.83 0 0 0-9.14-1.3 28.83 28.83 0 0 0-9.14 1.3 25.67 25.67 0 0 1-8.34 1.2 25.74 25.74 0 0 1-8.35-1.2l-.35-.1v3a28.31 28.31 0 0 0 8.7 1.18 28.7 28.7 0 0 0 9.13-1.3 25.74 25.74 0 0 1 8.35-1.2 25.74 25.74 0 0 1 8.35 1.2 32.75 32.75 0 0 0 18.27 0 29.65 29.65 0 0 1 16.7 0 32.78 32.78 0 0 0 18.28 0 31.77 31.77 0 0 1 3.45-.84V73.3a30.6 30.6 0 0 0-4.24.97zm0 8.18a29.89 29.89 0 0 1-16.7 0 32.54 32.54 0 0 0-18.28 0 29.86 29.86 0 0 1-16.69 0 32.54 32.54 0 0 0-18.28 0 26 26 0 0 1-8.34 1.19 26.08 26.08 0 0 1-8.35-1.19l-.35-.1v3a28.31 28.31 0 0 0 8.7 1.18 28.7 28.7 0 0 0 9.13-1.3 29.89 29.89 0 0 1 16.7 0 32.75 32.75 0 0 0 18.27 0 29.89 29.89 0 0 1 16.7 0 32.78 32.78 0 0 0 18.28 0 29.68 29.68 0 0 1 3.45-.83v-2.93a32 32 0 0 0-4.24.98zm0 8.17a29.65 29.65 0 0 1-16.7 0 32.78 32.78 0 0 0-18.28 0 29.62 29.62 0 0 1-16.69 0 28.83 28.83 0 0 0-9.14-1.3 28.83 28.83 0 0 0-9.14 1.3 25.67 25.67 0 0 1-8.34 1.2 25.74 25.74 0 0 1-8.35-1.2l-.35-.1v3a28.31 28.31 0 0 0 8.7 1.18 28.36 28.36 0 0 0 9.13-1.31 29.89 29.89 0 0 1 16.7 0 32.51 32.51 0 0 0 18.27 0 29.89 29.89 0 0 1 16.7 0 32.54 32.54 0 0 0 18.28 0 34.4 34.4 0 0 1 3.45-.83v-2.91a30.6 30.6 0 0 0-4.24.97zm0 8.18a29.89 29.89 0 0 1-16.7 0 32.54 32.54 0 0 0-18.28 0 29.86 29.86 0 0 1-16.69 0 32.54 32.54 0 0 0-18.28 0 26 26 0 0 1-8.39 1.2 26.08 26.08 0 0 1-8.35-1.19L85 98.7v3a28.31 28.31 0 0 0 8.7 1.18 28.7 28.7 0 0 0 9.13-1.3 29.65 29.65 0 0 1 16.7 0 32.75 32.75 0 0 0 18.27 0 29.65 29.65 0 0 1 16.7 0 32.78 32.78 0 0 0 18.28 0 29.68 29.68 0 0 1 3.45-.83v-2.93a32 32 0 0 0-4.23.98z"/><path class="cls-4" d="M154.93 66.1a32.61 32.61 0 0 0-18.3 0 29.93 29.93 0 0 1-16.71 0 32.54 32.54 0 0 0-18.28 0 26.15 26.15 0 0 1-8.36 1.19c-.75 0-1.42 0-2-.06v2.89c.64 0 1.31.06 2 .06a28.79 28.79 0 0 0 9.15-1.31 29.89 29.89 0 0 1 16.7 0 32.58 32.58 0 0 0 18.29 0 30 30 0 0 1 16.72 0 28.66 28.66 0 0 0 9.14 1.31v-2.89a26.08 26.08 0 0 1-8.35-1.19zm0 8.17a32.85 32.85 0 0 0-18.3 0 29.69 29.69 0 0 1-16.71 0 28.78 28.78 0 0 0-9.14-1.3 28.73 28.73 0 0 0-9.14 1.3 25.82 25.82 0 0 1-8.36 1.2c-.75 0-1.42 0-2-.06v2.89h2a28.85 28.85 0 0 0 9.15-1.3 25.74 25.74 0 0 1 8.35-1.2 25.74 25.74 0 0 1 8.35 1.2 32.82 32.82 0 0 0 18.29 0 29.72 29.72 0 0 1 16.72 0 28.73 28.73 0 0 0 9.14 1.3v-2.83a25.74 25.74 0 0 1-8.35-1.2zm0 8.18a32.61 32.61 0 0 0-18.3 0 29.93 29.93 0 0 1-16.71 0 32.54 32.54 0 0 0-18.28 0 26.15 26.15 0 0 1-8.36 1.19c-.75 0-1.42 0-2-.06v2.89h2a28.85 28.85 0 0 0 9.15-1.3 29.89 29.89 0 0 1 16.7 0 32.82 32.82 0 0 0 18.29 0 30 30 0 0 1 16.72 0 28.73 28.73 0 0 0 9.14 1.3v-2.83a26.08 26.08 0 0 1-8.35-1.19zm0 8.17a32.85 32.85 0 0 0-18.3 0 29.69 29.69 0 0 1-16.71 0 28.78 28.78 0 0 0-9.14-1.3 28.73 28.73 0 0 0-9.14 1.3 25.82 25.82 0 0 1-8.36 1.2c-.75 0-1.42 0-2-.06v2.88c.64 0 1.31.06 2 .06a28.5 28.5 0 0 0 9.15-1.31 29.89 29.89 0 0 1 16.7 0 32.58 32.58 0 0 0 18.29 0 30 30 0 0 1 16.72 0 28.38 28.38 0 0 0 9.14 1.31v-2.88a25.74 25.74 0 0 1-8.35-1.2zm0 8.18a32.61 32.61 0 0 0-18.3 0 29.93 29.93 0 0 1-16.71 0 32.54 32.54 0 0 0-18.28 0 26.15 26.15 0 0 1-8.36 1.2c-.75 0-1.42 0-2-.06v2.89c.64 0 1.31.05 2 .05a28.85 28.85 0 0 0 9.15-1.3 29.65 29.65 0 0 1 16.7 0 32.82 32.82 0 0 0 18.29 0 29.72 29.72 0 0 1 16.72 0 28.73 28.73 0 0 0 9.14 1.3V100a26.08 26.08 0 0 1-8.35-1.2z"/></g></g></g></svg>