<svg height="69" width="108" xmlns="http://www.w3.org/2000/svg"><g fill="none" fill-rule="evenodd"><path d="M84.562 1.845l-7.69 23.982-5.378 15.474 6.336 6.3s4.522-7.914 9.041-8.453c4.518-.54 8.84.056 8.84.056l9.908-32.378-3.697-2.182-9.874 1.853-3.26 9.067-2.738-1.802L89 4.946l9.788-1.687-3.904-1.724z" fill="#caa983"/><path d="M37.921 45.97c-.59-5.335-5.128-11.571-12.334-13.56-2.406-.663-8.477-1.63-13.415.716-4.372 2.077-8.45 6.522-9.825 11.066-2.359 7.904.316 16.597 6.09 20.35 4.217 2.743 9.632 4.348 14.742 3.558 7.469-1.186 17.003-7.977 14.742-22.13" fill="#fefefe"/><path d="M37.921 45.97c-.59-5.335-5.128-11.571-12.334-13.56-2.406-.663-8.477-1.63-13.415.716-4.372 2.077-8.45 6.522-9.825 11.066-2.359 7.904.316 16.597 6.09 20.35 4.217 2.743 9.632 4.348 14.742 3.558 7.469-1.186 17.003-7.977 14.742-22.13" stroke="#222146" stroke-linecap="round" stroke-linejoin="round" stroke-width="1.458"/><g stroke="#222146" stroke-linecap="round" stroke-linejoin="round" stroke-width="1.458"><path d="M33.304 22.564c1.038 4.059 10.711 28.84 10.711 29.53M35.76 29.966L20.82 52.293s15.922 0 23.195-.198m-8.256-22.13c3.115 0 22.016-2.766 31.451-3.754m6.585-16.498s-7.196.04-7.174 1.185c.128 6.858 2.402 36.597 1.812 41.141"/><path d="M40.293 20.18c1.51-2.659-9.747-2.659-11.902-2.64-2.19.019-2.082 4.243.104 5.025 2.122.76 9.855-.47 11.798-2.386M92.048 6.497c1.567.75 3.6 1.808 5.25 2.315-.614 2.477-1.863 4.69-2.7 7.062-1.427 4.045-2.802 8.107-4.2 12.161-2.44 7.084-4.884 14.168-7.321 21.254-.176.514-.457 1.008-.394 1.585M89.08 15.56c-.15.092-2.435-1.273-3.03-1.644.316-1.561.58-2.184 1.173-3.194 1.05-2.454 1.13-3.704 1.776-5.775"/><path d="M101.922 4.644c-1.412.135-4.048.627-5.523.959-1.97.442-1.94.28-3.92.713-.773.169-.52.34-.756 1.062-.737 2.248-1.862 5.948-2.643 8.182m5.134 28.525c.336-1.856 1.01-3.614 1.54-5.415 2.99-10.127 6.096-19.241 9.475-29.236.27-.906.78-2.74.78-2.74M89.18 4.92c-.745-.59-3.8-2.58-4.617-3.073M98.788 3.26c-.936.294-8.62 1.403-9.61 1.66"/><path d="M94.214 44.085c-.15 1.142-.686 2.2-.74 3.501a79.289 79.289 0 0 1-9.8 3.206c-1.23.317-1.95.01-2.919-.697-3.273-2.395-5.774-5.562-8.629-8.373-.141-.139-.335-.227-.632-.42 3.425-9.939 6.999-19.87 10.217-29.914.96-2.995 2.203-6.44 2.85-9.542.1-.478.257-.313.793-.31 2.607.017 6.916.1 9.53 0l11.2 4.946"/><path d="M106.01 6.694c-1.837.683-3.77.902-5.692 1.149-.956.123-2.17.465-3.019.969"/></g><path d="M105.354 49.807c-.46-4.17-4.01-9.046-9.643-10.601-1.882-.52-6.628-1.274-10.489.56-3.418 1.623-6.605 5.098-7.68 8.651-1.845 6.18.246 12.977 4.76 15.91 3.298 2.145 7.53 3.4 11.526 2.782 5.84-.927 13.294-6.237 11.526-17.302" fill="#fefefe"/><g stroke="#222146" stroke-linecap="round" stroke-linejoin="round" stroke-width="1.458"><path d="M105.354 49.807c-.46-4.17-4.01-9.046-9.643-10.601-1.882-.52-6.628-1.274-10.489.56-3.418 1.623-6.605 5.098-7.68 8.651-1.845 6.18.246 12.977 4.76 15.91 3.298 2.145 7.53 3.4 11.526 2.782 5.84-.927 13.294-6.237 11.526-17.302"/><path d="M44.015 52.095c6.487-.395 44.736.196 46.506.196 2.948 0 14.331-25.289 15.903-28.351"/></g></g></svg>