<svg viewBox="0 0 29.65 31.08" xmlns="http://www.w3.org/2000/svg"><path d="m3.24 30.16-1-.31s0-4.35 0-5.57a48.38 48.38 0 0 0 -.73-4.79c-.19-1.14-1.19-8.06-1.19-8.92a29.82 29.82 0 0 0 4.51.43c1.42-.09 4.61-.27 5-.27s3.83-.05 5.15 0 7.71 0 7.71 0 6.88 0 6.88.22c0 0-.54 3.4-.5 3.8s-.45 5.34-.41 6.16-1.64 8.6-1.68 9-.1.68-.1.68a19.44 19.44 0 0 1 -3.55.18c-1.37-.14-5.2-.27-5.48-.27s-2.69.27-3.83.31-6.54-.15-8.02-.28-2.76-.37-2.76-.37z" fill="#202347"/><path d="m.24 10.44a81.06 81.06 0 0 0 1.53 10.56c.58 2.6.44 8.9.44 8.9.45.77 10.42 1.28 13.13.75s10.38.69 11.31-.12c0 0 1.85-7.48 1.78-10.14-.05-2.37 1-9.34 1-9.34-2.07-.46-12.68.11-15.33-.23-4.27-.46-10 .92-13.84-.35" fill="none" stroke="#202347" stroke-linecap="round" stroke-linejoin="round" stroke-width=".48"/><path d="m6.09 10.78c.4-1.21.69-3.35 1.44-4.44.92-1.44 1.65-2.68 2.63-4.12 2-2.83 5.82-2.68 8.59-1.07 2.07 1.21 2.88 2 3.4 4.26.29 1.56 1.62 4.3 1.91 5.85a20.46 20.46 0 0 0 -2.71.09c-.64-2.65-1.11-6.51-2.83-8.64-2.08-2.48-3.9-3.32-6.43-.9a7.22 7.22 0 0 0 -2.16 3.66c-.41 1.68-.78 3.58 0 5.1a15.88 15.88 0 0 1 -3.8.21" fill="#222146"/><g fill="none" stroke="#fff"><path d="m17.15 20a6.12 6.12 0 0 1 .24.8c.16.63.31 1.27.48 1.9a12.28 12.28 0 0 1 .45 1.81 2.41 2.41 0 0 1 -.32 1.21l-.12.19a4.75 4.75 0 0 1 -.63.95.58.58 0 0 1 -.38.21 5 5 0 0 1 -1 .08.61.61 0 0 0 -.19 0c-.15 0-.75 0-.9 0" stroke-linecap="round" stroke-miterlimit="10" stroke-width=".16"/><path d="m22.42 22.92a1.72 1.72 0 0 1 0 .62c0 .16-.25.31-.38.38-.56.31-1.11.63-1.69.89-.75.32-1.2.48-1.69.71l-.63.24" stroke-linecap="round" stroke-linejoin="bevel" stroke-width=".24"/><path d="m8.71 17a4.51 4.51 0 0 1 -.65-.66.6.6 0 0 1 0-.77 1.37 1.37 0 0 1 .85-.67.43.43 0 0 1 .48.14.68.68 0 0 0 .59.31h1.18l2.08.05c.72 0 3.74 0 4.46.06m0 0a12.6 12.6 0 0 1 1.84.09 5.76 5.76 0 0 1 .81.15.68.68 0 0 1 .22.09c.15-.12.25-.28.39-.39a.49.49 0 0 1 .54-.09 1.18 1.18 0 0 1 .51.34.84.84 0 0 1 .13.53 1 1 0 0 1 -.28.73c-.15.15-.28.31-.44.45a.13.13 0 0 0 -.05.16 25.92 25.92 0 0 1 1.08 5.4" stroke-linecap="round" stroke-miterlimit="10" stroke-width=".24"/><path d="m17.15 20a1.4 1.4 0 0 0 -.37-.47 1.61 1.61 0 0 0 -.67-.19 8.8 8.8 0 0 0 -1.85 0 .69.69 0 0 0 -.52.3 3.72 3.72 0 0 0 -.6 1.49c-.14.49-.27 1-.4 1.47a15.16 15.16 0 0 0 -.39 1.47 1.36 1.36 0 0 0 .08.84 6.77 6.77 0 0 0 .57 1.09l.17.24a3.92 3.92 0 0 0 .59.57.89.89 0 0 0 .24.19 1.53 1.53 0 0 0 .85.22" stroke-miterlimit="10" stroke-width=".16"/><path d="m15.37 26.44c.53 0 .51.07.68-.06a7.67 7.67 0 0 0 .94-.95c.11-.11.33-.33.31-.53 0-.37 0-.54 0-.92s-.06-.29-.33-.32c-.48-.06-1-.12-1.47-.15a5.22 5.22 0 0 0 -1.12 0 3.16 3.16 0 0 0 -.61 0 .29.29 0 0 0 -.25.26 6.63 6.63 0 0 0 -.09 1.23.38.38 0 0 0 .17.3l1.24 1a.61.61 0 0 0 .53.14zm-6.66-9.44c-.08.33-.17.65-.24 1s-.16.71-.23 1.07m0 0c-.09.28-.57 2.91-.63 3.2a6 6 0 0 0 -.12 1.05.86.86 0 0 0 .44.82 16.74 16.74 0 0 0 2.1 1c.93.34 2.39.79 2.9.9" stroke-linecap="round" stroke-miterlimit="10" stroke-width=".24"/></g><path d="m18.06 19.51a.41.41 0 0 1 .16.39.29.29 0 0 1 -.27.3.42.42 0 0 1 -.47-.25c-.13.16-.24.29-.17.52l-.1-.34c.05-.07.22-.24.22-.31a.39.39 0 0 1 .63-.31" fill="#fff"/><path d="m13.56 19.88v.07a.76.76 0 0 0 -.23-.15.33.33 0 0 1 -.23.27.53.53 0 0 1 -.43 0 .35.35 0 0 1 -.13-.37c.07-.49.79-.35.79 0 0 .12.11.09.27.24" fill="#fff"/></svg>