<svg width="81" height="81" xmlns="http://www.w3.org/2000/svg"><g transform="translate(2 2)" fill="none" fill-rule="evenodd"><path d="M31.93 76.681c21.011 3.705 41.045-10.324 44.75-31.335C80.386 24.334 66.357 4.299 45.345.594 24.335-3.111 4.3 10.918.594 31.93-3.113 52.94 10.918 72.976 31.929 76.68" fill="#FEFEFE"/><path d="M31.93 76.681c21.011 3.705 41.045-10.324 44.75-31.335C80.386 24.334 66.357 4.299 45.345.594 24.335-3.111 4.3 10.918.594 31.93-3.113 52.94 10.918 72.976 31.929 76.68z" stroke="#222447" stroke-width="2.7"/><path d="M35.034 31.798s5.304.113 8.748-.873l1.044 14.278-2.84.315-3.732.777-1.843.328-1.377-14.825z" fill="#FEFEFE"/><path d="M52.555 31.07s-2.832-.451-5.307-.557c-2.475-.105-3.75.43-3.75.43l.993 14.239 8.064.204V31.071z" fill="#E20714"/><path d="M26.892 31.481c2.699.323 5.425.531 8.143.593 1.721.04 3.502.06 5.197-.286 1.396-.284 2.765-.595 4.187-.738 1.31-.13 2.629-.178 3.944-.148 1.435.033 2.904.122 4.313.411l-.281-.37.051 12.91.007 1.813.484-.37c-2.665-.445-5.44-.528-8.132-.352a29.275 29.275 0 0 0-3.282.392c-1.133.203-2.239.527-3.376.714-2.124.35-4.298.4-6.443.267a27.806 27.806 0 0 1-2.433-.248 14.15 14.15 0 0 1-.745-.13c-.08-.018-.17-.05-.25-.059-.068-.005-.14-.059-.05-.008l.19.33c-.307-3.78-.606-7.562-.881-11.345a352.706 352.706 0 0 1-.26-3.76c-.03-.487-.797-.491-.767 0 .311 4.938.719 9.87 1.118 14.8.012.147.001.37.077.498.131.226.499.259.729.303 1.231.24 2.497.35 3.749.41a29.83 29.83 0 0 0 5.744-.254c1.03-.15 2.028-.414 3.043-.632a25.846 25.846 0 0 1 3.178-.463c2.83-.243 5.78-.193 8.588.276.24.04.485-.1.484-.369l-.05-12.909-.008-1.814c0-.158-.117-.335-.28-.368-1.152-.237-2.345-.336-3.518-.4-2.676-.144-5.379.03-8.005.575-.91.188-1.78.407-2.707.485a31.19 31.19 0 0 1-2.792.086c-1.903-.013-3.803-.128-5.7-.285-1.09-.09-2.18-.19-3.266-.32-.488-.06-.484.707 0 .765" fill="#222146"/><path d="M35.918 31.964l.902 14.646s-7.958.27-8.57-.574c-.612-.842-1.135-14.825-1.135-14.825l8.803.753z" fill="#222146"/><path fill="#222447" d="M18.6834207 47.9172828L18.1266621 48.1163172 16.7737655 44.3386966 13.4910414 45.5140759 14.7108 48.9205241 14.1553862 49.1209034 12.9356276 45.7131103 8.69404138 47.2314207 8.4560069 46.5643862 17.0911448 43.4712828z"/><path d="M18.648 49.479l-2.893 2.126.901 1.23c.459.622.935 1.008 1.431 1.152.494.144.973.048 1.434-.292.454-.335.686-.764.694-1.286.008-.52-.218-1.096-.68-1.724l-.887-1.206zm.057-.921l1.391 1.894c.584.793.858 1.525.822 2.198-.034.672-.345 1.225-.932 1.655-.854.628-1.797.599-2.83-.086.061.331-.075.935-.405 1.814l-1.327 3.55-.497-.676 1.077-2.777c.363-.929.54-1.575.531-1.936-.008-.365-.184-.776-.523-1.239l-.735-1-3.544 2.606-.42-.572 7.392-5.431zm5.152 13.149l.817-4.679-4.07 2.444 3.253 2.235zm1.639-5.52l-1.738 10.018-.614-.423.6-3.434-3.697-2.541L17.06 61.6l-.615-.423 8.728-5.21.323.22z" fill="#222447"/><path fill="#222447" d="M36.4853069 60.6701483L34.5931345 69.6468724 34.0202379 69.5271828 28.8507207 60.2424931 27.1965828 68.0882172 26.5026517 67.9402862 28.396169 58.9635621 28.9838586 59.088631 34.1358931 68.370631 35.790031 60.5249069z"/><path d="M46.19 67.543l.107.727c-.99.727-2.02 1.169-3.092 1.326a1.182 1.182 0 0 1-.306.02l-.055.392c.564.015.879.253.948.717a.905.905 0 0 1-.25.804c-.213.219-.516.358-.904.415a2.503 2.503 0 0 1-.596.015l.01-.433c.166-.01.313-.025.436-.044.579-.085.841-.3.789-.642-.048-.333-.35-.466-.901-.398l.115-.792c-1.281.012-2.359-.356-3.233-1.103-.875-.747-1.397-1.705-1.57-2.875-.196-1.329.11-2.508.915-3.54.81-1.032 1.863-1.643 3.163-1.835 1.022-.15 2.122-.054 3.302.289l.113.765c-1.188-.42-2.31-.554-3.365-.397-1.127.167-2.012.689-2.656 1.567-.645.88-.882 1.892-.711 3.04.17 1.16.694 2.058 1.565 2.696.873.637 1.902.866 3.084.691.988-.145 2.017-.613 3.091-1.405m6.499-5.361l-3.785-2.871.308 4.737 3.477-1.866zm-4.156-3.985l8.108 6.132-.655.353-2.778-2.108-3.954 2.124.227 3.478-.655.35-.634-10.145.341-.184z" fill="#222447"/><path fill="#222447" d="M53.0632655 55.2370448L59.5170931 61.756769 59.0127828 62.2557 52.5589552 55.7359759z"/><path d="M57.722 50.394l.644.44c-.837.393-1.416.828-1.74 1.301-.31.456-.432.932-.364 1.426.068.494.307.88.713 1.159.295.2.62.29.978.269.359-.019.843-.244 1.452-.67.61-.426 1.078-.722 1.402-.888a2.313 2.313 0 0 1 1.089-.243c.398.004.819.155 1.256.453.582.397.93.946 1.04 1.648.109.7-.046 1.358-.466 1.971-.429.63-1.092 1.127-1.987 1.49l-.689-.47c1.04-.365 1.743-.818 2.111-1.357.307-.448.419-.926.34-1.434a1.72 1.72 0 0 0-.755-1.195 1.735 1.735 0 0 0-1.068-.307c-.389.015-.896.24-1.52.67-.624.433-1.09.727-1.4.885a2.23 2.23 0 0 1-1.026.239c-.373.001-.762-.135-1.162-.409-.556-.38-.886-.916-.987-1.611-.1-.694.054-1.342.464-1.942.404-.589.96-1.064 1.675-1.425" fill="#222447"/><path fill="#222447" d="M60.0539483 43.9117138L60.6080172 44.1174724 59.112569 48.1425414 62.5526379 49.4214724 64.0090862 45.5013 64.5698793 45.7084034 63.1120862 49.6299207 66.6032586 50.9263345 68.1363621 46.8017483 68.690431 47.0088517 66.9112241 51.7977828 58.3110517 48.6024724z"/><path fill="#222447" d="M15.7941931 21.3812793L14.4991241 16.0315552 14.9321586 15.4586586 22.2480207 20.9926241 21.8176759 21.5641759 15.3261931 16.6555552 16.6427793 22.0254517 11.1088138 22.2339 17.5989517 27.1411759 17.1699517 27.7073483 9.85274483 22.1733828 10.2804 21.6072103z"/><path d="M26.754 13.73l-3.904-2.706.51 4.72 3.394-2.014zm-4.321-3.803l8.363 5.78-.641.379-2.867-1.986-3.857 2.29.376 3.466-.64.379-1.07-10.11.336-.198zm8.756-2.754l.657 3.53 1.5-.28c.761-.14 1.314-.403 1.66-.783.344-.384.465-.857.359-1.42-.103-.556-.39-.95-.854-1.184-.467-.234-1.083-.28-1.85-.137l-1.472.274zm-.806-.452l2.312-.43c.968-.182 1.748-.108 2.337.216.592.326.952.844 1.086 1.558.195 1.04-.242 1.88-1.309 2.515.324.086.81.47 1.457 1.15l2.622 2.739-.826.153-2.03-2.177c-.68-.732-1.184-1.17-1.515-1.32-.33-.149-.778-.172-1.342-.067l-1.22.228.806 4.323-.698.13-1.68-9.018zm13.831 8.303a4.016 4.016 0 0 0 3.097-.534c.96-.6 1.558-1.445 1.794-2.536.242-1.107.06-2.129-.544-3.064-.604-.936-1.464-1.523-2.581-1.767-1.107-.243-2.134-.063-3.082.54-.946.602-1.539 1.45-1.78 2.545-.238 1.09-.056 2.106.546 3.048.602.938 1.45 1.527 2.55 1.768zm4.059 2.46l-.972.735c-1.521-.533-2.75-1.418-3.69-2.654-1.249-.394-2.166-1.126-2.745-2.194-.584-1.066-.75-2.173-.5-3.313.284-1.306.977-2.301 2.081-2.989 1.103-.685 2.321-.882 3.66-.59 1.348.295 2.381.982 3.1 2.059.719 1.079.935 2.266.651 3.567-.234 1.069-.797 1.976-1.698 2.72-.901.744-2.078 1.065-3.534.962.877.928 1.737 1.482 2.58 1.667.288.063.607.018.949-.136l.118.166zm12.868-3.062l.567.428-3.018 3.991c-.827 1.094-1.75 1.72-2.77 1.884-1.017.163-1.977-.098-2.881-.782-.901-.68-1.415-1.53-1.541-2.546-.125-1.018.199-2.036.97-3.056l3.117-4.122.57.432-3.101 4.1c-.66.875-.946 1.731-.854 2.573.088.842.501 1.541 1.234 2.095.74.56 1.53.767 2.368.62.838-.149 1.606-.68 2.296-1.595l3.043-4.022z" fill="#222447"/><path fill="#222447" d="M67.6962 22.939531L67.2026483 23.2663241 64.8317172 19.6863931 61.7722345 21.7130483 64.0813034 25.201531 63.5823724 25.5310138 61.2746483 22.0438759 58.1694414 24.1001172 60.5995448 27.7674621 60.1059931 28.0942552 57.2858897 23.8351862 64.9325793 18.7678759z"/></g></svg>