<svg xmlns="http://www.w3.org/2000/svg" viewBox="0 0 170.85 167.15"><defs><style>.cls-1,.cls-10,.cls-11,.cls-2,.cls-5,.cls-6,.cls-7,.cls-9{fill:none}.cls-2{stroke:#f8b200;stroke-linejoin:round;stroke-width:1.08px}.cls-10,.cls-11,.cls-2,.cls-9{stroke-linecap:round}.cls-3{fill:#fff}.cls-4{fill:#212348}.cls-10,.cls-11,.cls-12,.cls-5,.cls-6,.cls-7,.cls-9{stroke:#212348}.cls-10,.cls-12,.cls-5,.cls-6,.cls-7,.cls-9{stroke-miterlimit:10}.cls-12,.cls-5{stroke-width:1.77px}.cls-6{stroke-width:3px}.cls-7,.cls-9{stroke-width:2px}.cls-8{clip-path:url(#clip-path)}.cls-10,.cls-11{stroke-width:2.5px}.cls-11{stroke-linejoin:bevel}.cls-12{fill:url(#Nuovo_pattern_7)}.cls-13{fill:url(#Nuovo_pattern_7-3)}</style><clipPath id="clip-path"><path class="cls-1" d="M16.51 22.9H148.67V129.10999999999999H16.51z"/></clipPath><pattern id="Nuovo_pattern_7" data-name="Nuovo pattern 7" width="78.54" height="91.1" patternTransform="translate(222.06 -167.02)" patternUnits="userSpaceOnUse"><path class="cls-1" d="M0 0H78.54V91.1H0z"/><path class="cls-2" d="M0.92 -0.85L1.14 0.49"/><path class="cls-2" d="M10.32 1.16L10.47 -0.18"/><path class="cls-2" d="M20.56 -0.85L20.78 0.49"/><path class="cls-2" d="M29.96 1.16L30.11 -0.18"/><path class="cls-2" d="M40.19 -0.85L40.41 0.49"/><path class="cls-2" d="M49.59 1.16L49.74 -0.18"/><path class="cls-2" d="M59.83 -0.85L60.05 0.49"/><path class="cls-2" d="M69.23 1.16L69.38 -0.18"/><path class="cls-2" d="M-0.08 5.55L1.27 5.48"/><path class="cls-2" d="M7.51 8.42L6.4 9.19"/><path class="cls-2" d="M5.45 3.13L6.47 2.25"/><path class="cls-2" d="M5.11 13.67L3.77 13.89"/><path class="cls-2" d="M6.4 19.38L6.54 18.04"/><path class="cls-2" d="M13.72 2.73L12.64 3.54"/><path class="cls-2" d="M19.56 5.55L20.91 5.48"/><path class="cls-2" d="M16.63 17.37L16.85 18.71"/><path class="cls-2" d="M27.15 8.42L26.03 9.19"/><path class="cls-2" d="M17.87 8.98L18.71 10.04"/><path class="cls-2" d="M12.05 15.15L13.23 14.48"/><path class="cls-2" d="M25.08 3.13L26.1 2.25"/><path class="cls-2" d="M24.74 13.67L23.41 13.89"/><path class="cls-2" d="M10.97 9.46L10.01 8.5"/><path class="cls-2" d="M26.03 19.38L26.18 18.04"/><path class="cls-2" d="M33.36 2.73L32.27 3.54"/><path class="cls-2" d="M39.19 5.55L40.54 5.48"/><path class="cls-2" d="M36.27 17.37L36.48 18.71"/><path class="cls-2" d="M46.78 8.42L45.67 9.19"/><path class="cls-2" d="M37.5 8.98L38.35 10.04"/><path class="cls-2" d="M31.69 15.15L32.86 14.48"/><path class="cls-2" d="M44.72 3.13L45.74 2.25"/><path class="cls-2" d="M44.38 13.67L43.04 13.89"/><path class="cls-2" d="M30.61 9.46L29.65 8.5"/><path class="cls-2" d="M45.67 19.38L45.81 18.04"/><path class="cls-2" d="M52.99 2.73L51.91 3.54"/><path class="cls-2" d="M58.83 5.55L60.18 5.48"/><path class="cls-2" d="M55.9 17.37L56.12 18.71"/><path class="cls-2" d="M66.42 8.42L65.3 9.19"/><path class="cls-2" d="M57.14 8.98L57.98 10.04"/><path class="cls-2" d="M51.32 15.15L52.5 14.48"/><path class="cls-2" d="M64.35 3.13L65.38 2.25"/><path class="cls-2" d="M64.01 13.67L62.68 13.89"/><path class="cls-2" d="M50.25 9.46L49.28 8.5"/><path class="cls-2" d="M65.3 19.38L65.45 18.04"/><path class="cls-2" d="M72.63 2.73L71.54 3.54"/><path class="cls-2" d="M78.46 5.55L79.82 5.48"/><path class="cls-2" d="M75.54 17.37L75.75 18.71"/><path class="cls-2" d="M76.77 8.98L77.62 10.04"/><path class="cls-2" d="M70.96 15.15L72.13 14.48"/><path class="cls-2" d="M69.88 9.46L68.92 8.5"/><path class="cls-2" d="M3.58 26.64L2.47 27.41"/><path class="cls-2" d="M1.52 21.35L2.54 20.47"/><path class="cls-2" d="M1.18 31.89L-0.15 32.11"/><path class="cls-2" d="M2.47 37.6L2.62 36.26"/><path class="cls-2" d="M9.79 20.95L8.71 21.76"/><path class="cls-2" d="M15.63 23.77L16.98 23.7"/><path class="cls-2" d="M12.71 35.59L12.92 36.92"/><path class="cls-2" d="M23.22 26.64L22.1 27.41"/><path class="cls-2" d="M13.94 27.2L14.78 28.26"/><path class="cls-2" d="M8.12 33.37L9.3 32.7"/><path class="cls-2" d="M21.16 21.35L22.18 20.47"/><path class="cls-2" d="M20.81 31.89L19.48 32.11"/><path class="cls-2" d="M7.05 27.67L6.09 26.72"/><path class="cls-2" d="M22.1 37.6L22.25 36.26"/><path class="cls-2" d="M29.43 20.95L28.35 21.76"/><path class="cls-2" d="M35.27 23.77L36.62 23.7"/><path class="cls-2" d="M32.34 35.59L32.56 36.92"/><path class="cls-2" d="M42.85 26.64L41.74 27.41"/><path class="cls-2" d="M33.58 27.2L34.42 28.26"/><path class="cls-2" d="M27.76 33.37L28.94 32.7"/><path class="cls-2" d="M40.79 21.35L41.81 20.47"/><path class="cls-2" d="M40.45 31.89L39.12 32.11"/><path class="cls-2" d="M26.68 27.67L25.72 26.72"/><path class="cls-2" d="M41.74 37.6L41.89 36.26"/><path class="cls-2" d="M49.07 20.95L47.98 21.76"/><path class="cls-2" d="M54.9 23.77L56.25 23.7"/><path class="cls-2" d="M51.98 35.59L52.19 36.92"/><path class="cls-2" d="M62.49 26.64L61.37 27.41"/><path class="cls-2" d="M53.21 27.2L54.05 28.26"/><path class="cls-2" d="M47.39 33.37L48.57 32.7"/><path class="cls-2" d="M60.43 21.35L61.45 20.47"/><path class="cls-2" d="M60.08 31.89L58.75 32.11"/><path class="cls-2" d="M46.32 27.67L45.36 26.72"/><path class="cls-2" d="M61.37 37.6L61.52 36.26"/><path class="cls-2" d="M68.7 20.95L67.62 21.76"/><path class="cls-2" d="M74.54 23.77L75.89 23.7"/><path class="cls-2" d="M71.61 35.59L71.83 36.92"/><path class="cls-2" d="M72.85 27.2L73.69 28.26"/><path class="cls-2" d="M67.03 33.37L68.21 32.7"/><path class="cls-2" d="M79.72 31.89L78.39 32.11"/><path class="cls-2" d="M65.95 27.67L64.99 26.72"/><path class="cls-2" d="M-0.34 44.86L-1.46 45.63"/><path class="cls-2" d="M5.87 39.17L4.78 39.98"/><path class="cls-2" d="M11.7 41.99L13.06 41.92"/><path class="cls-2" d="M8.78 53.81L9 55.14"/><path class="cls-2" d="M19.29 44.86L18.18 45.63"/><path class="cls-2" d="M10.01 45.42L10.86 46.48"/><path class="cls-2" d="M4.2 51.59L5.37 50.92"/><path class="cls-2" d="M17.23 39.57L18.25 38.69"/><path class="cls-2" d="M16.89 50.11L15.55 50.33"/><path class="cls-2" d="M3.12 45.89L2.16 44.94"/><path class="cls-2" d="M18.18 55.82L18.33 54.48"/><path class="cls-2" d="M25.5 39.17L24.42 39.98"/><path class="cls-2" d="M31.34 41.99L32.69 41.92"/><path class="cls-2" d="M28.41 53.81L28.63 55.14"/><path class="cls-2" d="M38.93 44.86L37.81 45.63"/><path class="cls-2" d="M29.65 45.42L30.49 46.48"/><path class="cls-2" d="M23.83 51.59L25.01 50.92"/><path class="cls-2" d="M36.86 39.57L37.89 38.69"/><path class="cls-2" d="M36.52 50.11L35.19 50.33"/><path class="cls-2" d="M22.75 45.89L21.79 44.94"/><path class="cls-2" d="M37.81 55.82L37.96 54.48"/><path class="cls-2" d="M45.14 39.17L44.05 39.98"/><path class="cls-2" d="M50.97 41.99L52.33 41.92"/><path class="cls-2" d="M48.05 53.81L48.27 55.14"/><path class="cls-2" d="M58.56 44.86L57.45 45.63"/><path class="cls-2" d="M49.29 45.42L50.13 46.48"/><path class="cls-2" d="M43.47 51.59L44.64 50.92"/><path class="cls-2" d="M56.5 39.57L57.52 38.69"/><path class="cls-2" d="M56.16 50.11L54.82 50.33"/><path class="cls-2" d="M42.39 45.89L41.43 44.94"/><path class="cls-2" d="M57.45 55.82L57.6 54.48"/><path class="cls-2" d="M64.77 39.17L63.69 39.98"/><path class="cls-2" d="M70.61 41.99L71.96 41.92"/><path class="cls-2" d="M67.68 53.81L67.9 55.14"/><path class="cls-2" d="M78.2 44.86L77.08 45.63"/><path class="cls-2" d="M68.92 45.42L69.76 46.48"/><path class="cls-2" d="M63.1 51.59L64.28 50.92"/><path class="cls-2" d="M76.13 39.57L77.16 38.69"/><path class="cls-2" d="M75.79 50.11L74.46 50.33"/><path class="cls-2" d="M62.03 45.89L61.06 44.94"/><path class="cls-2" d="M77.08 55.82L77.23 54.48"/><path class="cls-2" d="M1.94 57.39L0.86 58.2"/><path class="cls-2" d="M7.78 60.21L9.13 60.14"/><path class="cls-2" d="M4.85 72.03L5.07 73.36"/><path class="cls-2" d="M15.37 63.08L14.25 63.85"/><path class="cls-2" d="M6.09 63.64L6.93 64.7"/><path class="cls-2" d="M0.27 69.81L1.45 69.14"/><path class="cls-2" d="M13.3 57.79L14.32 56.91"/><path class="cls-2" d="M12.96 68.33L11.63 68.55"/><path class="cls-2" d="M14.25 74.04L14.4 72.7"/><path class="cls-2" d="M21.58 57.39L20.49 58.2"/><path class="cls-2" d="M27.41 60.21L28.76 60.14"/><path class="cls-2" d="M24.49 72.03L24.7 73.36"/><path class="cls-2" d="M35 63.08L33.88 63.85"/><path class="cls-2" d="M25.72 63.64L26.56 64.7"/><path class="cls-2" d="M19.9 69.81L21.08 69.14"/><path class="cls-2" d="M32.94 57.79L33.96 56.91"/><path class="cls-2" d="M32.6 68.33L31.26 68.55"/><path class="cls-2" d="M18.83 64.11L17.87 63.16"/><path class="cls-2" d="M33.88 74.04L34.03 72.7"/><path class="cls-2" d="M41.21 57.39L40.13 58.2"/><path class="cls-2" d="M47.05 60.21L48.4 60.14"/><path class="cls-2" d="M44.12 72.03L44.34 73.36"/><path class="cls-2" d="M54.64 63.08L53.52 63.85"/><path class="cls-2" d="M45.36 63.64L46.2 64.7"/><path class="cls-2" d="M39.54 69.81L40.72 69.14"/><path class="cls-2" d="M52.57 57.79L53.59 56.91"/><path class="cls-2" d="M52.23 68.33L50.9 68.55"/><path class="cls-2" d="M38.46 64.11L37.5 63.16"/><path class="cls-2" d="M53.52 74.04L53.67 72.7"/><path class="cls-2" d="M60.85 57.39L59.76 58.2"/><path class="cls-2" d="M66.68 60.21L68.03 60.14"/><path class="cls-2" d="M63.76 72.03L63.97 73.36"/><path class="cls-2" d="M74.27 63.08L73.16 63.85"/><path class="cls-2" d="M64.99 63.64L65.83 64.7"/><path class="cls-2" d="M59.17 69.81L60.35 69.14"/><path class="cls-2" d="M72.21 57.79L73.23 56.91"/><path class="cls-2" d="M71.87 68.33L70.53 68.55"/><path class="cls-2" d="M58.1 64.11L57.14 63.16"/><path class="cls-2" d="M73.16 74.04L73.3 72.7"/><path class="cls-2" d="M78.81 69.81L79.99 69.14"/><path class="cls-2" d="M77.73 64.11L76.77 63.16"/><path class="cls-2" d="M3.85 78.43L5.2 78.36"/><path class="cls-2" d="M0.92 90.25L1.14 91.58"/><path class="cls-2" d="M11.44 81.3L10.32 82.07"/><path class="cls-2" d="M2.16 81.86L3 82.92"/><path class="cls-2" d="M9.38 76.01L10.4 75.13"/><path class="cls-2" d="M9.03 86.55L7.7 86.77"/><path class="cls-2" d="M10.32 92.26L10.47 90.92"/><path class="cls-2" d="M17.65 75.61L16.57 76.42"/><path class="cls-2" d="M23.49 78.43L24.84 78.36"/><path class="cls-2" d="M20.56 90.25L20.78 91.58"/><path class="cls-2" d="M31.07 81.3L29.96 82.07"/><path class="cls-2" d="M21.8 81.86L22.64 82.92"/><path class="cls-2" d="M15.98 88.03L17.16 87.36"/><path class="cls-2" d="M29.01 76.01L30.03 75.13"/><path class="cls-2" d="M28.67 86.55L27.33 86.77"/><path class="cls-2" d="M14.9 82.33L13.94 81.38"/><path class="cls-2" d="M29.96 92.26L30.11 90.92"/><path class="cls-2" d="M37.28 75.61L36.2 76.42"/><path class="cls-2" d="M43.12 78.43L44.47 78.36"/><path class="cls-2" d="M40.19 90.25L40.41 91.58"/><path class="cls-2" d="M50.71 81.3L49.59 82.07"/><path class="cls-2" d="M41.43 81.86L42.27 82.92"/><path class="cls-2" d="M35.61 88.03L36.79 87.36"/><path class="cls-2" d="M48.65 76.01L49.67 75.13"/><path class="cls-2" d="M48.3 86.55L46.97 86.77"/><path class="cls-2" d="M34.54 82.33L33.58 81.38"/><path class="cls-2" d="M49.59 92.26L49.74 90.92"/><path class="cls-2" d="M56.92 75.61L55.83 76.42"/><path class="cls-2" d="M62.75 78.43L64.11 78.36"/><path class="cls-2" d="M59.83 90.25L60.05 91.58"/><path class="cls-2" d="M70.34 81.3L69.23 82.07"/><path class="cls-2" d="M61.07 81.86L61.91 82.92"/><path class="cls-2" d="M55.25 88.03L56.42 87.36"/><path class="cls-2" d="M68.28 76.01L69.3 75.13"/><path class="cls-2" d="M67.94 86.55L66.6 86.77"/><path class="cls-2" d="M54.17 82.33L53.21 81.38"/><path class="cls-2" d="M69.23 92.26L69.38 90.92"/><path class="cls-2" d="M76.55 75.61L75.47 76.42"/><path class="cls-2" d="M74.88 88.03L76.06 87.36"/><path class="cls-2" d="M73.81 82.33L72.84 81.38"/></pattern><pattern id="Nuovo_pattern_7-3" data-name="Nuovo pattern 7" width="78.54" height="91.1" patternTransform="translate(239.9 -66.12)" patternUnits="userSpaceOnUse"><path class="cls-1" d="M0 0H78.54V91.1H0z"/><path class="cls-2" d="M0.92 -0.85L1.14 0.49"/><path class="cls-2" d="M10.32 1.16L10.47 -0.18"/><path class="cls-2" d="M20.56 -0.85L20.78 0.49"/><path class="cls-2" d="M29.96 1.16L30.11 -0.18"/><path class="cls-2" d="M40.19 -0.85L40.41 0.49"/><path class="cls-2" d="M49.59 1.16L49.74 -0.18"/><path class="cls-2" d="M59.83 -0.85L60.05 0.49"/><path class="cls-2" d="M69.23 1.16L69.38 -0.18"/><path class="cls-2" d="M-0.08 5.55L1.27 5.48"/><path class="cls-2" d="M7.51 8.42L6.4 9.19"/><path class="cls-2" d="M5.45 3.13L6.47 2.25"/><path class="cls-2" d="M5.11 13.67L3.77 13.89"/><path class="cls-2" d="M6.4 19.38L6.54 18.04"/><path class="cls-2" d="M13.72 2.73L12.64 3.54"/><path class="cls-2" d="M19.56 5.55L20.91 5.48"/><path class="cls-2" d="M16.63 17.37L16.85 18.71"/><path class="cls-2" d="M27.15 8.42L26.03 9.19"/><path class="cls-2" d="M17.87 8.98L18.71 10.04"/><path class="cls-2" d="M12.05 15.15L13.23 14.48"/><path class="cls-2" d="M25.08 3.13L26.1 2.25"/><path class="cls-2" d="M24.74 13.67L23.41 13.89"/><path class="cls-2" d="M10.97 9.46L10.01 8.5"/><path class="cls-2" d="M26.03 19.38L26.18 18.04"/><path class="cls-2" d="M33.36 2.73L32.27 3.54"/><path class="cls-2" d="M39.19 5.55L40.54 5.48"/><path class="cls-2" d="M36.27 17.37L36.48 18.71"/><path class="cls-2" d="M46.78 8.42L45.67 9.19"/><path class="cls-2" d="M37.5 8.98L38.35 10.04"/><path class="cls-2" d="M31.69 15.15L32.86 14.48"/><path class="cls-2" d="M44.72 3.13L45.74 2.25"/><path class="cls-2" d="M44.38 13.67L43.04 13.89"/><path class="cls-2" d="M30.61 9.46L29.65 8.5"/><path class="cls-2" d="M45.67 19.38L45.81 18.04"/><path class="cls-2" d="M52.99 2.73L51.91 3.54"/><path class="cls-2" d="M58.83 5.55L60.18 5.48"/><path class="cls-2" d="M55.9 17.37L56.12 18.71"/><path class="cls-2" d="M66.42 8.42L65.3 9.19"/><path class="cls-2" d="M57.14 8.98L57.98 10.04"/><path class="cls-2" d="M51.32 15.15L52.5 14.48"/><path class="cls-2" d="M64.35 3.13L65.38 2.25"/><path class="cls-2" d="M64.01 13.67L62.68 13.89"/><path class="cls-2" d="M50.25 9.46L49.28 8.5"/><path class="cls-2" d="M65.3 19.38L65.45 18.04"/><path class="cls-2" d="M72.63 2.73L71.54 3.54"/><path class="cls-2" d="M78.46 5.55L79.82 5.48"/><path class="cls-2" d="M75.54 17.37L75.75 18.71"/><path class="cls-2" d="M76.77 8.98L77.62 10.04"/><path class="cls-2" d="M70.96 15.15L72.13 14.48"/><path class="cls-2" d="M69.88 9.46L68.92 8.5"/><path class="cls-2" d="M3.58 26.64L2.47 27.41"/><path class="cls-2" d="M1.52 21.35L2.54 20.47"/><path class="cls-2" d="M1.18 31.89L-0.15 32.11"/><path class="cls-2" d="M2.47 37.6L2.62 36.26"/><path class="cls-2" d="M9.79 20.95L8.71 21.76"/><path class="cls-2" d="M15.63 23.77L16.98 23.7"/><path class="cls-2" d="M12.71 35.59L12.92 36.92"/><path class="cls-2" d="M23.22 26.64L22.1 27.41"/><path class="cls-2" d="M13.94 27.2L14.78 28.26"/><path class="cls-2" d="M8.12 33.37L9.3 32.7"/><path class="cls-2" d="M21.16 21.35L22.18 20.47"/><path class="cls-2" d="M20.81 31.89L19.48 32.11"/><path class="cls-2" d="M7.05 27.67L6.09 26.72"/><path class="cls-2" d="M22.1 37.6L22.25 36.26"/><path class="cls-2" d="M29.43 20.95L28.35 21.76"/><path class="cls-2" d="M35.27 23.77L36.62 23.7"/><path class="cls-2" d="M32.34 35.59L32.56 36.92"/><path class="cls-2" d="M42.85 26.64L41.74 27.41"/><path class="cls-2" d="M33.58 27.2L34.42 28.26"/><path class="cls-2" d="M27.76 33.37L28.94 32.7"/><path class="cls-2" d="M40.79 21.35L41.81 20.47"/><path class="cls-2" d="M40.45 31.89L39.12 32.11"/><path class="cls-2" d="M26.68 27.67L25.72 26.72"/><path class="cls-2" d="M41.74 37.6L41.89 36.26"/><path class="cls-2" d="M49.07 20.95L47.98 21.76"/><path class="cls-2" d="M54.9 23.77L56.25 23.7"/><path class="cls-2" d="M51.98 35.59L52.19 36.92"/><path class="cls-2" d="M62.49 26.64L61.37 27.41"/><path class="cls-2" d="M53.21 27.2L54.05 28.26"/><path class="cls-2" d="M47.39 33.37L48.57 32.7"/><path class="cls-2" d="M60.43 21.35L61.45 20.47"/><path class="cls-2" d="M60.08 31.89L58.75 32.11"/><path class="cls-2" d="M46.32 27.67L45.36 26.72"/><path class="cls-2" d="M61.37 37.6L61.52 36.26"/><path class="cls-2" d="M68.7 20.95L67.62 21.76"/><path class="cls-2" d="M74.54 23.77L75.89 23.7"/><path class="cls-2" d="M71.61 35.59L71.83 36.92"/><path class="cls-2" d="M72.85 27.2L73.69 28.26"/><path class="cls-2" d="M67.03 33.37L68.21 32.7"/><path class="cls-2" d="M79.72 31.89L78.39 32.11"/><path class="cls-2" d="M65.95 27.67L64.99 26.72"/><path class="cls-2" d="M-0.34 44.86L-1.46 45.63"/><path class="cls-2" d="M5.87 39.17L4.78 39.98"/><path class="cls-2" d="M11.7 41.99L13.06 41.92"/><path class="cls-2" d="M8.78 53.81L9 55.14"/><path class="cls-2" d="M19.29 44.86L18.18 45.63"/><path class="cls-2" d="M10.01 45.42L10.86 46.48"/><path class="cls-2" d="M4.2 51.59L5.37 50.92"/><path class="cls-2" d="M17.23 39.57L18.25 38.69"/><path class="cls-2" d="M16.89 50.11L15.55 50.33"/><path class="cls-2" d="M3.12 45.89L2.16 44.94"/><path class="cls-2" d="M18.18 55.82L18.33 54.48"/><path class="cls-2" d="M25.5 39.17L24.42 39.98"/><path class="cls-2" d="M31.34 41.99L32.69 41.92"/><path class="cls-2" d="M28.41 53.81L28.63 55.14"/><path class="cls-2" d="M38.93 44.86L37.81 45.63"/><path class="cls-2" d="M29.65 45.42L30.49 46.48"/><path class="cls-2" d="M23.83 51.59L25.01 50.92"/><path class="cls-2" d="M36.86 39.57L37.89 38.69"/><path class="cls-2" d="M36.52 50.11L35.19 50.33"/><path class="cls-2" d="M22.75 45.89L21.79 44.94"/><path class="cls-2" d="M37.81 55.82L37.96 54.48"/><path class="cls-2" d="M45.14 39.17L44.05 39.98"/><path class="cls-2" d="M50.97 41.99L52.33 41.92"/><path class="cls-2" d="M48.05 53.81L48.27 55.14"/><path class="cls-2" d="M58.56 44.86L57.45 45.63"/><path class="cls-2" d="M49.29 45.42L50.13 46.48"/><path class="cls-2" d="M43.47 51.59L44.64 50.92"/><path class="cls-2" d="M56.5 39.57L57.52 38.69"/><path class="cls-2" d="M56.16 50.11L54.82 50.33"/><path class="cls-2" d="M42.39 45.89L41.43 44.94"/><path class="cls-2" d="M57.45 55.82L57.6 54.48"/><path class="cls-2" d="M64.77 39.17L63.69 39.98"/><path class="cls-2" d="M70.61 41.99L71.96 41.92"/><path class="cls-2" d="M67.68 53.81L67.9 55.14"/><path class="cls-2" d="M78.2 44.86L77.08 45.63"/><path class="cls-2" d="M68.92 45.42L69.76 46.48"/><path class="cls-2" d="M63.1 51.59L64.28 50.92"/><path class="cls-2" d="M76.13 39.57L77.16 38.69"/><path class="cls-2" d="M75.79 50.11L74.46 50.33"/><path class="cls-2" d="M62.03 45.89L61.06 44.94"/><path class="cls-2" d="M77.08 55.82L77.23 54.48"/><path class="cls-2" d="M1.94 57.39L0.86 58.2"/><path class="cls-2" d="M7.78 60.21L9.13 60.14"/><path class="cls-2" d="M4.85 72.03L5.07 73.36"/><path class="cls-2" d="M15.37 63.08L14.25 63.85"/><path class="cls-2" d="M6.09 63.64L6.93 64.7"/><path class="cls-2" d="M0.27 69.81L1.45 69.14"/><path class="cls-2" d="M13.3 57.79L14.32 56.91"/><path class="cls-2" d="M12.96 68.33L11.63 68.55"/><path class="cls-2" d="M14.25 74.04L14.4 72.7"/><path class="cls-2" d="M21.58 57.39L20.49 58.2"/><path class="cls-2" d="M27.41 60.21L28.76 60.14"/><path class="cls-2" d="M24.49 72.03L24.7 73.36"/><path class="cls-2" d="M35 63.08L33.88 63.85"/><path class="cls-2" d="M25.72 63.64L26.56 64.7"/><path class="cls-2" d="M19.9 69.81L21.08 69.14"/><path class="cls-2" d="M32.94 57.79L33.96 56.91"/><path class="cls-2" d="M32.6 68.33L31.26 68.55"/><path class="cls-2" d="M18.83 64.11L17.87 63.16"/><path class="cls-2" d="M33.88 74.04L34.03 72.7"/><path class="cls-2" d="M41.21 57.39L40.13 58.2"/><path class="cls-2" d="M47.05 60.21L48.4 60.14"/><path class="cls-2" d="M44.12 72.03L44.34 73.36"/><path class="cls-2" d="M54.64 63.08L53.52 63.85"/><path class="cls-2" d="M45.36 63.64L46.2 64.7"/><path class="cls-2" d="M39.54 69.81L40.72 69.14"/><path class="cls-2" d="M52.57 57.79L53.59 56.91"/><path class="cls-2" d="M52.23 68.33L50.9 68.55"/><path class="cls-2" d="M38.46 64.11L37.5 63.16"/><path class="cls-2" d="M53.52 74.04L53.67 72.7"/><path class="cls-2" d="M60.85 57.39L59.76 58.2"/><path class="cls-2" d="M66.68 60.21L68.03 60.14"/><path class="cls-2" d="M63.76 72.03L63.97 73.36"/><path class="cls-2" d="M74.27 63.08L73.16 63.85"/><path class="cls-2" d="M64.99 63.64L65.83 64.7"/><path class="cls-2" d="M59.17 69.81L60.35 69.14"/><path class="cls-2" d="M72.21 57.79L73.23 56.91"/><path class="cls-2" d="M71.87 68.33L70.53 68.55"/><path class="cls-2" d="M58.1 64.11L57.14 63.16"/><path class="cls-2" d="M73.16 74.04L73.3 72.7"/><path class="cls-2" d="M78.81 69.81L79.99 69.14"/><path class="cls-2" d="M77.73 64.11L76.77 63.16"/><path class="cls-2" d="M3.85 78.43L5.2 78.36"/><path class="cls-2" d="M0.92 90.25L1.14 91.58"/><path class="cls-2" d="M11.44 81.3L10.32 82.07"/><path class="cls-2" d="M2.16 81.86L3 82.92"/><path class="cls-2" d="M9.38 76.01L10.4 75.13"/><path class="cls-2" d="M9.03 86.55L7.7 86.77"/><path class="cls-2" d="M10.32 92.26L10.47 90.92"/><path class="cls-2" d="M17.65 75.61L16.57 76.42"/><path class="cls-2" d="M23.49 78.43L24.84 78.36"/><path class="cls-2" d="M20.56 90.25L20.78 91.58"/><path class="cls-2" d="M31.07 81.3L29.96 82.07"/><path class="cls-2" d="M21.8 81.86L22.64 82.92"/><path class="cls-2" d="M15.98 88.03L17.16 87.36"/><path class="cls-2" d="M29.01 76.01L30.03 75.13"/><path class="cls-2" d="M28.67 86.55L27.33 86.77"/><path class="cls-2" d="M14.9 82.33L13.94 81.38"/><path class="cls-2" d="M29.96 92.26L30.11 90.92"/><path class="cls-2" d="M37.28 75.61L36.2 76.42"/><path class="cls-2" d="M43.12 78.43L44.47 78.36"/><path class="cls-2" d="M40.19 90.25L40.41 91.58"/><path class="cls-2" d="M50.71 81.3L49.59 82.07"/><path class="cls-2" d="M41.43 81.86L42.27 82.92"/><path class="cls-2" d="M35.61 88.03L36.79 87.36"/><path class="cls-2" d="M48.65 76.01L49.67 75.13"/><path class="cls-2" d="M48.3 86.55L46.97 86.77"/><path class="cls-2" d="M34.54 82.33L33.58 81.38"/><path class="cls-2" d="M49.59 92.26L49.74 90.92"/><path class="cls-2" d="M56.92 75.61L55.83 76.42"/><path class="cls-2" d="M62.75 78.43L64.11 78.36"/><path class="cls-2" d="M59.83 90.25L60.05 91.58"/><path class="cls-2" d="M70.34 81.3L69.23 82.07"/><path class="cls-2" d="M61.07 81.86L61.91 82.92"/><path class="cls-2" d="M55.25 88.03L56.42 87.36"/><path class="cls-2" d="M68.28 76.01L69.3 75.13"/><path class="cls-2" d="M67.94 86.55L66.6 86.77"/><path class="cls-2" d="M54.17 82.33L53.21 81.38"/><path class="cls-2" d="M69.23 92.26L69.38 90.92"/><path class="cls-2" d="M76.55 75.61L75.47 76.42"/><path class="cls-2" d="M74.88 88.03L76.06 87.36"/><path class="cls-2" d="M73.81 82.33L72.84 81.38"/></pattern></defs><g id="Calque_2" data-name="Calque 2"><g id="Calque_1-2" data-name="Calque 1"><path class="cls-3" d="M27.72 42.64s0-1-3.71-4.4-5.15-7.24-.65-11.11 7.79-4.44 10.94-1.34 27.39 2.36 27.39 2.36 47.13.47 55.48.94a56.3 56.3 0 0 1 14.11 2.49s2.92-4.55 6.25-4.45 7.47 2.35 7.47 6.93-7.45 11.83-7.45 11.83 3.57 7.78 4.2 20.39 2.4 34.63 1.35 35.62-34.64 15.54-34.64 15.54-5.15 10-9.24 10.47-20.44 2-26-1.5-5.9-7.14-12.72-8.45-27.88-8.52-33.22-12.17-2.58-18.23-2.58-18.23l-.05-11.78s1.67-29.15 3.07-33.14z"/><g id="_Groupe_" data-name="&lt;Groupe&gt;"><path class="cls-4" d="M5.58 54.73c2.56-6.95 9.4-8.34 14.8-8.25-.37 1.67-8.87 40.06-1.27 58.42-5-.43-9.67-1.49-11.92-3C4.17 99.92-4.4 87 5.58 54.73z"/><path class="cls-5" d="M108.74 158.88s.29-11.07-5.13-13.22-21.55-5.66-27.24-1.17-5.4 9.85-4.19 13S78 165 82.94 165.93s21-.3 22.6-1.44 3.2-5.61 3.2-5.61z"/><path class="cls-5" d="M5.58 54.73C-4.4 87 4.17 99.92 7.19 101.93c2.25 1.48 6.93 2.54 11.92 3 1.77.17 3.56.24 5.3.24 0 0-2.58-30.78 3.31-57.68 3.18-14.61 8.86-28.09 18.83-34.88 28.3-19.29 57-9.94 65.72-5.4 13 6.75 25.65 15.56 29.46 58.61 1.93 21.63 3 32.41 1.22 44.93-2.4 17.25-5.66 51.52-34.21 48.16"/><path class="cls-5" d="M27.72 47.46a31.76 31.76 0 0 0-7.34-1c-5.4-.09-12.24 1.3-14.8 8.25"/><path class="cls-5" d="M20.39 46.42v.06c-.37 1.67-8.87 40.06-1.27 58.42"/></g><path class="cls-4" d="M161.16 47.63c4.5 5.22 8.55 18.1 8.17 33s-.05 17.85-5.61 22.9c-2.67 2.43-5.9 3.57-11.31 3.19 3.88-29.15-4.86-60.48-5.2-61.71 5.25-.37 11.52-.2 13.95 2.62z"/><path class="cls-6" d="M139 46.25a68.85 68.85 0 0 1 8.24-1.2c5.25-.41 11.52-.24 13.95 2.58 4.5 5.22 8.55 18.1 8.17 33s-.05 17.85-5.61 22.9c-2.67 2.43-5.9 3.57-11.31 3.19a59.48 59.48 0 0 1-9.54-1.6"/><path class="cls-6" d="M147.19 45c.34 1.23 9.08 32.56 5.2 61.71"/><path class="cls-7" d="M107.28 149.85s-5.94 1.55-4.18 15.65m-19.26-23.2s-6.78 4-4.86 21.4m8.57-21.5S81 146.63 83 165.27m10.53-22.21s-8.4 3.56-6.37 23.43m9.98-22.72s-8.26 2.59-6 21.71m9.98-20.67s-8.21 3.54-6.29 21m10.8-18.71s-8.34 1.15-6.42 18.58m-19.53-22.83s-6.14 4.79-4.38 18.89"/><g class="cls-8"><path class="cls-9" d="M101.64 67.71a54.61 54.61 0 0 1 2.08 6.79c1.41 5.41 2.73 10.87 4.23 16.26 1.41 5.13 3.41 10.07 4 15.45.32 3.12-1.26 7.24-2.76 10l-.08.13-1 1.67a43.77 43.77 0 0 1-5.55 8.07 5.42 5.42 0 0 1-3.35 1.83 47.43 47.43 0 0 1-8.41.63 13 13 0 0 0-1.66 0c-1.29.14-6.61-.08-7.91 0"/><path class="cls-7" d="M101.74 67.74c-.92-1.44-1.74-3-3.24-4-1.83-1.21-3.85-1.28-5.87-1.61-5.43-.91-10.83-.36-16.24-.11a6.15 6.15 0 0 0-4.56 2.55c-3.15 3.72-4 8.29-5.29 12.71-1.2 4.18-2.36 8.35-3.53 12.53s-2.56 8.31-3.43 12.55a12 12 0 0 0 .73 7.14 54.43 54.43 0 0 0 4.84 9.17c.47.72 1 1.41 1.51 2.06a35.44 35.44 0 0 0 5.12 4.84 10.2 10.2 0 0 0 2.1 1.16 14.46 14.46 0 0 0 7.53 1.85"/><path class="cls-4" d="M110.84 66.72a2.43 2.43 0 0 1-2.28 2.54 3.79 3.79 0 0 1-4.11-2.14c-1.11 1.32-2.06 2.41-1.48 4.41l-.85-2.92c.39-.53 1.88-2 1.93-2.6a3.39 3.39 0 0 1 5.4-2.66c1.21.74 1.42 2.06 1.39 3.37m-48.61 1.16a3.1 3.1 0 0 1-1.12-3.19c.6-4.12 6.9-2.95 6.9-.24 0 1.07 1 .8 2.36 2l-.37.65a6 6 0 0 0-2-1.27 2.63 2.63 0 0 1-2 2.28 4.46 4.46 0 0 1-3.73-.23"/></g><path class="cls-10" d="M27.93 41.81c-1.87-1.86-4.2-3.44-5.7-5.68s-2-4.21-.31-6.56c1.95-2.65 3.9-5 7.5-5.76 1.83-.37 3.07-.14 4.18 1.21a5.88 5.88 0 0 0 5.16 2.6c3.43-.05 6.88.09 10.33.18 6 .15 12.1.37 18.15.46 6.28.11 32.69.26 39 .48m0 0a133 133 0 0 1 16 .77 43.39 43.39 0 0 1 7.13 1.35 5.84 5.84 0 0 1 1.89.72c1.28-1 2.16-2.35 3.39-3.33a4.48 4.48 0 0 1 4.69-.77 10.17 10.17 0 0 1 4.49 2.93A6.85 6.85 0 0 1 145 35a8.44 8.44 0 0 1-2.46 6.21c-1.3 1.28-2.48 2.69-3.88 3.86a1.13 1.13 0 0 0-.42 1.35c2 5.08 6.36 20.39 9.41 46.16"/><path class="cls-10" d="M86.22 122.45c4.64 0 4.52.57 6-.48 3-2.16 5.78-5.56 8.26-8.12.93-1 2.88-2.87 2.74-4.57-.25-3.11.22-4.6 0-7.8-.18-2.19-.56-2.53-2.87-2.8-4.27-.52-8.55-1-12.85-1.24-6.26-.31-2.88-.46-9.85 0a34.43 34.43 0 0 0-5.35.26 2.4 2.4 0 0 0-2.15 2.2 55.89 55.89 0 0 0-.92 10.1 3.34 3.34 0 0 0 1.53 2.6c3.59 2.8 7.22 5.55 10.84 8.31.62.42 1.4 1.54 4.62 1.54zM28 41.67c-.72 2.77-1.56 5.53-2.14 8.32-.63 3.06-1.41 6.07-2 9.12m0 0c-.78 2.42-5 24.91-5.51 27.37a47.89 47.89 0 0 0-1.07 8.94 7.21 7.21 0 0 0 3.87 7 134.19 134.19 0 0 0 18.39 8.91c8.12 2.88 20.86 6.79 25.38 7.71"/><path class="cls-11" d="M147.65 92c.31 3.9.4 3.53 0 5.46-.3 1.35-2.18 2.62-3.34 3.27-4.89 2.71-9.76 5.45-14.94 7.68-6.57 2.84-10.51 4.2-14.9 6.16l-4.61 1.92"/><path class="cls-4" d="M20.39 46.42l7.33 1s-3.56 18.07-3.66 25.89.35 31.79.35 31.79l-6.65-.38-7.13-23.21 1.13-19z"/><path class="cls-4" d="M138.97 46.76L141.04 59.14 142.25 71.66 143.57 88.64 143.85 105.37 153.4 107.26 162.76 74.39 155.51 51.64 149.51 45.01 138.97 46.76z"/><path class="cls-12" d="M28.2 47.32C22.32 74.22 24.9 105 24.9 105c-1.74 0-3.54-.07-5.3-.23-5-.43-9.67-1.49-11.92-3-3-2-11.6-14.94-1.61-47.2.15-.4.32-.79.49-1.15.08-.16.17-.31.25-.46s.21-.41.33-.6l.3-.46c.12-.17.23-.34.35-.5l.33-.4.41-.46.33-.34c.16-.16.32-.3.49-.45l.3-.26c.21-.17.43-.33.65-.48l.19-.14c3.1-2.09 7-2.61 10.38-2.55z"/><path class="cls-13" d="M161.16 47.44c4.5 5.22 8.55 18.09 8.17 33s-.05 17.85-5.61 22.89c-4 3.61-9.11 4.38-20.85 1.6A220.47 220.47 0 0 0 139 46.05s17.65-3.84 22.16 1.39z"/><path class="cls-6" d="M142.87 105c11.74 2.78 16.88 2 20.85-1.6 5.56-5 5.23-8 5.61-22.89s-3.67-27.82-8.17-33S139 46.05 139 46.05a220.47 220.47 0 0 1 3.87 58.95z"/></g></g></svg>