<svg width="60" height="73" xmlns="http://www.w3.org/2000/svg"><g transform="rotate(3 30 74.688)" fill="none" fill-rule="evenodd"><path d="M48.092 16.363s6.41 1.415 7.928 5.244c1.264 3.187 1.826 23.165 1.98 29.764a3.405 3.405 0 0 1-1.969 3.158c-4.724 2.224-16.973 6.687-28.169-.269A3.94 3.94 0 0 1 26 50.893c.025-6.596.177-26.69 1.092-29.536 1.096-3.412 10.205-5.66 13.41-6.243 3.205-.582 7.59 1.249 7.59 1.249z" stroke="#212348" stroke-width=".882" fill="#FEFEFE" stroke-linecap="round" stroke-linejoin="round"/><path d="M38.352 8s.12 8.563-2.344 9.76c0 0-.424 3.175 4.788 3.239 5.21.063 9.758-2.222 7.696-3.239C45.775 16.422 46.841 8 46.841 8s-5.844 1.16-8.49 0" fill="#FEFEFE" fill-rule="nonzero"/><path d="M38.352 8s.12 8.563-2.344 9.76c0 0-.424 3.175 4.788 3.239 5.21.063 9.758-2.222 7.696-3.239C45.775 16.422 46.841 8 46.841 8s-5.844 1.16-8.49 0z" stroke="#212348" stroke-width=".882" stroke-linecap="round" stroke-linejoin="round"/><path d="M49 5.783C49 8.977 46.314 9 43 9c-3.313 0-6-.023-6-3.217S39.687 0 43 0c3.314 0 6 2.59 6 5.783" fill="#FEFEFE" fill-rule="nonzero"/><path d="M49 5.783C49 8.977 46.314 9 43 9c-3.313 0-6-.023-6-3.217S39.687 0 43 0c3.314 0 6 2.59 6 5.783zm7 15.805S42.995 29.643 28 21" stroke="#212348" stroke-width=".882" stroke-linecap="round" stroke-linejoin="round"/><path d="M37 45v-.441c-1.76-.11-1.855-.173-1.855-1.37V35c-.803.347-1.84.598-2.877.771v.395l.77.079c.691.062.801.094.801.897v6.047c0 1.181-.093 1.26-1.839 1.37V45h5zm3.487-3.696L44.09 45H46l-3.695-3.701 3.07-3.543h-1.692l-3.196 3.548zM39 45h1.423V34H39v11zm9.314-3.177c-.363.09-.65.229-.864.418-.214.191-.322.403-.322.635 0 .306.25.614.748.927-1.251.285-1.876.92-1.876 1.908 0 .696.318 1.253.955 1.667.636.414 1.486.622 2.554.622 1.054 0 1.898-.207 2.528-.619.63-.41.946-.963.946-1.653 0-.53-.178-.967-.535-1.316a2.266 2.266 0 0 0-.71-.475c-.264-.111-.852-.264-1.767-.46-.547-.116-.924-.228-1.133-.337-.208-.106-.312-.246-.312-.415 0-.296.278-.484.837-.562.794-.116 1.367-.271 1.716-.467a2.3 2.3 0 0 0 .856-.844c.223-.367.334-.74.334-1.12a1.86 1.86 0 0 0-.171-.816c-.113-.237-.317-.502-.61-.793H53V37h-3.078c-1.006 0-1.8.225-2.383.677-.582.451-.873 1.064-.873 1.84 0 1.062.548 1.83 1.648 2.306zm2.185-3.191c.28.252.422.569.422.95 0 .374-.139.686-.418.938-.28.25-.627.376-1.044.376-.422 0-.772-.123-1.047-.368a1.194 1.194 0 0 1-.415-.932c0-.369.142-.685.424-.95a1.44 1.44 0 0 1 1.022-.395c.422 0 .774.127 1.056.38zm.356 6.315c.455.213.683.49.683.828 0 .341-.18.608-.54.796-.36.186-.868.28-1.523.28-1.385 0-2.078-.375-2.078-1.123 0-.323.158-.587.475-.794.317-.205.723-.308 1.222-.308.719 0 1.307.106 1.761.321z" stroke="#212348" stroke-width=".5"/><path d="M26.234 22.648s7.612 1.712 9.414 6.34c1.5 3.855 2.17 28.015 2.351 35.995a4.126 4.126 0 0 1-2.337 3.819c-5.61 2.69-20.156 8.086-33.451-.325A4.79 4.79 0 0 1 0 64.405c.03-7.976.21-32.276 1.295-35.717 1.301-4.128 12.12-6.845 15.925-7.55 3.805-.704 9.014 1.51 9.014 1.51" fill="#FEFEFE" fill-rule="nonzero"/><path d="M26.234 22.648s7.612 1.712 9.414 6.34c1.5 3.855 2.17 28.015 2.351 35.995a4.126 4.126 0 0 1-2.337 3.819c-5.61 2.69-20.156 8.086-33.451-.325A4.79 4.79 0 0 1 0 64.405c.03-7.976.21-32.276 1.295-35.717 1.301-4.128 12.12-6.845 15.925-7.55 3.805-.704 9.014 1.51 9.014 1.51z" stroke="#212348" stroke-width="1.069" stroke-linecap="round" stroke-linejoin="round"/><path d="M13.894 13s.15 10.538-2.884 12.014c0 0-.522 3.906 5.891 3.984 6.413.079 12.012-2.735 9.474-3.984C23.032 23.365 24.342 13 24.342 13s-7.192 1.428-10.448 0" fill="#FEFEFE" fill-rule="nonzero"/><path d="M13.894 13s.15 10.538-2.884 12.014c0 0-.522 3.906 5.891 3.984 6.413.079 12.012-2.735 9.474-3.984C23.032 23.365 24.342 13 24.342 13s-7.192 1.428-10.448 0z" stroke="#212348" stroke-width="1.069" stroke-linecap="round" stroke-linejoin="round"/><path d="M27 10.068C27 13.972 23.642 14 19.5 14c-4.142 0-7.5-.028-7.5-3.932C12 6.163 15.358 3 19.5 3c4.142 0 7.5 3.163 7.5 7.068" fill="#FEFEFE" fill-rule="nonzero"/><path d="M27 10.068C27 13.972 23.642 14 19.5 14c-4.142 0-7.5-.028-7.5-3.932C12 6.163 15.358 3 19.5 3c4.142 0 7.5 3.163 7.5 7.068zm8 18.668S19.209 38.803 1 28" stroke="#212348" stroke-width="1.069" stroke-linecap="round" stroke-linejoin="round"/><path d="M13 57v-.53c-2.113-.132-2.227-.207-2.227-1.644V45c-.962.416-2.208.718-3.453.926v.472l.924.095c.83.076.962.114.962 1.077v7.256c0 1.418-.113 1.512-2.206 1.645V57h6zm4.699-4.369L21.818 57H24l-4.225-4.374 3.51-4.188h-1.932l-3.654 4.193zM16 57h1.627V44H16v13zm10.645-3.3c-.414.107-.744.272-.989.496-.243.225-.366.474-.366.748 0 .364.285.728.854 1.095-1.43.338-2.144 1.09-2.144 2.257 0 .823.363 1.479 1.091 1.969.726.49 1.7.735 2.919.735 1.206 0 2.17-.243 2.89-.73.721-.486 1.081-1.138 1.081-1.957 0-.623-.204-1.14-.612-1.553a2.618 2.618 0 0 0-.812-.561c-.3-.132-.973-.312-2.02-.543-.624-.137-1.055-.27-1.294-.398-.238-.128-.357-.291-.357-.49 0-.35.32-.572.956-.666.91-.137 1.564-.321 1.963-.552.399-.23.726-.563.98-.996.253-.434.38-.876.38-1.325 0-.36-.065-.683-.195-.963-.13-.281-.363-.594-.696-.936H32V48h-3.518c-1.15 0-2.058.267-2.724.801-.664.533-.997 1.259-.997 2.176 0 1.253.628 2.162 1.884 2.723zm2.496-3.771c.322.3.484.673.484 1.123 0 .443-.16.812-.48 1.108-.317.297-.716.444-1.19.444-.484 0-.883-.143-1.198-.434a1.428 1.428 0 0 1-.474-1.1c0-.436.161-.81.482-1.123a1.62 1.62 0 0 1 1.17-.469c.483 0 .885.15 1.206.45zm.408 7.463c.52.253.78.58.78.979 0 .404-.205.718-.616.94-.412.22-.993.332-1.74.332-1.585 0-2.376-.443-2.376-1.33 0-.38.18-.692.542-.935.362-.244.827-.365 1.398-.365.822 0 1.493.126 2.012.38z" stroke="#212348" stroke-width=".534"/></g></svg>