<svg viewBox="0 0 142.2 26.9" xmlns="http://www.w3.org/2000/svg"><path d="m120.2 26.4.1-.7c.1-.6.1-1.2.1-1.8.1-2 .3-3.9.8-5.8.5-1.7.5-1.7-1-2.4-1.1-.5-2.2-1.1-3.4-1.4-.5-.1-1.8-.4-1.8-1.5 0-1 1-1.2 1.4-1.2.1 0 .3 0 .4-.1 1.7-.5 3.5-.8 5-1.2.5-.1.7-.3.8-.9.3-1.6.8-3.2 1.3-4.7s1-2.8 1.2-4.3l.1-.3.3-.1c.9-.2 1.1.4 1.2.7l.9 2.1c.8 1.9 1.7 3.8 2.5 5.7.3.6.5.9 1.2 1 1.6.3 3.1.4 4.5.3h.5c.3 0 .7 0 1.2.3l.5.3-.4.5c-.6.7-1.2.9-1.7 1.1-.1 0-.2.1-.4.1-1 .4-2 .9-3.3 1.7-.2.1-.2.1-.1.4.3.7.6 1.5 1 2.2.3.6.5 1.3.8 1.9.4.8.8 1.6 1.6 2 .7.4.7.9.5 1.3s-.6.5-.7.5c-.2 0-.4-.1-.6-.2-1.6-.9-3.3-1.5-5-2-.5-.2-.9-.3-1.4-.5-.2-.1-.3-.1-.4-.1-.2 0-.4.1-.7.5-.7.8-1.4 1.5-2.1 2.3-1.1 1.1-2.2 2.2-3.1 3.5-.2.3-.5.7-1.1.8zm-24.3-.1h-.3l-.2-.1c-.5-.4-.4-1-.3-1.2.5-1.5.7-3.1 1-4.7.1-.5.2-1.1.3-1.6l.1-.4c.2-.8.2-.8-.8-1.1l-1.8-.6c-.8-.3-1.6-.6-2.5-.7-.5-.1-1.1-.2-1.6-1l-.2-.4.4-.2c.8-.5 1.6-.8 2.6-1.1l1.1-.4c1.1-.4 2.2-.8 3.3-1.1.4-.1.5-.3.7-1 .3-1.9.7-3.8 1.1-5.6l.4-2c0-.2.2-.8.9-.9h.2c.6.2.7.7.8 1.1 0 .1 0 .1.1.2.5 1.7 1 3.5 1.5 5.6.3 1.2.3 1.2.7 1.2h.7c.8-.1 1.6-.1 2.4-.2 1.5-.2 3.1-.3 4.6-.3h.3l.1.3c.4.8-.1 1.2-.3 1.4l-.1.1c-.6.7-1.4 1.3-2.1 1.8-.6.5-1.2.9-1.7 1.4l-.3.3-.6.6c-.3.2-.3.3-.1.6.2.4.4.8.5 1.2.6 1.3 1.1 2.6 1.9 3.6.3.4.5.8.5 1.6v.5l-.5-.1c-1.3-.1-2.5-.3-3.6-1-.6-.4-1.3-.6-2-.8-.5-.2-1-.3-1.5-.5-.1 0-.2 0-.3.2-.6.8-1.4 1.4-2.1 2.1-.8.8-1.6 1.6-2.3 2.5-.3.4-.6.7-1 .7zm-85.8 0h-.3l-.2-.1c-.5-.4-.4-1-.3-1.2.5-1.5.7-3.1 1-4.7.1-.5.2-1.1.3-1.6l.1-.4c.2-.8.2-.8-.8-1.1l-1.8-.6c-.8-.3-1.6-.6-2.5-.7-.5-.1-1.1-.2-1.6-1l-.2-.4.4-.2c.8-.5 1.6-.8 2.6-1.1l1.2-.5c1.1-.4 2.2-.8 3.3-1.1.4-.1.5-.3.7-1 .3-1.9.7-3.8 1.1-5.6l.4-2c0-.2.2-.8.9-.9h.2c.6.2.7.7.8 1.1 0 .1 0 .1.1.2.5 1.7 1 3.5 1.5 5.6.3 1.2.3 1.2.7 1.2h.7c.8-.1 1.6-.1 2.4-.2 1.5-.2 3.1-.3 4.6-.3h.3l.1.3c.4.8-.1 1.2-.3 1.4l-.1.1c-.6.7-1.4 1.3-2.1 1.8-.6.5-1.2.9-1.7 1.4l-.3.3-.6.6c-.3.2-.3.3-.1.6.2.4.4.8.5 1.2.6 1.3 1.1 2.6 1.9 3.6.3.4.5.8.5 1.6v.5l-.5-.1c-1.3-.1-2.5-.3-3.6-1-.6-.4-1.3-.6-2-.8-.5-.2-1-.3-1.5-.5-.1 0-.2 0-.3.2-.6.8-1.4 1.4-2.1 2.1-.8.8-1.6 1.6-2.3 2.5-.4.5-.6.8-1.1.8zm26.5.1.1-.7c.1-.6.1-1.2.1-1.8.1-2 .3-3.9.8-5.8.5-1.7.5-1.7-1-2.4-1.1-.5-2.2-1.1-3.4-1.4-.5-.1-1.8-.4-1.8-1.5 0-1 1-1.2 1.4-1.2.1 0 .3 0 .4-.1 1.7-.5 3.5-.8 5-1.2.5-.1.7-.3.8-.9.3-1.6.8-3.2 1.3-4.7s1-2.8 1.2-4.3l.1-.3h.4c.9-.2 1.1.4 1.2.7l.9 2.1c.8 1.9 1.7 3.8 2.5 5.7.3.6.5.9 1.2 1 1.6.3 3.1.4 4.5.3h.5c.3 0 .7 0 1.2.3l.5.3-.5.4c-.6.7-1.2.9-1.7 1.1-.1 0-.2.1-.4.1-1 .4-2 .9-3.3 1.7-.2.1-.2.1-.1.4.3.7.6 1.5 1 2.2.3.6.5 1.3.8 1.9.4.8.8 1.6 1.6 2 .7.4.7.9.5 1.3s-.6.5-.7.5c-.2 0-.4-.1-.6-.2-1.6-.9-3.3-1.5-5-2-.5-.2-.9-.3-1.4-.5-.2-.1-.3-.1-.4-.1-.2 0-.4.1-.7.5-.7.8-1.4 1.5-2.1 2.3-1.1 1.1-2.2 2.2-3.1 3.5-.2.3-.5.7-1.1.8zm42.6.5-1.1-1.4c-1.6-2.1-2.9-4.2-4.2-6.6l-6.3 5.7-.6.5-.2-.8c-.3-.8-.1-1.5.1-2l.3-1.2c.3-1.1.6-2.2.9-3.4.2-.6.1-1-.2-1.7-.5-1.1-1.4-1.8-2.2-2.6-.7-.7-1.4-1.3-2-2.2l-.3-.3c-.3-.3-.6-.7-.7-1.3v-.2l.1-.2c.2-.3.6-.5 1-.5h.1c.7.1 1.4.1 2.1.2 1.4.1 2.8.1 4.1.7.2.1.3.1.4.1s.3 0 .6-.6c.8-1.6 1.6-3.2 2.4-4.7l.4-.7c0-.1.1-.2.1-.3.1-.3.3-.6.5-.8.1-.7.4-1.2.8-1.7l.8-.9.4.7c.4.6.4 1.3.5 1.8v.3l.2 1.6c.2 1.6.3 3.1.4 4.7 0 .4.1.5.5.6l1 .2c1.2.2 2.3.4 3.5.6h.1c.8.1 1.6.3 2.5.7l.5.3-.4.5c-.8 1.1-1.8 1.5-2.9 1.9-.7.2-1.4.6-2.1 1-.8.4-1.7.9-2.6 1.2v.3c.4 2.8.7 5.5 1 8.8z" fill="#fab200"/></svg>