<svg width="138" height="105" xmlns="http://www.w3.org/2000/svg" xmlns:xlink="http://www.w3.org/1999/xlink"><defs><path id="a" d="M0.219124838 0.184775484L125.90128 0.184775484 125.90128 4.73077886 0.219124838 4.73077886z"/></defs><g transform="translate(0 2)" fill="none" fill-rule="evenodd"><path d="M8 78.388l-.038.109c-.08-.028-.36-.094-.49-.083.081.179-.072.337-.237.424-.232.12-.475.192-.764.15a.548.548 0 0 1-.455-.4c-.179-.618 1.168-.76 1.364-.373.077.152.254.065.62.173" fill="#FEFEFE"/><path fill="#FEFEFE" d="M89.4517793 22.9588763L95 40.199639 22.9454616 67 11 24.1059965 68.2514183 4z"/><path d="M62.054 8.736a119.627 119.627 0 0 0 6.002-2.335c5.42 4.32 10.133 8.387 17.856 14.387-2.474.664-14.861 4.799-18.078 5.939-1.862-5.468-3.892-13.063-5.78-17.99M24.332 81.42c1.967-1.55 6.377-2.888 8.6-3.673l23.486-8.317c13.23-2.064 34.296-13.481 46.576-15.246l22.304-8.528c3.597-.415 4.041-1.433 7.001-2.479 0 0-6.687-20.035-9.132-25.108-2.128-4.411-8.196-6.526-14.189-4.44-8.556 2.987-16.908 5.455-16.908 5.455C86.24 12.317 74.57 5.384 68.452.241 52.244 2.97 13.537 18.698 4.967 21.215c-.02 8.307 16.618 51.336 19.365 60.205" fill="#202446"/><path d="M62.054 8.736a119.627 119.627 0 0 0 6.002-2.335c5.42 4.32 10.133 8.387 17.856 14.387-2.474.664-14.861 4.799-18.078 5.939-1.862-5.468-3.892-13.063-5.78-17.99zM24.332 81.42c1.967-1.55 6.377-2.888 8.6-3.673l23.486-8.317c13.23-2.064 34.296-13.481 46.576-15.246l22.304-8.528c3.597-.415 4.041-1.433 7.001-2.479 0 0-6.687-20.035-9.132-25.108-2.128-4.411-8.196-6.526-14.189-4.44-8.556 2.987-16.908 5.455-16.908 5.455C86.24 12.317 74.57 5.384 68.452.241 52.244 2.97 13.537 18.698 4.967 21.215c-.02 8.307 16.618 51.336 19.365 60.205z" stroke="#FEFEFE" stroke-width="2.856" stroke-linecap="round" stroke-linejoin="round"/><path d="M56.207 70.463c1.457 6.82-2.536 13.48-8.919 14.877-6.382 1.396-12.738-3-14.195-9.82-1.458-6.821 2.536-13.482 8.918-14.878 6.383-1.396 12.74 3 14.196 9.82" fill="#FEFEFE"/><path d="M56.207 70.463c1.457 6.82-2.536 13.48-8.919 14.877-6.382 1.396-12.738-3-14.195-9.82-1.458-6.821 2.536-13.482 8.918-14.878 6.383-1.396 12.74 3 14.196 9.82z" stroke="#202348" stroke-width="4" stroke-linecap="round" stroke-linejoin="round"/><path d="M125.638 47.615c1.457 6.82-2.536 13.48-8.919 14.877-6.383 1.396-12.738-3-14.195-9.82-1.458-6.82 2.535-13.482 8.918-14.878 6.383-1.396 12.739 3 14.196 9.82" fill="#FEFEFE"/><path d="M125.638 47.615c1.457 6.82-2.536 13.48-8.919 14.877-6.383 1.396-12.738-3-14.195-9.82-1.458-6.82 2.535-13.482 8.918-14.878 6.383-1.396 12.739 3 14.196 9.82z" stroke="#202348" stroke-width="4" stroke-linecap="round" stroke-linejoin="round"/><path d="M117.692 49.59c.408 1.906-.76 3.78-2.605 4.183-1.848.405-3.674-.814-4.081-2.72-.408-1.91.757-3.783 2.605-4.187 1.845-.403 3.673.815 4.081 2.724zM48.088 72.092c.407 1.907-.756 3.78-2.606 4.184-1.843.403-3.67-.815-4.078-2.722-.408-1.908.76-3.782 2.602-4.185 1.85-.405 3.674.814 4.082 2.723z" stroke="#202348" stroke-width="4" stroke-linecap="round" stroke-linejoin="round"/><path fill="#F8B100" d="M48.6522805 5.68223397L69.8515592 66.1308773 75.4098093 63.5181882 54.0905206 3.90574736z"/><path d="M9.409 18.712L30.608 79.16l2.533-.828c-1.758-3.61-.308-9.938.046-10.112l-18.34-51.286-5.438 1.777z" fill="#F8B100"/><path stroke="#202446" stroke-linecap="round" stroke-linejoin="round" d="M13.8207359 18.2109985L11.7466689 22.6171268 15.7931062 24.7133495 14.3950689 29.3130542 18.5100832 30.6613862 16.9176144 36.25657 21.4425326 37.4712516 18.8603718 42.6650897 23.5676427 44.130908 21.15108 48.5626626 25.3931177 49.8522515 23.6334923 56.019885 28.0925609 56.8418945 25.9136801 62.5249958 30.5765317 64.6267379 28.0177495 68.155662 31.7080535 69.643164 29.9001124 74.3765191 32.457336 76.0406447"/><path stroke="#202446" stroke-linecap="round" stroke-linejoin="round" d="M53.2290601 5.26835123L51.6689315 9.57552306 55.7126413 11.9832025 53.2859479 16.7808203 58.5176775 19.4904946 56.027862 24.4123009 61.4041491 27.0403656 59.418531 33.0057493 63.978517 35.1070972 62.4444945 40.9936311 67.0827987 43.552308 64.8571608 48.7674356 69.3442837 50.640119 67.6399874 56.4202056 72.0187897 58.1659408 69.9225131 62.7175471 74.2132562 63.3333642"/><path d="M46.356 37.41c.01-.07.022-.149.031-.233.083-.67.114-1.73-.128-2.254-.474-1.02-1.188-1.855-1.805-2.767-.65-.96-1.271-1.942-1.907-2.91-.364-.553-.75-1.098-.857-1.195" stroke="#FEFEFE" stroke-width=".716" stroke-linecap="round"/><path d="M52.092 29.759c.32.733.314.654.368 1.054.035.281-.232.652-.407.855-.736.852-1.465 1.708-2.286 2.486-1.043.99-1.691 1.517-2.383 2.189-.155.15-.412.347-.908.844m-6.598-17.132c1.043-.413 2.001-.644 3.096-.933.42-.113.987-.184 1.442-.218.128-.01.254-.027.41.013.173-.286.248-.607.416-.882.202-.327.468-.481.836-.469.37.009.733.074 1.051.272.295.185.422.508.53.814.156.46.169.928-.043 1.384-.16.338-.287.695-.473 1.02-.073.13-.041.23.013.291.718.864 2.598 3.568 4.936 8.412m-26.168-1.847c-.483-.238-1.033-.389-1.47-.727-.428-.335-.675-.687-.506-1.266.188-.65.395-1.252 1.028-1.636.323-.196.572-.234.875-.046.362.225.679.342 1.157.162.647-.242 1.312-.45 1.971-.663 1.158-.38 2.32-.747 3.475-1.138 1.197-.403 6.217-2.16 7.424-2.543" stroke="#FEFEFE" stroke-width="1.075" stroke-linecap="round"/><path d="M42.013 41.375c.238-.106 1.254-.42 1.486-.533.095-.045.206-.082.312-.117a9.044 9.044 0 0 0 1.539-.687c.25-.14.409-.331.504-.584.25-.66.388-1.35.502-2.044m-4.666-9.359c-.272-.22-.536-.476-.885-.568-.43-.113-.816.01-1.22.08-1.087.186-2.07.66-3.075 1.072-.355.145-.549.43-.687.808-.34.944-.193 1.901-.13 2.855.06.901.127 1.8.192 2.699.066.902.084 1.805.211 2.697.072.487.27.964.626 1.355.456.508.982 1.051 1.54 1.475.14.11.284.21.429.302.336.192.974.527 1.297.606.113.053.315.065.477.088.544.081 1.058.063 1.548-.145" stroke="#FEFEFE" stroke-width=".716" stroke-linecap="round"/><path d="M26.334 31.614c.018.527.753 5.227.828 5.742.091.617.204 1.232.409 1.827.207.612.547.976 1.21 1.113 1.388.287 3.198.498 4.09.51 1.735.016 4.413-.077 5.331-.201M25.924 27.912c.052.593.083 1.19.163 1.778.09.642.15 1.285.247 1.924m16.133 8.219c.88-.314.895-.193 1.1-.497.426-.628.714-1.483 1.008-2.15.111-.253.349-.76.206-1.083-.26-.593-.272-.918-.54-1.529-.185-.416-.279-.458-.734-.355-.844.187-1.69.375-2.517.625-1.206.361-.576.104-1.866.657-.328.14-.681.212-.997.412-.244.156-.3.328-.255.576.12.693.286 1.374.527 2.037.086.23.265.336.467.408.87.307 1.746.602 2.619.899.15.05.364.22.982 0z" stroke="#FEFEFE" stroke-width="1.075" stroke-linecap="round"/><path d="M42.878 26.62c.283.064.413.312.498.572.09.264.013.513-.26.658-.32.168-.618.128-.931-.144-.12.336-.226.617.021.972l-.361-.521c.037-.13.218-.527.188-.642-.144-.59.276-1.024.845-.894m-7.23 3.273l-.035.15c-.076-.039-.342-.13-.467-.115.078.248-.068.467-.225.586-.22.166-.452.266-.726.208-.258-.058-.383-.315-.433-.552-.17-.855 1.111-1.052 1.297-.516.074.21.242.09.59.239" fill="#FEFEFE"/><g transform="translate(11.3 98.168)"><mask id="b" fill="#fff"><use xlink:href="#a"/></mask><path d="M.594.974a2000.151 2000.151 0 0 0 97.368 3.602c9.187.114 18.375.164 27.563.153.501 0 .502-.789 0-.788-32.481.037-64.962-.708-97.408-2.254C18.94 1.25 9.765.747.594.186c-.5-.031-.499.757 0 .788" fill="#202446" mask="url(#b)"/></g><path d="M26.215 92.41A302.596 302.596 0 0 0 .484 84.373c-.486-.128-.693.632-.207.76a302.632 302.632 0 0 1 25.73 8.037c.474.171.678-.59.208-.76m-2.512-4.747a105.542 105.542 0 0 1-19.867-14.7c-.368-.346-.92.21-.551.557a106.414 106.414 0 0 0 20.024 14.824c.437.25.83-.431.394-.681" fill="#202446"/></g></svg>