<svg height="15" width="119" xmlns="http://www.w3.org/2000/svg"><clipPath id="a"><path d="M2.174.25h114.652v14.499H2.174z"/></clipPath><path d="M102.098 14.221L109.194.78m7.102 13.441L109.193.78m-7.095 13.441L94.995.779m-7.096 13.442L94.995.78M73.697 14.221L80.799.78m7.1 13.441L80.799.779m-7.102 13.442L66.6.779m-7.1 13.442L66.6.78M45.301 14.221L52.401.78M59.5 14.221L52.401.779m-7.1 13.442L38.201.78M31.1 14.221L38.202.78M16.901 14.221L24.003.78M31.1 14.221L24.003.779m-7.102 13.442L9.804.779m-7.1 13.442L9.804.78" fill="none" stroke="#f8b019" stroke-width="1.059" stroke-linecap="round" stroke-miterlimit="10" clip-path="url(#a)"/></svg>