<svg width="570" height="87" xmlns="http://www.w3.org/2000/svg"><g transform="translate(1 1)" fill="none" fill-rule="evenodd"><g transform="translate(230 13)"><path d="M0 32.536c2.995 1.171 6.5-.69 8.224-3.38 1.726-2.69 2.106-5.987 2.444-9.156-.242 2.934.267 8.7.996 11.553.395 1.544 1.485 3.396 3.059 3.058.641-.138 1.138-.629 1.559-1.128 2.268-2.696 3.126-9.104 2.769-12.594a26.05 26.05 0 0 0-.315 9.091c.157 1.1.943 3.842 1.887 4.443.96.612 2.288.345 3.191-.343.904-.69 1.47-1.716 1.977-2.728 1.333-2.664.736-8.453 2.783-9.83 2.17 3.739 2.441 8.85 2.172 13.153.67-3.399 1.042-7.288 2.07-10.598.153-.495.333-1.022.753-1.331.733-.54 1.851-.112 2.368.635.515.746.602 1.692.716 2.59.347 2.71 1.072 7.23 3.526 8.484 2.097 1.072 4.831.493 6.539-1.12 1.706-1.614 2.681-5.648 2.45-7.971-.117-1.19-.645-2.539-1.812-2.842-1.114-.289-2.269.61-2.624 1.694s-.105 2.266.24 3.353c.843 2.64 2.405 5.248 4.944 6.413s6.124.27 7.084-2.33m19 2.987c5.164-.525 9.728-4.645 10.68-9.639-.505 5.586-.39 11.207-.276 16.815L87 71l-.01-1.037M88 28.188c1.043-.629 1.881-1.568 2.875-2.279.994-.71 2.275-1.187 3.395-.729 1.322.542 1.923 2.158 2.091 3.636.17 1.477.067 3.027.627 4.395.663 1.62 2.28 2.759 3.963 2.788 1.68.03 3.334-1.052 4.049-2.647m9.615-7.942c-2.177-3.26-5.658-2.647-7.17-1.44-1.512 1.205-2.26 3.197-2.417 5.15-.12 1.5.12 3.13 1.121 4.235.833.916 2.065 1.335 3.27 1.54.867.147 1.8.192 2.581-.219.858-.45 1.378-1.366 1.758-2.27a14.785 14.785 0 0 0 1.013-7.635c-.183 1.838-.258 3.742.337 5.488.594 1.745 1.99 3.312 3.78 3.596 1.787.285 2.115-1.854 2.112-3.702" stroke="#202446" stroke-width="2.4" stroke-linecap="round" stroke-linejoin="round"/><path d="M132.401 23.117c-4.992-2.412-7.995-.445-9.63 1.445-1.634 1.89-2.198 4.643-1.437 7.02.28.878.772 1.746 1.584 2.188.653.354 1.427.39 2.171.415 1.655.058 3.432.074 4.808-.843 1.721-1.147 2.288-3.39 2.497-5.442.168-1.643.193-3.301.074-4.95.344 9.878.283 19.764.222 29.646-.016 2.636-.035 5.3-.652 7.864-.4 1.662-1.096 3.33-2.398 4.441-1.304 1.112-3.327 1.513-4.762.576-1.67-1.09-1.939-3.409-1.795-5.393.403-5.584 2.795-11.006 6.648-15.079 3.008-3.177 6.8-5.491 10.157-8.297 3.36-2.805 6.42-6.372 7.104-10.687.318-2.001-.325-4.584-2.319-4.976-1.605-.317-3.108 1.093-3.619 2.642-.563 1.71-.293 3.58.184 5.316.448 1.634 1.107 3.271 2.324 4.455 1.566 1.524 3.937 2.095 6.083 1.669 2.145-.426 4.049-1.774 5.355-3.524m16-1.723c.616-2.441 3.227-3.812 5.684-4.306 2.457-.494 5.059-.436 7.355-1.442.37-.161.739-.36.989-.677.397-.505.411-1.24.165-1.835-.556-1.338-2.284-1.92-3.655-1.47-1.371.45-2.362 1.712-2.832 3.083-.47 1.37-.491 2.851-.458 4.3.04 1.662.172 3.406 1.073 4.8 1.482 2.295 5.052 2.846 7.152 1.105 3.095-2.565 2.254-8.084 5.415-10.567 1.8-1.413 4.45-1.326 6.482-.277.908.467 1.753 1.137 2.204 2.058.45.923.46 1.996.4 3.022-.126 2.21-.605 4.56-2.187 6.1-1.582 1.539-4.554 1.752-5.804-.07m14.933-11.79c-1.917-.155-3.79 1.03-4.806 2.693-1.015 1.664-1.26 3.723-1.03 5.668.099.841.297 1.706.816 2.368.538.686 1.359 1.074 2.173 1.362a13.988 13.988 0 0 0 7.144.573c.976-.177 1.962-.473 2.74-1.1 1.163-.94 1.69-2.472 1.993-3.953.553-2.706.544-5.495.533-8.259a48.058 48.058 0 0 0 .44 7.674c.22 1.606.607 3.347 1.865 4.341.661.523 1.5.774 2.336.833 1.887.135 3.756-.671 5.221-1.89 1.465-1.22 2.572-2.825 3.54-4.48 1.238-2.117 2.299-4.414 2.519-6.867.127-1.43-.098-3.016-1.127-3.997-1.03-.981-3.021-.903-3.596.409-.397.909.01 1.987.617 2.767 1.788 2.301 4.904 2.879 7.62 3.865a21.69 21.69 0 0 1 4.92 2.54c1.731 1.196 3.428 2.947 3.345 5.075-.082 2.117-2.31 3.877-4.331 3.379-2.02-.498-3.203-3.172-2.185-5.017.416-.754 1.1-1.316 1.815-1.78 2.024-1.31 4.385-1.955 6.583-2.936 2.197-.98 4.367-2.45 5.278-4.71.539-1.338.584-2.82.62-4.266L253.35 1c.251 7.793.503 15.586.756 23.378.1 3.072.41 6.578 2.828 8.415 1.975 1.5 4.792 1.203 9.067-2.308M244 9.299c5.998.219 12 .353 18 .402" stroke="#202446" stroke-width="2.4" stroke-linecap="round" stroke-linejoin="round"/><path d="M217.5 16c1.998 0 2.002-3 0-3-1.998 0-2.002 3 0 3" fill="#202446"/><path d="M276.08 19.835c-7.223-2.794-9.818 2.685-10.067 7.19-.09 1.61.296 3.29 1.313 4.537 1.017 1.246 2.725 1.97 4.28 1.578 1.386-.35 2.46-1.507 3.069-2.807.61-1.3.824-2.747 1.031-4.169l.902-6.175a22.087 22.087 0 0 0-.08 9.79c.315 1.422.955 3.007 2.34 3.432 1.211.37 2.537-.358 3.275-1.392.739-1.034 1.026-2.315 1.325-3.551a83.374 83.374 0 0 1 2.07-7.136c.349-1.024 1-2.24 2.073-2.165.734.052 1.264.722 1.59 1.384.666 1.35.884 2.87 1.086 4.362.417 3.091.8 6.187 1.152 9.287a55.974 55.974 0 0 1 3.356-13.213c.274-.709.661-1.5 1.396-1.68.75-.185 1.486.377 1.93 1.012 1.294 1.844 1.161 4.29 1.27 6.546.11 2.254.763 4.836 2.804 5.777 1.627.751 3.632.116 4.943-1.111 1.312-1.228 2.06-2.937 2.668-4.63 3.044-8.479 2.163-17.694 2.533-26.701-1.601 9.13-1.243 18.425-1.478 27.693-.038 1.49.017 3.17 1.096 4.193.508.48 1.18.744 1.854.928 2.817.77 5.898.287 8.498-1.05 2.6-1.337 4.735-3.483 6.333-5.942.955-1.47 1.753-3.183 1.52-4.923-.233-1.741-1.873-3.371-3.583-3.007-1.05.223-1.858 1.125-2.256 2.129-.4 1.003-.457 2.106-.495 3.186-.08 2.315-.03 4.831 1.387 6.658 1.307 1.685 3.562 2.41 5.687 2.326 2.122-.083 4.153-.867 6.098-1.73M308 8.648c4.522.17 7.463-.652 12-.162" stroke="#202446" stroke-width="2.4" stroke-linecap="round" stroke-linejoin="round"/></g><path d="M4.705.098c.083 4.014 1.979 8.01 5.204 10.398 3.226 2.388 7.752 3.011 11.4 1.338 3.649-1.672 6.17-5.674 5.85-9.675-.02-.234-.053-.482-.21-.656-.282-.316-.791-.226-1.197-.099-7.788 2.44-13.552 9.02-17.956 15.89-3.45 5.38-6.37 11.233-7.391 17.54-.505 3.117-.505 6.452.93 9.264 1.437 2.811 4.615 4.903 7.709 4.282 2.582-.518 4.578-2.838 5.148-5.409.569-2.57-.128-5.304-1.46-7.575m2.376 7.969c2.988.559 4.199 1.023 6.594-.85.379-.295.719-.642 1.129-.893 1.03-.635 2.346-.577 3.459-1.053 1.857-.792 2.645-3.922 1.849-5.777-.168-.391-.411-.765-.765-1.001-.648-.435-1.547-.318-2.215.086-.668.403-1.154 1.043-1.611 1.675-1.072 1.483-1.92 3.76-2.423 5.52-.506 1.76-.427 3.767.595 5.284a4.924 4.924 0 0 0 3.877 2.134c1.53.043 4.56-2.367 5.486-3.588m7.4-10.107c-1.866-.742-4.086.172-5.361 1.724-1.274 1.552-2.04 4.477-2.016 6.782.035 3.551 3.862 5.264 5.464 4.52 2.079-.963 2.6-1.672 4.194-3.318 1.229-1.27 1.652-9.027 1.893-9.027.372.001-1.373 7.505-.436 9.4 1.11 2.243 4.03 3.264 6.5 2.86m25.594-8.92c2.849.419 3.562-2.436 4.039-3.862.446-1.334 1.616-1.497 2.298-1.227.673.267 1.06.966 1.335 1.635.835 2.03 1.066 10.95.794 13.129-.025-1.546.165-3.675.275-5.877.137-2.745 1.182-7.588 1.83-8.6.824-1.285 2.264-1.225 3.295-.607 1.115.668 1.051 7.862 1.007 9.16-.044 1.3.08 2.438.621 3.62.756 1.65 3.085 2.332 4.61 1.349m7.498-21.068c.064 1.328.001 3.495-2.112 4.888m6.865 15.469c1.767-.15 3.851-3.23 5.49-3.905 1.638-.677 4.214-1.888 5.31-3.281 1.19-1.51 1.007-3.797.138-4.988-.891-1.22-3.675-1.004-4.837-.04-1.163.964-1.497 2.615-1.455 4.124.064 2.29 1.185 6.158 2.859 7.724 1.675 1.564 3.945 1.474 6.041.549 3.391-1.497 4.261-7.69 4.607-11.38.183-1.953-1.19-2.563-2.009-1.521-.737 1.368 1.157 1.885 2.28 2.29 4.007 1.452 6.039 4.495 7.044 8.638.163.673.266 1.41-.034 2.035-.679 1.416-3.063 1.09-3.795-.3-.731-1.388-.173-3.141.786-4.384.958-1.244 3.048-2.031 4.393-2.975 4.181-2.937 3.356-14.356 3.356-14.356-.183 6.607.1 9.376.877 14.065.322 1.942.836 7.82 2.589 8.718 2.04 1.044 4.874-.953 4.577-3.226m-12.212-14.649c3.418-.38 6.847-.67 10.281-.868m16.826 19.106c2.746-.048 5.44-1.405 7.112-3.583 1.673-2.178 1.792-8.888 1.13-11.553 1.168 10.09 2.177 24.014 2.029 34.17m-.713-30.617a7.924 7.924 0 0 1 2.877-2.91c.492-.286 1.073-.525 1.618-.361.94.285 1.153 1.49 1.252 2.467.153 1.518.433 6.082.836 7.554.253.926.566 3.317 1.16 4.07.596.755 1.525 1.305 2.48 1.218.957-.087 1.689-1.042 2.023-2.153" stroke="#1A3151" stroke-width="2.197" stroke-linecap="round" stroke-linejoin="round"/><path d="M190.67 36.02c-2.162-1.785-5.607-.971-6.689-.362-1.082.608-2.667 1.89-3.07 3.569-.375 1.567-.14 5.546.53 7.01.67 1.466 3.199 2.337 4.798 2.14 1.825-.221 3.277-1.883 4.1-3.527 1.14-2.276.112-9.42.263-11.252.068 2.135.724 10.02 1.568 11.982.402.935.927 1.878 1.795 2.41 1.451.892 3.444.317 4.657-.877 1.213-1.196 1.819-2.862 2.341-4.483.396-1.225.725-6.554.759-7.841.046-1.724-1.976-1.884-3.251-1.707-1.28 2.393 2.076 2.61 3.192 2.985 3.152 1.057 8.34 4.829 9.838 7.798.613 1.215.307 4.37-1.904 4.964-1.513.406-3.572-1.2-3.664-2.613-.093-1.414.712-2.784 1.839-3.643 1.127-.86 3.699-2.227 5.102-2.43" stroke="#1A3151" stroke-width="2.197" stroke-linecap="round" stroke-linejoin="round"/><path d="M44.579 28.108a1.007 1.007 0 1 0-2.015 0 1.007 1.007 0 0 0 2.015 0" fill="#1A3151"/><text font-family="GillSansStd-Light, Gill Sans Std" font-size="20" font-weight="300" fill="#B9B9B9"><tspan x="399" y="73">(incroyable mais vrai)</tspan></text></g></svg>