<svg width="305" height="120" xmlns="http://www.w3.org/2000/svg"><g transform="translate(2 1)" fill="none" fill-rule="evenodd"><text font-family="GillSansStd-Light, Gill Sans Std" font-size="20" font-weight="300" fill="#B9B9B9"><tspan x="138" y="108">(incroyable mais vrai)</tspan></text><g transform="translate(0 54)"><path d="M0 28.865c2.68 1.015 5.815-.6 7.359-2.93C8.902 23.603 9.243 20.746 9.545 18c-.217 2.542.239 7.54.89 10.012.354 1.34 1.33 2.944 2.738 2.651.574-.12 1.018-.545 1.395-.978 2.03-2.336 2.797-7.89 2.478-10.915a21.882 21.882 0 0 0-.282 7.88c.14.953.844 3.329 1.689 3.85.857.53 2.046.3 2.855-.297.808-.598 1.315-1.488 1.768-2.365 1.192-2.308.659-7.325 2.49-8.518 1.942 3.24 2.185 7.67 1.943 11.399.6-2.946.933-6.317 1.853-9.186.137-.429.298-.886.674-1.153.655-.469 1.656-.097 2.118.55.46.647.538 1.467.641 2.244.31 2.349.959 6.267 3.154 7.353 1.877.93 4.323.428 5.85-.97 1.528-1.4 2.4-4.895 2.193-6.908-.105-1.03-.577-2.2-1.621-2.463-.997-.25-2.03.528-2.348 1.468-.318.94-.094 1.964.216 2.906.753 2.288 2.151 4.548 4.423 5.558 2.271 1.01 5.479.234 6.338-2.02m16 2.494c4.695-.469 8.844-4.14 9.709-8.592-.46 4.98-.355 9.989-.25 14.987L77 63l-.009-.924M78 24.898c.92-.571 1.66-1.425 2.537-2.072.877-.645 2.007-1.078 2.995-.662 1.167.492 1.697 1.961 1.846 3.305.15 1.343.058 2.752.553 3.996.584 1.473 2.012 2.508 3.496 2.534 1.483.027 2.943-.956 3.573-2.407m8.413-7.383c-1.905-2.988-4.95-2.427-6.274-1.32-1.323 1.105-1.978 2.93-2.114 4.72-.105 1.377.104 2.871.98 3.883.729.84 1.807 1.224 2.862 1.412.758.134 1.574.176 2.258-.2.75-.413 1.206-1.253 1.538-2.083a14.144 14.144 0 0 0 .887-6.998c-.16 1.686-.226 3.43.294 5.03s1.742 3.037 3.307 3.298c1.565.26 1.852-1.7 1.849-3.394" stroke="#202446" stroke-width="2.4" stroke-linecap="round" stroke-linejoin="round"/><path d="M117.06 20.882c-4.405-2.144-7.055-.396-8.497 1.285-1.442 1.679-1.94 4.126-1.268 6.239.247.78.68 1.552 1.397 1.945.577.315 1.26.346 1.916.37 1.46.05 3.028.065 4.242-.75 1.519-1.02 2.02-3.013 2.203-4.837.148-1.461.17-2.935.066-4.4.304 8.78.25 17.567.196 26.351-.014 2.344-.031 4.712-.576 6.99-.353 1.478-.966 2.96-2.116 3.948-1.15.989-2.935 1.345-4.201.512-1.473-.97-1.71-3.03-1.584-4.794.356-4.963 2.466-9.783 5.866-13.403 2.654-2.824 6-4.881 8.962-7.375 2.965-2.494 5.664-5.664 6.268-9.5.28-1.779-.286-4.075-2.046-4.423-1.416-.282-2.743.972-3.193 2.349-.497 1.52-.259 3.182.162 4.725.395 1.452.977 2.908 2.05 3.96 1.382 1.354 3.475 1.862 5.368 1.483 1.893-.378 3.573-1.577 4.725-3.132m15-1.863c.554-2.115 2.904-3.303 5.115-3.731 2.212-.429 4.553-.378 6.62-1.25.333-.14.665-.311.89-.587.358-.438.37-1.074.149-1.59-.5-1.16-2.056-1.664-3.29-1.274-1.234.39-2.125 1.484-2.548 2.672-.423 1.187-.443 2.471-.412 3.727.035 1.44.154 2.952.965 4.16 1.334 1.988 4.547 2.466 6.437.957 2.785-2.223 2.028-7.006 4.873-9.157 1.62-1.226 4.004-1.15 5.834-.241.818.405 1.578.986 1.983 1.783.405.8.414 1.73.361 2.62-.113 1.914-.545 3.952-1.969 5.286-1.424 1.334-4.098 1.52-5.223-.06" stroke="#202446" stroke-width="2.4" stroke-linecap="round" stroke-linejoin="round"/><path d="M184.27 19.454c-1.708-.137-3.377.909-4.282 2.376-.903 1.468-1.121 3.285-.917 5 .088.743.264 1.506.727 2.09.48.606 1.21.948 1.935 1.202a12.57 12.57 0 0 0 6.363.506c.87-.156 1.747-.418 2.44-.971 1.036-.83 1.506-2.181 1.776-3.487.492-2.388.484-4.849.474-7.288-.053 2.263.079 4.53.391 6.77.197 1.418.542 2.954 1.662 3.832.589.46 1.336.682 2.08.734 1.681.12 3.346-.592 4.65-1.667 1.305-1.077 2.29-2.493 3.153-3.953 1.103-1.869 2.047-3.895 2.243-6.06.114-1.262-.087-2.66-1.003-3.526-.918-.866-2.691-.797-3.202.36-.355.803.009 1.754.549 2.442 1.592 2.03 4.368 2.54 6.786 3.41a19.384 19.384 0 0 1 4.382 2.242c1.542 1.055 3.053 2.6 2.98 4.478-.073 1.867-2.058 3.42-3.858 2.98-1.8-.439-2.853-2.797-1.946-4.426.37-.665.979-1.161 1.616-1.57 1.803-1.156 3.906-1.725 5.863-2.59 1.957-.865 3.89-2.163 4.701-4.157.48-1.18.52-2.488.553-3.764L224.732 1l.674 20.628c.088 2.71.365 5.804 2.519 7.425 1.758 1.324 4.268 1.061 8.075-2.037M216 8.299a502.3 502.3 0 0 0 16 .402" stroke="#202446" stroke-width="2.4" stroke-linecap="round" stroke-linejoin="round"/><path d="M192.5 14c1.998 0 2.002-3 0-3-1.998 0-2.002 3 0 3" fill="#202446"/><path d="M244.945 17.502c-6.41-2.466-8.712 2.368-8.934 6.343-.08 1.421.263 2.904 1.166 4.004.902 1.1 2.418 1.738 3.797 1.392 1.23-.309 2.183-1.33 2.723-2.477.542-1.147.732-2.423.915-3.678.268-1.816.534-3.633.8-5.449a19.382 19.382 0 0 0-.07 8.638c.28 1.255.847 2.654 2.076 3.029 1.075.327 2.252-.316 2.906-1.228.656-.913.91-2.043 1.176-3.134a73.25 73.25 0 0 1 1.837-6.296c.309-.904.887-1.977 1.84-1.91.65.046 1.12.637 1.41 1.22.59 1.191.785 2.533.964 3.85.37 2.727.71 5.46 1.021 8.194a49.164 49.164 0 0 1 2.978-11.659c.244-.625.587-1.323 1.239-1.483.665-.162 1.319.334 1.713.894 1.148 1.627 1.03 3.786 1.127 5.776.098 1.989.676 4.267 2.488 5.097 1.444.663 3.223.103 4.386-.98 1.164-1.083 1.827-2.591 2.367-4.086 2.701-7.48 1.92-15.612 2.248-23.559-1.421 8.056-1.103 16.257-1.312 24.435-.033 1.315.016 2.797.973 3.7.45.423 1.047.656 1.645.818 2.5.68 5.234.254 7.54-.926 2.307-1.18 4.202-3.074 5.62-5.243.847-1.297 1.555-2.809 1.348-4.344-.207-1.536-1.661-2.975-3.179-2.653-.932.197-1.649.993-2.002 1.878-.354.885-.405 1.859-.438 2.812-.071 2.042-.028 4.263 1.23 5.875 1.16 1.486 3.16 2.126 5.046 2.052 1.883-.073 3.685-.765 5.411-1.526m-26-19.23c4.145.17 6.842-.652 11-.162" stroke="#202446" stroke-width="2.4" stroke-linecap="round" stroke-linejoin="round"/></g><g transform="translate(43)"><path d="M4.705.098c.083 4.014 1.979 8.01 5.204 10.398 3.226 2.388 7.752 3.011 11.4 1.338 3.649-1.672 6.17-5.674 5.85-9.675-.02-.234-.053-.482-.21-.656-.282-.316-.791-.226-1.197-.099-7.788 2.44-13.552 9.02-17.956 15.89-3.45 5.38-6.37 11.233-7.391 17.54-.505 3.117-.505 6.452.93 9.264 1.437 2.811 4.615 4.903 7.709 4.282 2.582-.518 4.578-2.838 5.148-5.409.569-2.57-.128-5.304-1.46-7.575m2.376 7.969c2.988.559 4.199 1.023 6.594-.85.379-.295.719-.642 1.129-.893 1.03-.635 2.346-.577 3.459-1.053 1.857-.792 2.645-3.922 1.849-5.777-.168-.391-.411-.765-.765-1.001-.648-.435-1.547-.318-2.215.086-.668.403-1.154 1.043-1.611 1.675-1.072 1.483-1.92 3.76-2.423 5.52-.506 1.76-.427 3.767.595 5.284a4.924 4.924 0 0 0 3.877 2.134c1.53.043 4.56-2.367 5.486-3.588m7.4-10.107c-1.866-.742-4.086.172-5.361 1.724-1.274 1.552-2.04 4.477-2.016 6.782.035 3.551 3.862 5.264 5.464 4.52 2.079-.963 2.6-1.672 4.194-3.318 1.229-1.27 1.652-9.027 1.893-9.027.372.001-1.373 7.505-.436 9.4 1.11 2.243 4.03 3.264 6.5 2.86m25.594-8.92c2.849.419 3.562-2.436 4.039-3.862.446-1.334 1.616-1.497 2.298-1.227.673.267 1.06.966 1.335 1.635.835 2.03 1.066 10.95.794 13.129-.025-1.546.165-3.675.275-5.877.137-2.745 1.182-7.588 1.83-8.6.824-1.285 2.264-1.225 3.295-.607 1.115.668 1.051 7.862 1.007 9.16-.044 1.3.08 2.438.621 3.62.756 1.65 3.085 2.332 4.61 1.349m7.498-21.068c.064 1.328.001 3.495-2.112 4.888m6.865 15.469c1.767-.15 3.851-3.23 5.49-3.905 1.638-.677 4.214-1.888 5.31-3.281 1.19-1.51 1.007-3.797.138-4.988-.891-1.22-3.675-1.004-4.837-.04-1.163.964-1.497 2.615-1.455 4.124.064 2.29 1.185 6.158 2.859 7.724 1.675 1.564 3.945 1.474 6.041.549 3.391-1.497 4.261-7.69 4.607-11.38.183-1.953-1.19-2.563-2.009-1.521-.737 1.368 1.157 1.885 2.28 2.29 4.007 1.452 6.039 4.495 7.044 8.638.163.673.266 1.41-.034 2.035-.679 1.416-3.063 1.09-3.795-.3-.731-1.388-.173-3.141.786-4.384.958-1.244 3.048-2.031 4.393-2.975 4.181-2.937 3.356-14.356 3.356-14.356-.183 6.607.1 9.376.877 14.065.322 1.942.836 7.82 2.589 8.718 2.04 1.044 4.874-.953 4.577-3.226m-12.212-14.649c3.418-.38 6.847-.67 10.281-.868m16.826 19.106c2.746-.048 5.44-1.405 7.112-3.583 1.673-2.178 1.792-8.888 1.13-11.553 1.168 10.09 2.177 24.014 2.029 34.17m-.713-30.617a7.924 7.924 0 0 1 2.877-2.91c.492-.286 1.073-.525 1.618-.361.94.285 1.153 1.49 1.252 2.467.153 1.518.433 6.082.836 7.554.253.926.566 3.317 1.16 4.07.596.755 1.525 1.305 2.48 1.218.957-.087 1.689-1.042 2.023-2.153" stroke="#1A3151" stroke-width="2.197" stroke-linecap="round" stroke-linejoin="round"/><path d="M190.67 36.02c-2.162-1.785-5.607-.971-6.689-.362-1.082.608-2.667 1.89-3.07 3.569-.375 1.567-.14 5.546.53 7.01.67 1.466 3.199 2.337 4.798 2.14 1.825-.221 3.277-1.883 4.1-3.527 1.14-2.276.112-9.42.263-11.252.068 2.135.724 10.02 1.568 11.982.402.935.927 1.878 1.795 2.41 1.451.892 3.444.317 4.657-.877 1.213-1.196 1.819-2.862 2.341-4.483.396-1.225.725-6.554.759-7.841.046-1.724-1.976-1.884-3.251-1.707-1.28 2.393 2.076 2.61 3.192 2.985 3.152 1.057 8.34 4.829 9.838 7.798.613 1.215.307 4.37-1.904 4.964-1.513.406-3.572-1.2-3.664-2.613-.093-1.414.712-2.784 1.839-3.643 1.127-.86 3.699-2.227 5.102-2.43" stroke="#1A3151" stroke-width="2.197" stroke-linecap="round" stroke-linejoin="round"/><path d="M44.579 28.108a1.007 1.007 0 1 0-2.015 0 1.007 1.007 0 0 0 2.015 0" fill="#1A3151"/></g></g></svg>