<svg xmlns="http://www.w3.org/2000/svg" viewBox="0 0 193.98 103.08"><defs><style>.cls-1{fill:#fff}.cls-1,.cls-2,.cls-4,.cls-5,.cls-6,.cls-7{stroke:#212348}.cls-1,.cls-2,.cls-3,.cls-4,.cls-6,.cls-7,.cls-8,.cls-9{stroke-miterlimit:10}.cls-1,.cls-2,.cls-8{stroke-width:2px}.cls-2,.cls-3,.cls-4,.cls-5,.cls-6,.cls-7,.cls-8,.cls-9{fill:none}.cls-3,.cls-9{stroke:#fab200;stroke-width:2.33px}.cls-3,.cls-4,.cls-5,.cls-6,.cls-9{stroke-linecap:round}.cls-3{stroke-dasharray:4.49 9.62}.cls-4,.cls-7{stroke-width:.61px}.cls-5{stroke-linejoin:bevel}.cls-5,.cls-6{stroke-width:.91px}.cls-8{stroke:#202447}.cls-9{stroke-dasharray:4.49 9.62}.cls-10{fill:#202447}</style></defs><g id="Calque_2" data-name="Calque 2"><g id="Calque_1-2" data-name="Calque 1"><path class="cls-1" d="M93.55 51.54c0 27.91-20.72 50.54-46.28 50.54S1 79.45 1 51.54 21.72 1 47.27 1s46.28 22.63 46.28 50.54z"/><path class="cls-1" d="M103.12 51.54c0 27.91-20.72 50.54-46.28 50.54S10.57 79.45 10.57 51.54 31.28 1 56.84 1s46.28 22.63 46.28 50.54z"/><path class="cls-2" d="M28.27 5.65L37.84 5.65"/><path class="cls-2" d="M18.71 12.05L28.27 12.05"/><path class="cls-2" d="M10.57 20.39L20.13 20.39"/><path class="cls-2" d="M5.01 31.25L14.57 31.25"/><path class="cls-2" d="M1 43.46L10.57 43.46"/><path class="cls-2" d="M1 57.03L10.57 57.03"/><path class="cls-2" d="M3.52 68.28L13.09 68.28"/><path class="cls-2" d="M8.3 79.14L17.87 79.14"/><path class="cls-2" d="M15.48 88.25L25.04 88.25"/><path class="cls-2" d="M26.14 96.39L35.71 96.39"/><path class="cls-3" d="M95.8 51.29c0 23.31-17.3 42.2-38.64 42.2S18.52 74.6 18.52 51.29s17.3-42.2 38.64-42.2S95.8 28 95.8 51.29z"/><path class="cls-4" d="M67.53 49.35a23.85 23.85 0 0 1 .92 3c.61 2.43 1.19 4.88 1.84 7.3a45.56 45.56 0 0 1 1.73 7 9.1 9.1 0 0 1-1.2 4.49v.06l-.43.75a19.83 19.83 0 0 1-2.41 3.62 2.37 2.37 0 0 1-1.47.83 21.22 21.22 0 0 1-3.65.28 4.42 4.42 0 0 0-.73 0c-.56.06-2.87 0-3.44 0"/><path class="cls-5" d="M87.73 60.37a5.68 5.68 0 0 1 0 2.41c-.12.6-.94 1.16-1.45 1.45a72.68 72.68 0 0 1-6.49 3.4c-2.85 1.25-4.57 1.85-6.47 2.72l-2.39.93"/><path class="cls-6" d="M69.54 31.76a55.58 55.58 0 0 1 7 .35 18.44 18.44 0 0 1 3.12.6 2.58 2.58 0 0 1 .84.32c.56-.45.94-1.05 1.48-1.49a2 2 0 0 1 2.07-.35 4.47 4.47 0 0 1 2 1.32 3.09 3.09 0 0 1 .51 2 3.85 3.85 0 0 1-1.08 2.78c-.57.58-1.09 1.21-1.7 1.73a.53.53 0 0 0-.19.61c.86 2.28 2.79 9.14 4.13 20.7"/><path class="cls-6" d="M35.18 37.62a17.29 17.29 0 0 1-2.51-2.55 2.31 2.31 0 0 1-.13-2.94 5.35 5.35 0 0 1 3.29-2.58 1.62 1.62 0 0 1 1.83.54 2.58 2.58 0 0 0 2.27 1.17c1.5 0 3 0 4.53.08 2.66.07 5.32.16 8 .21s14.35.11 17.11.21"/><path class="cls-7" d="M67.53 49.35a5.25 5.25 0 0 0-1.4-1.8 6.11 6.11 0 0 0-2.58-.73 32.41 32.41 0 0 0-7.1 0 2.71 2.71 0 0 0-2 1.15c-1.38 1.67-1.76 3.73-2.31 5.72s-1 3.75-1.55 5.63-1.11 3.68-1.48 5.59a5.41 5.41 0 0 0 .31 3.21 25.5 25.5 0 0 0 2.12 4.12 9.82 9.82 0 0 0 .66.93 16.24 16.24 0 0 0 2.24 2.17 4.3 4.3 0 0 0 .92.53 6.15 6.15 0 0 0 3.29.82"/><path class="cls-6" d="M33.36 45.45C33 46.54 31.17 56.63 31 57.74a22.4 22.4 0 0 0-.47 4 3.26 3.26 0 0 0 1.7 3.15 58.23 58.23 0 0 0 8 4c3.56 1.29 9.14 3 11.12 3.46M35.18 37.62c-.32 1.24-.69 2.48-.94 3.74s-.62 2.72-.88 4.09m27.33 28.43c2 0 2 .26 2.62-.21A29.62 29.62 0 0 0 66.93 70c.41-.44 1.26-1.29 1.2-2.06-.11-1.39.1-2.06 0-3.5-.08-1-.24-1.13-1.25-1.26-1.87-.23-3.75-.46-5.63-.55a18.78 18.78 0 0 0-4.32 0 14.23 14.23 0 0 0-2.34.12 1.05 1.05 0 0 0-.94 1 25.49 25.49 0 0 0-.38 4.53 1.48 1.48 0 0 0 .67 1.17c1.57 1.26 3.16 2.49 4.75 3.73a2.42 2.42 0 0 0 2 .7z"/><path class="cls-1" d="M138.79 51.54c0 27.91-20.72 50.54-46.28 50.54S46.24 79.45 46.24 51.54 67 1 92.51 1s46.28 22.63 46.28 50.54z"/><path class="cls-1" d="M148.36 51.54c0 27.91-20.72 50.54-46.28 50.54S55.81 79.45 55.81 51.54 76.52 1 102.08 1s46.28 22.63 46.28 50.54z"/><path class="cls-8" d="M92.51 1L102.08 1"/><path class="cls-2" d="M73.51 5.65L83.08 5.65"/><path class="cls-2" d="M63.95 12.05L73.51 12.05"/><path class="cls-2" d="M55.81 20.39L65.37 20.39"/><path class="cls-2" d="M50.25 31.25L59.81 31.25"/><path class="cls-2" d="M46.24 43.46L55.81 43.46"/><path class="cls-2" d="M46.24 57.03L55.81 57.03"/><path class="cls-2" d="M48.76 68.28L58.33 68.28"/><path class="cls-2" d="M53.54 79.14L63.11 79.14"/><path class="cls-2" d="M60.72 88.25L70.28 88.25"/><path class="cls-2" d="M71.38 96.39L80.95 96.39"/><path class="cls-9" d="M141 51.29c0 23.31-17.3 42.2-38.64 42.2s-38.6-18.89-38.6-42.2 17.3-42.2 38.64-42.2S141 28 141 51.29z"/><path class="cls-4" d="M112.77 49.35a23.85 23.85 0 0 1 .92 3c.61 2.43 1.19 4.88 1.84 7.3a45.56 45.56 0 0 1 1.73 7 9.1 9.1 0 0 1-1.2 4.49v.06l-.43.75a19.83 19.83 0 0 1-2.41 3.62 2.37 2.37 0 0 1-1.47.83 21.22 21.22 0 0 1-3.65.28 4.42 4.42 0 0 0-.73 0c-.56.06-2.87 0-3.44 0"/><path class="cls-5" d="M133 60.37a5.68 5.68 0 0 1 0 2.41c-.12.6-.94 1.16-1.45 1.45a72.68 72.68 0 0 1-6.49 3.4c-2.85 1.25-4.57 1.85-6.47 2.72l-2.39.93"/><path class="cls-6" d="M114.78 31.76a55.58 55.58 0 0 1 7 .35 18.44 18.44 0 0 1 3.12.6 2.58 2.58 0 0 1 .84.32c.56-.45.94-1.05 1.48-1.49a2 2 0 0 1 2.07-.35 4.47 4.47 0 0 1 2 1.32 3.09 3.09 0 0 1 .51 2 3.85 3.85 0 0 1-1.08 2.78c-.57.58-1.09 1.21-1.7 1.73a.53.53 0 0 0-.19.61c.86 2.28 2.79 9.14 4.13 20.7"/><path class="cls-6" d="M80.42 37.62a17.29 17.29 0 0 1-2.51-2.55 2.31 2.31 0 0 1-.13-2.94 5.35 5.35 0 0 1 3.29-2.58 1.62 1.62 0 0 1 1.83.54 2.58 2.58 0 0 0 2.27 1.17c1.5 0 3 0 4.53.08 2.66.07 5.32.16 8 .21s14.35.11 17.11.21"/><path class="cls-7" d="M112.77 49.35a5.25 5.25 0 0 0-1.4-1.8 6.11 6.11 0 0 0-2.58-.73 32.33 32.33 0 0 0-7.09 0 2.71 2.71 0 0 0-2 1.15c-1.37 1.67-1.76 3.73-2.31 5.72s-1 3.75-1.54 5.63-1.13 3.73-1.5 5.64a5.41 5.41 0 0 0 .31 3.21 25.5 25.5 0 0 0 2.12 4.12 9.82 9.82 0 0 0 .66.93 16.24 16.24 0 0 0 2.24 2.17 4.56 4.56 0 0 0 .92.53 6.15 6.15 0 0 0 3.29.82"/><path class="cls-6" d="M78.6 45.45c-.34 1.09-2.19 11.18-2.41 12.29a22.4 22.4 0 0 0-.47 4 3.26 3.26 0 0 0 1.7 3.15 58.23 58.23 0 0 0 8 4c3.56 1.29 9.14 3 11.12 3.46M80.42 37.62c-.32 1.24-.69 2.48-.94 3.74s-.62 2.72-.88 4.09m27.33 28.43c2 0 2 .26 2.62-.21a29.62 29.62 0 0 0 3.62-3.67c.41-.44 1.26-1.29 1.2-2.06-.11-1.39.1-2.06 0-3.5-.08-1-.24-1.13-1.25-1.26-1.87-.23-3.75-.46-5.63-.55a18.78 18.78 0 0 0-4.32 0 14.23 14.23 0 0 0-2.34.12 1.05 1.05 0 0 0-.94 1 25.49 25.49 0 0 0-.38 4.53 1.48 1.48 0 0 0 .67 1.17c1.57 1.26 3.16 2.49 4.75 3.73a2.42 2.42 0 0 0 2 .7z"/><path class="cls-10" d="M114.05 49a2 2 0 0 0-.66 2l-.39-1.33c.17-.24.83-.91.85-1.17a1.49 1.49 0 0 1 2.38-1.2 1.59 1.59 0 0 1 .62 1.52 1.1 1.1 0 0 1-1 1.15 1.67 1.67 0 0 1-1.8-.97zm-19.11-1.09c.26-1.87 3-1.34 3-.11 0 .48.43.35 1 .91l-.18.28a2.73 2.73 0 0 0-.88-.57 1.18 1.18 0 0 1-.88 1 1.94 1.94 0 0 1-1.65-.11 1.39 1.39 0 0 1-.41-1.4z"/><path class="cls-1" d="M183.41 51.54c0 27.91-20.72 50.54-46.27 50.54S90.86 79.45 90.86 51.54 111.58 1 137.14 1s46.27 22.63 46.27 50.54z"/><path class="cls-1" d="M193 51.54c0 27.91-20.72 50.54-46.28 50.54s-46.27-22.63-46.27-50.54S121.15 1 146.7 1 193 23.63 193 51.54z"/><path class="cls-8" d="M137.14 1L146.7 1"/><path class="cls-2" d="M118.14 5.65L127.7 5.65"/><path class="cls-2" d="M108.57 12.05L118.14 12.05"/><path class="cls-2" d="M100.43 20.39L109.99 20.39"/><path class="cls-2" d="M94.87 31.25L104.44 31.25"/><path class="cls-2" d="M90.86 43.46L100.43 43.46"/><path class="cls-2" d="M90.86 57.03L100.43 57.03"/><path class="cls-2" d="M93.38 68.28L102.95 68.28"/><path class="cls-2" d="M98.17 79.14L107.73 79.14"/><path class="cls-2" d="M105.34 88.25L114.9 88.25"/><path class="cls-2" d="M116 96.39L125.57 96.39"/><path class="cls-3" d="M185.66 51.29c0 23.31-17.3 42.2-38.64 42.2s-38.64-18.89-38.64-42.2 17.3-42.2 38.62-42.2 38.66 18.91 38.66 42.2z"/><path class="cls-4" d="M157.4 49.35a24.43 24.43 0 0 1 .91 3c.61 2.43 1.19 4.88 1.84 7.3a43.33 43.33 0 0 1 1.73 7 9.1 9.1 0 0 1-1.2 4.49v.06l-.42.75a19.87 19.87 0 0 1-2.42 3.62 2.34 2.34 0 0 1-1.47.83 21.22 21.22 0 0 1-3.65.28 4.42 4.42 0 0 0-.73 0c-.56.06-2.87 0-3.44 0"/><path class="cls-5" d="M177.6 60.37a6 6 0 0 1 0 2.41c-.13.6-.95 1.16-1.45 1.45-2.13 1.2-4.25 2.41-6.49 3.4-2.86 1.25-4.57 1.85-6.48 2.72l-2.39.93"/><path class="cls-6" d="M159.41 31.76a55.51 55.51 0 0 1 7 .35 18.55 18.55 0 0 1 3.13.6 2.62 2.62 0 0 1 .83.32c.56-.45 1-1.05 1.48-1.49a2 2 0 0 1 2.07-.35 4.55 4.55 0 0 1 2 1.32 3.14 3.14 0 0 1 .5 2 3.77 3.77 0 0 1-1.08 2.78c-.57.58-1.09 1.21-1.7 1.73a.53.53 0 0 0-.19.61c.86 2.28 2.8 9.14 4.14 20.7M125 37.62a17.29 17.29 0 0 1-2.51-2.55 2.31 2.31 0 0 1-.13-2.94 5.35 5.35 0 0 1 3.29-2.58 1.62 1.62 0 0 1 1.83.54 2.59 2.59 0 0 0 2.27 1.17c1.51 0 3 0 4.53.08 2.66.07 5.32.16 8 .21s14.36.11 17.12.21"/><path class="cls-7" d="M157.4 49.35a5.4 5.4 0 0 0-1.41-1.8 6.11 6.11 0 0 0-2.58-.73 32.32 32.32 0 0 0-7.09 0 2.71 2.71 0 0 0-2 1.15c-1.37 1.67-1.76 3.73-2.31 5.72s-1 3.75-1.54 5.63-1.12 3.68-1.47 5.59a5.49 5.49 0 0 0 .31 3.21 25.5 25.5 0 0 0 2.12 4.12q.32.48.66.93a16.24 16.24 0 0 0 2.24 2.17 4.56 4.56 0 0 0 .92.53 6.15 6.15 0 0 0 3.29.82"/><path class="cls-6" d="M123.22 45.45c-.33 1.09-2.19 11.18-2.41 12.29a21.52 21.52 0 0 0-.46 4A3.24 3.24 0 0 0 122 64.9a57.73 57.73 0 0 0 8.06 4c3.55 1.29 9.14 3 11.12 3.46M125 37.62c-.32 1.24-.69 2.48-.94 3.74s-.62 2.72-.88 4.09m27.37 28.43c2 0 2 .26 2.62-.21a29.62 29.62 0 0 0 3.62-3.67c.41-.44 1.26-1.29 1.2-2.06-.11-1.39.1-2.06 0-3.5-.08-1-.24-1.13-1.25-1.26-1.87-.23-3.75-.46-5.63-.55a18.78 18.78 0 0 0-4.32 0 14.23 14.23 0 0 0-2.34.12 1.05 1.05 0 0 0-.94 1 25.49 25.49 0 0 0-.38 4.53 1.51 1.51 0 0 0 .67 1.17c1.57 1.26 3.16 2.49 4.75 3.73a2.42 2.42 0 0 0 2 .7z"/><path class="cls-10" d="M157.64 49.67c.17-.24.83-.91.85-1.17a1.49 1.49 0 0 1 2.38-1.2 1.59 1.59 0 0 1 .62 1.52 1.1 1.1 0 0 1-1 1.15 1.67 1.67 0 0 1-1.81-1 2 2 0 0 0-.65 2zM142.6 47.8c0 .48.43.35 1 .91l-.18.28a2.73 2.73 0 0 0-.88-.57 1.17 1.17 0 0 1-.88 1 1.94 1.94 0 0 1-1.65-.11 1.39 1.39 0 0 1-.49-1.43c.3-1.88 3.08-1.31 3.08-.08z"/></g></g></svg>