<svg xmlns="http://www.w3.org/2000/svg" viewBox="0 0 82.98 97.8"><defs><style>.cls-1{fill:#1f2547;}.cls-2{fill:#202446;}.cls-11,.cls-3{fill:#fff;}.cls-10,.cls-3,.cls-5,.cls-7,.cls-8,.cls-9{stroke:#222448;}.cls-10,.cls-3,.cls-4,.cls-5,.cls-6,.cls-7,.cls-9{stroke-miterlimit:10;}.cls-3,.cls-4,.cls-5{stroke-width:1.58px;}.cls-10,.cls-4,.cls-5,.cls-6,.cls-7,.cls-8,.cls-9{fill:none;}.cls-4{stroke:#202446;}.cls-6{stroke:#f8b106;stroke-width:1.84px;stroke-dasharray:3.66 7.85;}.cls-6,.cls-7,.cls-8,.cls-9{stroke-linecap:round;}.cls-10,.cls-7{stroke-width:0.48px;}.cls-8{stroke-linejoin:bevel;}.cls-8,.cls-9{stroke-width:0.72px;}.cls-12{fill:#f9b311;}</style></defs><g id="Calque_2" data-name="Calque 2"><g id="Calque_11" data-name="Calque 11"><path class="cls-1" d="M2.52,31.36c.77-1.48,1.93-1.14,3.33-1.14H72.63c.64,0,1.29,0,1.94,0,.06,0,.34.05.39,0s.3.47-.21,0-.1.07-.08,0c0,.07,0,0,.09.07s.34.38.3.32a5.76,5.76,0,0,1,.86,1.76,24.54,24.54,0,0,1,.72,8.75c-.06,1.28,1.94,1.28,2,0a29.37,29.37,0,0,0-.56-8.47,8.12,8.12,0,0,0-1.69-3.55,2.52,2.52,0,0,0-2.19-.83H13.64c-3.28,0-6.67-.25-10,0a3.68,3.68,0,0,0-2.9,2.13c-.6,1.14,1.13,2.16,1.73,1Z"/><path class="cls-2" d="M23.34,31.51a.5.5,0,0,1,.19.49.34.34,0,0,1-.32.36.52.52,0,0,1-.57-.31.63.63,0,0,0-.21.64l-.12-.42c.06-.08.26-.29.27-.37A.48.48,0,0,1,23.34,31.51Z"/><path class="cls-2" d="M17.87,32l-.06.09a.85.85,0,0,0-.28-.18.37.37,0,0,1-.28.33.63.63,0,0,1-.52,0,.42.42,0,0,1-.15-.45c.08-.6,1-.43,1,0C17.54,31.82,17.68,31.79,17.87,32Z"/><path class="cls-3" d="M44.64,32.86c0,8.85-6.57,16-14.68,16s-14.68-7.18-14.68-16,6.58-16,14.68-16S44.64,24,44.64,32.86Z"/><path class="cls-3" d="M47.68,32.86c0,8.85-6.57,16-14.68,16s-14.68-7.18-14.68-16,6.57-16,14.68-16S47.68,24,47.68,32.86Z"/><line class="cls-4" x1="29.96" y1="16.82" x2="33" y2="16.82"/><line class="cls-5" x1="23.94" y1="18.3" x2="26.97" y2="18.3"/><line class="cls-5" x1="20.9" y1="20.33" x2="23.94" y2="20.33"/><line class="cls-5" x1="18.32" y1="22.98" x2="21.35" y2="22.98"/><line class="cls-5" x1="16.55" y1="26.42" x2="19.59" y2="26.42"/><line class="cls-5" x1="15.28" y1="30.3" x2="18.32" y2="30.3"/><line class="cls-5" x1="15.28" y1="34.6" x2="18.32" y2="34.6"/><line class="cls-5" x1="16.08" y1="38.17" x2="19.12" y2="38.17"/><line class="cls-5" x1="17.6" y1="41.61" x2="20.63" y2="41.61"/><line class="cls-5" x1="19.88" y1="44.5" x2="22.91" y2="44.5"/><line class="cls-5" x1="23.26" y1="47.09" x2="26.29" y2="47.09"/><path class="cls-6" d="M45.36,32.78c0,7.39-5.49,13.39-12.26,13.39s-12.26-6-12.26-13.39S26.33,19.39,33.1,19.39,45.36,25.38,45.36,32.78Z"/><path class="cls-7" d="M36.39,32.16a7.45,7.45,0,0,1,.29,1c.2.77.38,1.55.58,2.32a12.65,12.65,0,0,1,.55,2.2,2.81,2.81,0,0,1-.38,1.43v0l-.13.23a6.59,6.59,0,0,1-.77,1.15.74.74,0,0,1-.47.26,5.56,5.56,0,0,1-1.16.09h-.23c-.17,0-.91,0-1.09,0"/><path class="cls-8" d="M42.8,35.66a1.86,1.86,0,0,1,0,.77c0,.19-.3.36-.46.45-.68.38-1.35.77-2.06,1.08-.91.4-1.45.59-2.05.87l-.76.29"/><path class="cls-9" d="M37,26.58a20.94,20.94,0,0,1,2.23.11,6.1,6.1,0,0,1,1,.2.77.77,0,0,1,.26.1c.18-.15.3-.34.47-.48a.64.64,0,0,1,.66-.11,1.4,1.4,0,0,1,.62.42,1,1,0,0,1,.16.65,1.21,1.21,0,0,1-.34.88c-.18.18-.35.39-.54.55a.16.16,0,0,0-.06.19,32.08,32.08,0,0,1,1.31,6.57"/><path class="cls-9" d="M26.13,28.44a5.5,5.5,0,0,1-.8-.8.74.74,0,0,1,0-.94,1.68,1.68,0,0,1,1-.82.51.51,0,0,1,.58.17.82.82,0,0,0,.72.37l1.44,0,2.53.07c.87,0,4.55,0,5.43.06"/><path class="cls-10" d="M36.39,32.16a1.65,1.65,0,0,0-.45-.57,1.93,1.93,0,0,0-.81-.23,10,10,0,0,0-2.25,0,.86.86,0,0,0-.64.36,4.77,4.77,0,0,0-.73,1.81c-.17.6-.33,1.19-.49,1.79s-.36,1.19-.48,1.79a1.73,1.73,0,0,0,.11,1,8.1,8.1,0,0,0,.67,1.31,1.94,1.94,0,0,0,.21.29,4.61,4.61,0,0,0,.71.69,1.85,1.85,0,0,0,.29.17,2,2,0,0,0,1,.26"/><path class="cls-9" d="M25.55,30.93c-.11.34-.7,3.54-.76,3.89a6.13,6.13,0,0,0-.15,1.28,1,1,0,0,0,.53,1,20,20,0,0,0,2.56,1.27c1.13.41,2.9,1,3.53,1.09"/><path class="cls-9" d="M26.13,28.44c-.11.4-.22.79-.3,1.19s-.2.86-.28,1.3"/><path class="cls-9" d="M34.22,40c.65,0,.63.08.83-.07a9,9,0,0,0,1.15-1.16c.13-.13.4-.41.38-.65,0-.44,0-.65,0-1.11s-.07-.36-.39-.4c-.6-.07-1.19-.14-1.79-.17a5.65,5.65,0,0,0-1.37,0,4.65,4.65,0,0,0-.74,0,.32.32,0,0,0-.3.31,7.71,7.71,0,0,0-.12,1.44.47.47,0,0,0,.21.37l1.51,1.18A.77.77,0,0,0,34.22,40Z"/><path class="cls-2" d="M37.49,31.51a.53.53,0,0,1,.2.49.34.34,0,0,1-.32.36.53.53,0,0,1-.58-.31.65.65,0,0,0-.2.64l-.12-.42c.05-.08.26-.29.27-.37A.47.47,0,0,1,37.49,31.51Z"/><path class="cls-2" d="M32,32l-.06.09a.85.85,0,0,0-.28-.18.37.37,0,0,1-.28.33.63.63,0,0,1-.52,0,.43.43,0,0,1-.16-.45c.09-.6,1-.43,1,0C31.7,31.82,31.83,31.79,32,32Z"/><path class="cls-2" d="M42.27,15.48a.51.51,0,0,1,.2.48.35.35,0,0,1-.32.37.54.54,0,0,1-.58-.31.64.64,0,0,0-.2.63l-.12-.42c0-.07.26-.29.27-.37A.47.47,0,0,1,42.27,15.48Z"/><path class="cls-2" d="M36.81,15.93l-.06.09a.73.73,0,0,0-.28-.19.36.36,0,0,1-.28.33.59.59,0,0,1-.52,0,.45.45,0,0,1-.16-.46c.09-.59,1-.42,1,0C36.48,15.79,36.61,15.75,36.81,15.93Z"/><path class="cls-3" d="M63.58,16.82c0,8.86-6.57,16-14.68,16s-14.68-7.18-14.68-16S40.79.79,48.9.79,63.58,8,63.58,16.82Z"/><path class="cls-3" d="M66.62,16.82c0,8.86-6.58,16-14.69,16s-14.68-7.18-14.68-16,6.58-16,14.68-16S66.62,8,66.62,16.82Z"/><line class="cls-4" x1="48.9" y1="0.79" x2="51.93" y2="0.79"/><line class="cls-5" x1="42.87" y1="2.27" x2="45.91" y2="2.27"/><line class="cls-5" x1="39.84" y1="4.3" x2="42.87" y2="4.3"/><line class="cls-5" x1="37.25" y1="6.94" x2="40.29" y2="6.94"/><line class="cls-5" x1="35.49" y1="10.39" x2="38.53" y2="10.39"/><line class="cls-5" x1="34.22" y1="14.26" x2="37.25" y2="14.26"/><line class="cls-5" x1="34.22" y1="18.57" x2="37.25" y2="18.57"/><line class="cls-5" x1="35.02" y1="22.14" x2="38.05" y2="22.14"/><line class="cls-5" x1="36.54" y1="25.58" x2="39.57" y2="25.58"/><line class="cls-5" x1="38.81" y1="28.47" x2="41.85" y2="28.47"/><line class="cls-5" x1="42.19" y1="31.05" x2="45.23" y2="31.05"/><path class="cls-6" d="M64.29,16.74c0,7.4-5.48,13.39-12.25,13.39s-12.26-6-12.26-13.39S45.27,3.36,52,3.36,64.29,9.35,64.29,16.74Z"/><path class="cls-7" d="M55.33,16.13a7.45,7.45,0,0,1,.29,1c.19.77.37,1.55.58,2.32a13.62,13.62,0,0,1,.55,2.2A2.88,2.88,0,0,1,56.37,23v0l-.14.24a5.92,5.92,0,0,1-.77,1.15.69.69,0,0,1-.46.26,5.62,5.62,0,0,1-1.16.09H53.6c-.18,0-.91,0-1.09,0"/><path class="cls-8" d="M61.74,19.63a2,2,0,0,1,0,.76c0,.19-.3.37-.46.46-.68.38-1.35.77-2.06,1.08-.91.4-1.45.59-2.06.86l-.76.3"/><path class="cls-9" d="M56,10.55a16.74,16.74,0,0,1,2.23.11,5.76,5.76,0,0,1,1,.19.82.82,0,0,1,.27.1c.17-.14.3-.33.47-.47a.62.62,0,0,1,.65-.11,1.49,1.49,0,0,1,.63.42,1,1,0,0,1,.16.64,1.24,1.24,0,0,1-.35.89c-.18.18-.34.38-.54.55a.15.15,0,0,0,0,.19,31.9,31.9,0,0,1,1.31,6.57"/><path class="cls-9" d="M45.06,12.41a6,6,0,0,1-.79-.81.73.73,0,0,1-.05-.93,1.73,1.73,0,0,1,1.05-.82.52.52,0,0,1,.58.17.82.82,0,0,0,.72.37c.48,0,1,0,1.44,0,.84,0,1.68.05,2.53.06s4.55,0,5.43.07"/><path class="cls-10" d="M55.33,16.13a1.68,1.68,0,0,0-.45-.57,1.94,1.94,0,0,0-.82-.23,10.58,10.58,0,0,0-2.25,0,.84.84,0,0,0-.63.37,4.47,4.47,0,0,0-.73,1.81c-.17.6-.33,1.19-.49,1.79s-.36,1.18-.48,1.79a1.8,1.8,0,0,0,.1,1,7.62,7.62,0,0,0,.67,1.3l.21.3a5.72,5.72,0,0,0,.71.69,1.3,1.3,0,0,0,.29.16,2,2,0,0,0,1,.27"/><path class="cls-9" d="M44.49,14.89c-.11.35-.7,3.55-.77,3.9a7.72,7.72,0,0,0-.15,1.27,1,1,0,0,0,.54,1,17.63,17.63,0,0,0,2.56,1.27c1.13.41,2.9,1,3.52,1.1"/><path class="cls-9" d="M45.06,12.41c-.1.39-.21.79-.3,1.18s-.19.87-.27,1.3"/><path class="cls-9" d="M53.16,23.91c.64,0,.62.09.83-.06a10.49,10.49,0,0,0,1.15-1.16c.13-.14.4-.41.38-.65,0-.44,0-.66,0-1.11s-.08-.36-.4-.4c-.59-.07-1.19-.15-1.78-.18a6.26,6.26,0,0,0-1.37,0,4.71,4.71,0,0,0-.75,0,.34.34,0,0,0-.29.32,7.6,7.6,0,0,0-.12,1.43.45.45,0,0,0,.21.37l1.5,1.19A.78.78,0,0,0,53.16,23.91Z"/><path class="cls-2" d="M56.43,15.48a.51.51,0,0,1,.2.48.36.36,0,0,1-.32.37.54.54,0,0,1-.58-.31c-.15.19-.29.35-.21.63l-.11-.42c.05-.07.26-.29.27-.37A.47.47,0,0,1,56.43,15.48Z"/><path class="cls-2" d="M51,15.93l-.05.09a.82.82,0,0,0-.28-.19.38.38,0,0,1-.28.33.62.62,0,0,1-.53,0,.46.46,0,0,1-.15-.46c.08-.59,1-.42,1,0C50.63,15.79,50.77,15.75,51,15.93Z"/><path class="cls-11" d="M1.22,32.86V56.45L1,84.7s.21,9.12,1.21,10,1.45,1.66,6.53,1.8,37.14,0,37.14,0,24.35.21,27.26-.35,5.13-.65,5-2.28-.11-13.29-.11-13.29l0-32.5s.14-5.24-.37-6.71A15.18,15.18,0,0,0,76,38.27l.46-1.06S76,34.71,71,34.83s-51.76,0-51.76,0L3.76,34.39S1.65,34.14,1.22,32.86Z"/><path class="cls-1" d="M.38,34.76Q.17,47.47.07,60.18C0,66.3,0,72.42,0,78.54A111.57,111.57,0,0,0,.56,92.1c.27,2.18.71,3.84,2.85,4.7a8.65,8.65,0,0,0,2.71.59c3.78.28,7.59.28,11.37.32,12.1.15,24.2.09,36.29-.06,4.86-.05,9.71-.12,14.57-.26,1.37,0,2.75-.07,4.13-.16,2.07-.13,5.15-.37,6.35-2.38A2.53,2.53,0,0,0,79.1,93c-.16-.7-.06.24,0,.13s0-.33,0-.42c.06-1.62,0-3.26,0-4.89l0-16.82c0-3.26,0-6.52,0-9.78,0-2.94.06-5.89.06-8.84q0-3.7,0-7.41a12.87,12.87,0,0,0-1-5.53c-1.23-2.56-3.51-3.3-6.11-3.3H29.63c-7.75,0-15.49.06-23.24,0H6a5.24,5.24,0,0,1-3.18-1.15c-1-.88-.64-2.71-.2-3.82S1.16,29.41.69,30.59c-.81,2.05-.84,4.57,1,6A7.38,7.38,0,0,0,6,38.09c.61,0,1.22,0,1.83,0H51.69c7,0,14,.06,20.92,0,5.19-.05,4.47,7,4.5,10.77,0,4.6-.07,9.2-.06,13.81l.06,28.88c0,.47,0,1,0,1.41a1.21,1.21,0,0,1,0,.19c0,.16.12.81,0,.3,0,.21,0,.1,0,0-.13.22.1.18-.12.42a3.28,3.28,0,0,1-1.35.79,12.71,12.71,0,0,1-3.24.55c-3.43.22-6.88.24-10.32.3-11.83.22-23.67.28-35.51.25-5,0-10.1,0-15.15-.17-1.62,0-3.24-.08-4.86-.19-.47,0-.95-.06-1.42-.11.09,0,0,0-.2,0s-.42-.15-.63-.23c-.63-.24-1.07-.37-1.33-.84a10.4,10.4,0,0,1-.69-3.87c-.17-1.93-.26-3.86-.3-5.79C2,79.25,2,74,2,68.68q.07-16,.33-32l0-1.94a1,1,0,0,0-2,0Z"/><path class="cls-12" d="M81.4,57.16a2.15,2.15,0,0,0-1.83-1.89,7.69,7.69,0,0,0-2.82.17c-5.31.89-10.82-.92-16.12.07A4,4,0,0,0,58,56.88a4.27,4.27,0,0,0-.53,2.18q-.42,6.8-.3,13.63a5.59,5.59,0,0,0,.49,2.66c.84,1.47,2.75,1.88,4.44,2.05a98.06,98.06,0,0,0,16.61-.26,3,3,0,0,0,2.27-.82,3,3,0,0,0,.49-1.6,104.13,104.13,0,0,0,.37-17.3"/><path class="cls-1" d="M82.4,57.16a3.08,3.08,0,0,0-1.72-2.55c-1.32-.69-2.8-.34-4.19-.13-3.34.51-6.71,0-10.06-.2-2.57-.15-6.15-.41-8.39,1.14a3.83,3.83,0,0,0-1.56,2.88c-.2,1.69-.21,3.43-.27,5.13a72.76,72.76,0,0,0,0,10.44c.28,2.65,2.25,4,4.74,4.38a51.39,51.39,0,0,0,9.92.36c1.79-.06,3.59-.17,5.38-.3a13.39,13.39,0,0,0,4.37-.55,3.32,3.32,0,0,0,1.83-3c.21-1.88.34-3.77.44-5.66a107.62,107.62,0,0,0-.07-11.64c-.08-1.28-2.08-1.28-2,0a108.89,108.89,0,0,1-.23,15.85,8.83,8.83,0,0,1-.2,1.86c-.27.81-.73.91-1.52,1-1.35.16-2.73.21-4.09.29-2.77.17-5.54.3-8.31.24-1.39,0-2.77-.1-4.15-.23a6.76,6.76,0,0,1-3-.79c-1.13-.72-1.13-2-1.15-3.19,0-1.38,0-2.76,0-4.14q0-4.26.28-8.51c.06-1.21,0-2.45,1.3-3a11.1,11.1,0,0,1,3.84-.59c2.86-.09,5.69.33,8.54.45a25.15,25.15,0,0,0,4.25-.16c.9-.12,3.92-1,4.09.65.13,1.26,2.13,1.28,2,0Z"/><path class="cls-1" d="M77.37,38.05a4.11,4.11,0,0,0-2.31-4.53c-2.07-1.05-4.66-.67-6.89-.62q-8.34.2-16.68.26-16.43.12-32.86-.29c-3.15-.08-6.31-.17-9.46-.28-1.26,0-2.51-.07-3.77-.08s-2.24,0-2.89-1.16a1,1,0,0,0-1.73,1,4.43,4.43,0,0,0,4,2.14c2.31.11,4.62.1,6.93.17q8.09.26,16.18.39,15.93.24,31.87,0,4.47-.06,9-.17c1.75,0,7.48-.64,6.77,2.63-.27,1.25,1.66,1.79,1.93.53Z"/><path class="cls-1" d="M62.12,62.65a5.18,5.18,0,0,0-3.24,2.23c-.78,1.17-1.28,3.08-.18,4.2a3.86,3.86,0,0,0,4.37.51,4.91,4.91,0,0,0,2.52-3.37,2.84,2.84,0,0,0-.91-2.66C64,62.89,63,62.21,62,62.82a1,1,0,1,0,1,1.72.49.49,0,0,1-.21,0c-.28,0,.06,0-.06,0s0,0,.08,0l.15.1c.12.08-.11-.1,0,0l.16.14a3.83,3.83,0,0,1,.29.28l.06.06c-.09-.11.07.1.07.1l.08.15s-.05-.18,0,0a1.21,1.21,0,0,1,.05.18c0-.06,0-.14,0,0s0,.08,0,0a1.63,1.63,0,0,1-.07.3,2.32,2.32,0,0,1-.13.37c.08-.2,0,.08-.07.14a2.69,2.69,0,0,1-.16.29l-.12.18c0,.07-.1.14,0,0a3.39,3.39,0,0,1-.49.51s-.16.14-.06.06,0,0-.06,0l-.36.22L62,67.9c-.13.07.14,0,0,0l-.37.11-.17,0s.2,0,0,0H61s-.2,0,0,0l-.17,0-.32-.1c-.18,0,0,0,0,0l-.15-.08-.15-.09c-.19-.1.08.1-.06,0l-.12-.12c.12.12,0,.06,0,0,.08.14,0,0,0,0-.07-.23,0,.07,0-.06s0-.13,0-.19,0-.24,0-.09a.52.52,0,1,0,0-.06,1.89,1.89,0,0,1,.05-.23c0-.1,0-.2.08-.3s.17-.39.06-.16a5.24,5.24,0,0,1,.34-.61l.09-.12c.11-.16-.07.07,0,0l.26-.28a2,2,0,0,1,.26-.24l.12-.1,0,0,.33-.2c.07,0,.41-.2.18-.1a4,4,0,0,1,.75-.22,1,1,0,0,0-.53-1.93Z"/></g></g></svg>