<svg width="28" height="18" viewBox="0 0 28 18" xmlns="http://www.w3.org/2000/svg" xmlns:xlink="http://www.w3.org/1999/xlink"><title>Group</title><defs><path id="a" d="M0 0.0581694915L27.9297703 0.0581694915 27.9297703 17.8983033 0 17.8983033z"/></defs><g fill="none" fill-rule="evenodd"><path d="M8.916 1.853s5.546.118 9.147-.916l1.09 14.967-2.967.33-3.905.814-1.926.344-1.44-15.54z" fill="#FEFEFE"/><path d="M27.236 1.09s-2.963-.474-5.55-.584c-2.588-.11-3.922.45-3.922.45l1.04 14.925 8.432.214V1.091z" fill="#E20714"/><g transform="translate(0 .044)"><mask id="b" fill="#fff"><use xlink:href="#a"/></mask><path d="M19.132 15.589c-1.15.075-2.297.207-3.431.41-1.186.214-2.342.554-3.531.75-.468.077-.939.14-1.411.19L9.848 2.117c1.505.02 3.034-.017 4.503-.317 1.46-.299 2.89-.625 4.378-.774A33.451 33.451 0 0 1 22.853.87c1.401.032 2.833.118 4.217.375l.052 13.2.006 1.432c-2.631-.396-5.352-.462-7.996-.29m8.745-12.773l-.008-1.9c0-.167-.123-.353-.293-.388C26.37.28 25.124.175 23.898.11 21.1-.042 18.272.14 15.526.71c-.95.198-1.861.428-2.83.51-.971.08-1.946.097-2.92.09-1.989-.014-3.977-.135-5.959-.299C2.677.917 1.537.811.401.675.238.655.128.725.07.83a.356.356 0 0 0-.068.247C.326 6.25.75 11.42 1.169 16.589c.012.153 0 .385.08.521.139.238.521.27.763.318 1.287.252 2.611.367 3.92.43 2.005.097 4.019.024 6.006-.266 1.078-.158 2.12-.436 3.182-.663a26.91 26.91 0 0 1 3.323-.486c2.959-.254 6.043-.203 8.98.29.251.042.508-.105.507-.387l-.053-13.53" fill="#222146" mask="url(#b)"/></g></g></svg>
