<svg width="52" height="36" xmlns="http://www.w3.org/2000/svg"><g transform="translate(1 1)" stroke="#1E2148" stroke-width="1.871" fill="none" fill-rule="evenodd" stroke-linecap="round" stroke-linejoin="round"><path d="M7.17 11.797c-1.601-1.49-4.347-.683-5.76.99-1.503 1.782-1.937 4.563-.65 6.512 1.285 1.949 4.395 2.504 6.014.827.66-.684 1.013-1.612 1.25-2.536.384-1.49.5-3.124-.13-4.526-.629-1.402-2.17-2.461-3.658-2.134-.45.099-.895.337-1.122.741-.345.613-.071 1.437.462 1.894.53.455 1.252.614 1.947.674 2.712.237 5.5-.856 7.37-2.856 1.867-1.999 2.787-4.86 2.47-7.591-.113-.97-.398-1.967-1.072-2.667-.673-.7-1.814-1.009-2.638-.498-.903.56-1.09 1.787-1.157 2.857-.565 8.808.583 17.647.25 26.467-.031.859-.083 1.74-.43 2.525-.348.785-1.059 1.462-1.907 1.52-1.034.07-1.955-.824-2.211-1.839-.256-1.014.022-2.092.448-3.046 1.88-4.199 6.31-6.509 9.431-9.87 2.835-3.054 4.569-6.978 5.946-10.928.668-1.916 1.268-3.986.758-5.95-.37-1.418-1.797-2.81-3.129-2.227-1.296.567-1.335 2.385-1.139 3.798 1.248 8.989 3.495 18.157 1.521 27.011-.206.925-.651 2.019-1.585 2.12-.676.074-1.302-.472-1.538-1.117-.237-.644-.17-1.359-.062-2.038.831-5.215 3.975-10.008 8.406-12.811 1.418-.898 2.977-1.615 4.168-2.803.903-.901 1.528-2.466.66-3.401-.756-.813-2.207-.493-2.898.378-.69.87-.803 2.066-.786 3.182.015.943.103 1.887.261 2.818.085.498.198 1.011.5 1.414.321.43.825.686 1.342.814 1.974.487 4.046-.825 5.068-2.6 1.021-1.774 1.212-3.903 1.272-5.956l-.796-.295c-.748.47-.572 1.748.163 2.241.734.492 1.727.358 2.53-.01.802-.37 1.497-.942 2.29-1.331.014 1.64.129 3.277.342 4.901.18 1.366.688 3.003 2.026 3.267.93.183 1.865-.462 2.327-1.297.463-.836.555-1.822.622-2.777.32-4.507.312-9.031.305-13.55a55.57 55.57 0 0 0 1.318 14.933c.182.796.434 1.667 1.12 2.1.902.567 2.105.093 2.911-.603M44 6.422c1.333.053 2.666.105 4 .155"/></g></svg>