<svg width="79" height="53" xmlns="http://www.w3.org/2000/svg"><g fill="none" fill-rule="evenodd"><path d="M62.43 19.354c.411 0 .602.119.57.357-.03.24-.047.552-.047.933 0 .065-.008.168-.023.312a4.675 4.675 0 0 1-.12.596c-.063.256-.141.607-.236 1.053a28.037 28.037 0 0 1-.428 1.674c-.603 2.454-1.252 4.621-1.949 6.501a23.392 23.392 0 0 1-1.021 2.367 13.415 13.415 0 0 1-.973 1.65c-.856 1.212-1.933 1.817-3.233 1.817-1.456 0-2.707-.764-3.752-2.295-.95-1.434-1.426-3.172-1.426-5.21 0-1.658.118-3.332.357-5.021.237-1.69.546-3.204.927-4.544.125-.477.276-.97.45-1.482.174-.51.388-.98.642-1.41.253-.43.538-.78.855-1.05a1.692 1.692 0 0 1 1.14-.409c.886 0 1.71.335 2.472 1.006.347.35.632.78.854 1.289.221.51.332.958.332 1.34 0 .637-.062 1.338-.187 2.102a28.023 28.023 0 0 1-.471 2.273 18.6 18.6 0 0 1-.636 2.055c-.235.621-.478 1.123-.73 1.508a3.976 3.976 0 0 1-.658.86 4.275 4.275 0 0 1-.872.693c-.299.176-.58.271-.846.287-.268.016-.495-.103-.684-.359-.063.256-.079.591-.046 1.003.03.415.078.822.142 1.22.064.4.143.773.237 1.124.095.351.174.605.239.764.246.544.57.95.97 1.22.402.271.68.406.835.406.316 0 .644-.28 1.056-.666.512-.479 1.278-1.707 1.665-2.707.602-1.558.509-1.232 1.175-2.795a48.737 48.737 0 0 0 1.805-5.02c.095-.35.182-.693.262-1.028.078-.334.166-.677.26-1.028.159-.924.523-1.386 1.094-1.386m-7.46-1.005c-.248.701-.472 1.332-.672 1.888-.202.56-.394 1.1-.58 1.626-.186.526-.34 1.06-.464 1.603a10.27 10.27 0 0 0-.232 1.817c.403-.032.752-.318 1.047-.861.293-.542.488-1.035.582-1.483.123-.637.255-1.281.395-1.936.14-.653.209-1.33.209-2.031 0-.16-.024-.36-.071-.599-.047-.238-.119-.246-.215-.024" fill="#1F2548"/><path d="M57.756 30.801c.76-1.774 1.981-5.327 2.076-5.71.096-.382.238-.908.428-1.578.41-1.561.619-2.82.619-3.777 0-.063-.019-.216-.049-.454-.031-.239-.126-.58-.284-1.027-.318-.766-.476-1.451-.476-2.056 0-.67.064-1.212.19-1.626.126-.415.286-.742.475-.98.19-.24.405-.408.642-.503a1.85 1.85 0 0 1 .688-.144c.127 0 .286.023.475.073.191.047.373.15.547.31.174.16.333.39.475.694.142.302.23.693.262 1.17.03.32 0 .877-.096 1.675-.063.446-.095.78-.095 1.003v.526c.032.065.158.176.38.335.222.16.682.415 1.378.764 1.71.83 2.566 1.898 2.566 3.204 0 .065-.008.184-.023.36-.016.174-.032.438-.048.788-.017.35-.056.83-.118 1.435-.065.605-.144 1.386-.239 2.342-.063.67-.118 1.227-.166 1.674l-.118 1.1a19.18 19.18 0 0 0-.071.716 6.43 6.43 0 0 0-.024.574c0 .766.078 1.243.237 1.434.158.193.316.289.475.289.03-.034.103-.121.214-.264.11-.143.253-.399.428-.765.173-.367.38-.86.617-1.482s.53-1.427.88-2.414c1.075-3.125 1.74-5.531 1.994-7.222.095-.731.286-1.21.57-1.433.286-.223.555-.336.809-.336.125 0 .34.073.641.215.3.145.452.551.452 1.22 0 1.116-.665 3.778-1.996 7.986-.539 1.593-1.014 2.867-1.425 3.824-.412.957-.785 1.69-1.116 2.2-.334.51-.635.845-.904 1.004-.27.16-.516.24-.736.24-1.3 0-2.36-.734-3.183-2.201-.128-.159-.247-.477-.357-.957-.112-.477-.199-1.306-.26-2.484v-7.795c0-.062-.065-.215-.192-.454-.126-.239-.474-.549-1.045-.933-.19 1.021-1.846 6.263-2.636 8.236M79 33.84c0 .2-.08.47-.237.807-.16.34-.367.668-.624.988a4.16 4.16 0 0 1-.861.806c-.318.22-.634.328-.951.328-.278 0-.524-.08-.743-.237-.217-.16-.326-.4-.326-.719 0-.796.267-1.494.802-2.09.534-.6 1.139-.897 1.811-.897.198 0 .435.07.714.209.275.139.415.408.415.806M12.828 9.801c.444.065.665.303.665.717v.335a.704.704 0 0 1-.142.43c-.095.128-.301.255-.617.384-.318.127-1.03.286-2.139.477-.73.16-1.33.255-1.805.286-.475.033-.887.049-1.236.049l-1.472.095a37.427 37.427 0 0 0-.213 2.128c-.08.973-.2 2.176-.357 3.61-.128 1.212-.223 2.199-.286 2.965-.065.764-.119 1.37-.166 1.816-.047.447-.08.765-.095.957-.017.19-.023.318-.023.382 0 1.53.006 2.766.023 3.706.015.94.04 1.586.071 1.935.095 1.022.23 1.691.405 2.01.173.318.292.477.355.477.126-.063.254-.174.38-.335.127-.159.277-.383.452-.669.174-.286.387-.7.641-1.243.348-.861.72-1.951 1.117-3.275.396-1.322.8-2.86 1.211-4.615.095-.413.19-.765.286-1.05.095-.288.173-.543.237-.767.063-.159.166-.365.31-.621.142-.254.37-.383.688-.383.284 0 .554.105.807.311.254.208.38.582.38 1.124 0 .605-.142 1.522-.427 2.75-.285 1.226-.744 2.796-1.377 4.71-.825 2.454-1.624 4.262-2.4 5.426-.776 1.164-1.591 1.745-2.447 1.745-1.205 0-2.17-.924-2.898-2.774-.635-1.656-.95-3.712-.95-6.167 0-.797.102-2.326.309-4.59.205-2.263.529-5.42.973-9.467a1.536 1.536 0 0 1-.807-.024c-.255-.08-.428-.151-.523-.216a1.01 1.01 0 0 1-.238-.191c-.095-.095-.268-.19-.522-.286-.444-.16-.72-.36-.832-.598-.11-.24-.166-.438-.166-.597 0-.097.055-.264.166-.503.112-.24.483-.422 1.117-.55.19-.031.348-.055.475-.071l.38-.048c.127-.017.277-.031.45-.047.176-.016.405-.04.69-.073.03-.35.064-.78.095-1.29.032-.51.064-1.1.095-1.77l-.237-.813c0-.191.016-.334.048-.43.252-.51.649-.764 1.187-.764.57 0 1.377.334 2.423 1.003.19.16.286.351.286.574V7.22c-.065.35-.136.71-.215 1.075-.079.367-.166.774-.26 1.22h.404c.047 0 .086.009.118.025s.11.03.237.047c.126.016.412.024.856.024.41 0 .736.008.973.024l.76.048c.27.016.61.032 1.023.047l1.757.072" fill="#1F2548"/><path d="M21.047 19.46c.413 0 .602.12.572.36a7.09 7.09 0 0 0-.049.93c0 .066-.008.169-.024.312a4.878 4.878 0 0 1-.118.598c-.063.255-.142.605-.237 1.052a27.78 27.78 0 0 1-.428 1.673c-.602 2.455-1.252 4.622-1.949 6.503a23.658 23.658 0 0 1-1.021 2.367 13.323 13.323 0 0 1-.973 1.65c-.856 1.21-1.933 1.816-3.231 1.816-1.458 0-2.709-.765-3.754-2.295-.95-1.435-1.426-3.172-1.426-5.211 0-1.658.118-3.331.357-5.02.238-1.69.546-3.204.927-4.544.125-.477.276-.971.451-1.481.173-.51.387-.98.641-1.412.253-.43.539-.78.855-1.05a1.692 1.692 0 0 1 1.14-.408c.888 0 1.712.335 2.471 1.004.35.351.634.782.855 1.292.221.51.333.955.333 1.338 0 .639-.063 1.338-.188 2.104a28.11 28.11 0 0 1-.472 2.271c-.188.75-.4 1.435-.634 2.057-.236.621-.48 1.123-.73 1.506a3.976 3.976 0 0 1-.66.86 4.275 4.275 0 0 1-.87.693c-.298.176-.582.272-.848.288-.267.016-.493-.104-.682-.36-.064.256-.08.591-.047 1.005.03.415.08.82.142 1.219.063.399.142.774.237 1.123.095.352.174.606.239.765.246.543.57.95.971 1.219.4.272.68.408.834.408.317 0 .625-.24.927-.718.3-.478.688-1.083 1.164-1.817.537-.86 1.14-2.072 1.805-3.634a48.625 48.625 0 0 0 1.805-5.02c.095-.35.182-.693.262-1.029.079-.334.166-.675.26-1.027.159-.924.523-1.387 1.093-1.387m-7.458-1.004c-.248.702-.473 1.331-.673 1.89-.202.557-.395 1.098-.58 1.624a14.355 14.355 0 0 0-.464 1.603 10.27 10.27 0 0 0-.232 1.817c.403-.032.752-.318 1.047-.862.295-.542.488-1.035.582-1.482.123-.636.255-1.282.395-1.936.14-.653.209-1.33.209-2.031 0-.16-.024-.36-.071-.6-.048-.238-.119-.246-.213-.023" fill="#1F2548"/><path d="M34.827 19.46c.126 0 .181.08.166.24-.016.159-.024.572-.024 1.243 0 1.18-.682 3.841-2.044 7.984-.538 1.594-1.013 2.869-1.424 3.826-.412.956-.785 1.681-1.117 2.175-.333.494-.634.822-.903.98-.269.16-.515.24-.736.24-1.552 0-2.598-1.132-3.136-3.395-.57 1.242-1.046 2.104-1.426 2.58-.634.927-1.378 1.388-2.233 1.388-.38 0-.831-.12-1.354-.36-.523-.238-1.006-.74-1.448-1.504-.666-1.084-.998-2.487-.998-4.209 0-1.401.109-2.813.332-4.232.222-1.417.601-3.02 1.14-4.804 1.266-4.175 2.787-6.263 4.56-6.263.635 0 1.299.302 1.997.907.063.033.102.065.118.097s.056.064.12.095c.19-1.625.435-3.658.736-6.096.3-2.44.657-5.14 1.07-8.104-.032-.255-.024-.638.023-1.148.047-.51.292-.862.736-1.052L29.125 0h1.092c.412 0 .72.089.927.264.207.174.388.405.546.693.222.35.3.893.237 1.625l-.046.048c-.285 1.499-.58 3.021-.88 4.566a1460.18 1460.18 0 0 0-.974 5.044c-.031.256-.151 1.172-.355 2.75-.207 1.578-.5 3.849-.88 6.813-.57 4.367-.855 7.19-.855 8.463.031 1.021.102 1.746.213 2.175.112.43.199.71.262.838.158-.16.387-.566.688-1.22.302-.653.801-1.776 1.497-3.37a107.783 107.783 0 0 0 1.569-3.826 52.909 52.909 0 0 0 1.282-3.682c.032-.127.08-.286.144-.478.061-.19.142-.383.237-.574.094-.19.22-.35.38-.478.158-.126.364-.19.618-.19zM25.56 22.57c.063-.542.11-.925.142-1.148.032-.222.048-.462.048-.718 0-.796-.103-1.267-.306-1.41-.202-.144-.367-.214-.492-.214h-.213c-.11 0-.266.095-.47.286-.203.19-.438.518-.704.98-.267.463-.556 1.172-.87 2.127-.877 2.582-1.315 4.958-1.315 7.124 0 .798.014 1.46.046 1.985.032.526.071.949.117 1.267.046.32.101.55.165.693.063.143.126.248.188.311.219.127.453-.047.704-.526.252-.478.627-1.417 1.127-2.82h.048a35.917 35.917 0 0 0 1.55-5.166c.032-.286.063-.651.094-1.098.032-.446.078-.988.141-1.626v-.047z" fill="#1F2548"/><path d="M38.437 33.709c-.824 1.786-1.838 2.678-3.042 2.678-.412 0-.862-.112-1.353-.336-.493-.222-.959-.7-1.402-1.435a7.731 7.731 0 0 1-.665-1.792c-.16-.652-.237-1.394-.237-2.222 0-.703.142-2.615.426-5.739.158-1.529.269-2.765.333-3.706.064-.94.095-1.569.095-1.888v-.717c0-.159.048-.27.144-.335.095-.064.26-.08.499-.048.237.032.592.096 1.068.192.886.16 1.45.366 1.688.622.235.254.355.477.355.669 0 .095-.024.238-.071.43-.049.191-.103.4-.167.622-.063.223-.117.43-.166.621-.048.191-.071.32-.071.382-.063.256-.152.718-.261 1.387a45.99 45.99 0 0 1-.404 2.104 31.053 31.053 0 0 0-.404 2.797 29.079 29.079 0 0 0-.119 2.702c0 .16.008.382.024.67.016.285.047.58.095.883.047.303.126.567.237.79.112.222.262.35.451.383.063-.032.191-.183.38-.456.19-.27.443-.82.762-1.649.062-.192.284-.716.665-1.578.379-.86.807-2.056 1.282-3.585.158-.51.364-1.132.618-1.866.252-.732.522-1.61.807-2.63a9.86 9.86 0 0 1 .143-.502c.063-.207.142-.405.237-.598.095-.19.221-.35.38-.477s.364-.192.618-.192c.095 0 .214.072.356.216.143.143.214.55.214 1.22 0 .16-.015.374-.047.645-.032.27-.112.686-.237 1.242-.128.558-.31 1.267-.548 2.128-.237.862-.562 1.96-.973 3.3-.443 1.435-.8 2.557-1.069 3.37-.27.813-.483 1.38-.641 1.698M35.49 16.257c-.824 0-1.472-.318-1.947-.956-.507-.606-.761-1.227-.761-1.865 0-.542.254-1.068.76-1.578.571-.51 1.078-.766 1.522-.766.76 0 1.345.224 1.757.67.411.447.618 1.085.618 1.913 0 .574-.071 1.036-.215 1.387-.142.35-.325.614-.545.788a1.627 1.627 0 0 1-.666.334 2.571 2.571 0 0 1-.523.073" fill="#1F2548"/><path d="M45.42 16.448c.445 0 .895.072 1.356.215.458.144.87.406 1.235.79.363.382.665.916.903 1.601.237.685.355 1.57.355 2.653 0 1.69-.11 3.34-.333 4.949a33.225 33.225 0 0 1-.996 4.71c-1.014 3.602-2.314 5.402-3.896 5.402-.951 0-1.775-.669-2.472-2.007-.284.286-.602.43-.95.43-.474 0-.918-.287-1.33-.86-.35-.543-.523-1.053-.523-1.531 0-.223.047-.43.142-.622-.095-5.1.239-10.853.998-17.26.253-2.04.5-3.969.736-5.785.239-1.818.468-3.602.69-5.356.063-.733.095-1.227.095-1.483v-.429l-.095-.287.142-.239c.095-.19.269-.374.523-.55.253-.175.618-.264 1.093-.264h.333c.569 0 1.022.169 1.354.503.331.335.499.821.499 1.458 0 .128-.024.328-.072.598-.047.272-.15.725-.309 1.362a30.192 30.192 0 0 0-.38 1.626c-.095.48-.174.926-.237 1.34a163.954 163.954 0 0 0-1.093 6.334 228.375 228.375 0 0 0-.713 5.092c.19-.35.411-.717.665-1.1.602-.86 1.362-1.29 2.28-1.29m-.189 14.535c.728-2.646 1.093-5.419 1.093-8.32 0-1.37-.071-2.286-.215-2.749-.142-.46-.244-.725-.308-.788-.064.032-.142.111-.237.238-.096.129-.23.351-.404.67-.175.319-.373.75-.594 1.291a33.548 33.548 0 0 0-.76 2.104c-.54 1.563-.943 3.02-1.212 4.374-.27 1.356-.42 2.607-.452 3.754.318.383.697.925 1.14 1.626.127.222.239.35.334.383a.772.772 0 0 0 .19.047c.126 0 .315-.182.57-.55.253-.365.538-1.06.855-2.08" fill="#1F2548"/><path d="M7.863 52.247l3.904-7.113m3.902 7.113l-3.902-7.113m11.709 7.113l-3.903-7.113m-3.904 7.113l3.904-7.113m3.903 7.113l3.904-7.113m3.904 7.113l-3.904-7.113m11.71 7.113l-3.902-7.113m-3.904 7.113l3.904-7.113m3.902 7.113l3.904-7.113m3.903 7.113l-3.903-7.113m11.712 7.113l-3.904-7.113m-3.905 7.113l3.905-7.113m3.904 7.113l3.901-7.113m3.905 7.113l-3.905-7.113m11.712 7.113l-3.905-7.113m-3.902 7.113l3.902-7.113" stroke="#1F2548" stroke-width=".66" stroke-linecap="round"/></g></svg>